SplineFontDB: 3.2
FontName: BP-Icons
FullName: BP-Icons Regular
FamilyName: BP-Icons
Weight: Book
Version: 1.0
ItalicAngle: 0
UnderlinePosition: 0
UnderlineWidth: 0
Ascent: 1920
Descent: 128
InvalidEm: 0
sfntRevision: 0x00010000
LayerCount: 3
Layer: 0 1 "Back" 1
Layer: 1 1 "Fore" 0
Layer: 2 0 "Back 2" 1
XUID: [1021 195 -672532814 11093]
StyleMap: 0x0040
FSType: 4
OS2Version: 3
OS2_WeightWidthSlopeOnly: 0
OS2_UseTypoMetrics: 0
CreationTime: 1705937896
ModificationTime: 1718108688
PfmFamily: 81
TTFWeight: 400
TTFWidth: 5
LineGap: 0
VLineGap: 0
Panose: 0 0 0 0 0 0 0 0 0 0
OS2TypoAscent: 1920
OS2TypoAOffset: 0
OS2TypoDescent: -128
OS2TypoDOffset: 0
OS2TypoLinegap: 0
OS2WinAscent: 1920
OS2WinAOffset: 0
OS2WinDescent: 187
OS2WinDOffset: 0
HheadAscent: 1920
HheadAOffset: 0
HheadDescent: -187
HheadDOffset: 0
OS2SubXSize: 1330
OS2SubYSize: 1432
OS2SubXOff: 0
OS2SubYOff: 286
OS2SupXSize: 1330
OS2SupYSize: 1432
OS2SupXOff: 0
OS2SupYOff: 982
OS2StrikeYSize: 102
OS2StrikeYPos: 530
OS2Vendor: 'PfEd'
OS2CodePages: 00000001.00000000
OS2UnicodeRanges: 00000001.10000000.00000000.00000000
DEI: 91125
TtTable: prep
PUSHW_1
 511
SCANCTRL
PUSHB_1
 1
SCANTYPE
SVTCA[y-axis]
MPPEM
PUSHB_1
 8
LT
IF
PUSHB_2
 1
 1
INSTCTRL
EIF
PUSHB_2
 70
 6
CALL
IF
POP
PUSHB_1
 16
EIF
MPPEM
PUSHB_1
 20
GT
IF
POP
PUSHB_1
 128
EIF
SCVTCI
PUSHB_1
 6
CALL
NOT
IF
EIF
PUSHB_1
 20
CALL
EndTTInstrs
TtTable: fpgm
PUSHB_1
 0
FDEF
PUSHB_1
 0
SZP0
MPPEM
PUSHB_1
 76
LT
IF
PUSHB_1
 74
SROUND
EIF
PUSHB_1
 0
SWAP
MIAP[rnd]
RTG
PUSHB_1
 6
CALL
IF
RTDG
EIF
MPPEM
PUSHB_1
 76
LT
IF
RDTG
EIF
DUP
MDRP[rp0,rnd,grey]
PUSHB_1
 1
SZP0
MDAP[no-rnd]
RTG
ENDF
PUSHB_1
 1
FDEF
DUP
MDRP[rp0,min,white]
PUSHB_1
 12
CALL
ENDF
PUSHB_1
 2
FDEF
MPPEM
GT
IF
RCVT
SWAP
EIF
POP
ENDF
PUSHB_1
 3
FDEF
ROUND[Black]
RTG
DUP
PUSHB_1
 64
LT
IF
POP
PUSHB_1
 64
EIF
ENDF
PUSHB_1
 4
FDEF
PUSHB_1
 6
CALL
IF
POP
SWAP
POP
ROFF
IF
MDRP[rp0,min,rnd,black]
ELSE
MDRP[min,rnd,black]
EIF
ELSE
MPPEM
GT
IF
IF
MIRP[rp0,min,rnd,black]
ELSE
MIRP[min,rnd,black]
EIF
ELSE
SWAP

StartChar: uniE000
Encoding: 57344 57344 3
Width: 1902
GlyphClass: 2
Flags: W
LayerCount: 3
Fore
SplineSet
38 846 m 2,0,1
 16 872 16 872 42 898 c 2,2,-1
 864 1582 l 2,3,4
 900 1612 900 1612 951 1612 c 128,-1,5
 1002 1612 1002 1612 1038 1582 c 2,6,-1
 1316 1350 l 1,7,-1
 1316 1572 l 2,8,9
 1316 1588 1316 1588 1327 1599 c 128,-1,10
 1338 1610 1338 1610 1354 1610 c 2,11,-1
 1572 1610 l 2,12,13
 1588 1610 1588 1610 1599 1599 c 128,-1,14
 1610 1588 1610 1588 1610 1572 c 2,15,-1
 1610 1106 l 1,16,-1
 1860 898 l 2,17,18
 1886 872 1886 872 1864 846 c 2,19,-1
 1794 762 l 1,20,21
 1794 762 1794 762 1785 756 c 128,-1,22
 1776 750 1776 750 1770 750 c 2,23,-1
 1766 750 l 2,24,25
 1750 750 1750 750 1742 758 c 2,26,-1
 950 1418 l 1,27,-1
 160 758 l 1,28,29
 131 739 131 739 108 762 c 2,30,-1
 38 846 l 2,0,1
292 220 m 2,31,-1
 292 768 l 2,32,33
 292 770 292 770 294 774 c 2,34,-1
 950 1316 l 1,35,-1
 1608 774 l 1,36,37
 1608 774 1608 774 1610 768 c 2,38,-1
 1610 220 l 2,39,40
 1610 190 1610 190 1588 168 c 128,-1,41
 1566 146 1566 146 1536 146 c 2,42,-1
 1098 146 l 1,43,-1
 1098 586 l 1,44,-1
 804 586 l 1,45,-1
 804 146 l 1,46,-1
 366 146 l 2,47,48
 336 146 336 146 314 168 c 128,-1,49
 292 190 292 190 292 220 c 2,31,-1
EndSplineSet
Validated: 1
EndChar

StartChar: uniE001
Encoding: 57345 57345 4
Width: 2048
GlyphClass: 2
Flags: W
LayerCount: 3
Fore
SplineSet
0 740 m 1,0,-1
 0 1064 l 1,1,-1
 1024 1858 l 1,2,-1
 2048 1064 l 1,3,-1
 2048 740 l 1,4,-1
 1024 1534 l 1,5,-1
 0 740 l 1,0,-1
256 0 m 1,6,-1
 256 768 l 1,7,-1
 1024 1344 l 1,8,-1
 1792 768 l 1,9,-1
 1792 0 l 1,10,-1
 1280 0 l 1,11,-1
 1280 512 l 1,12,-1
 768 512 l 1,13,-1
 768 0 l 1,14,-1
 256 0 l 1,6,-1
EndSplineSet
Validated: 1
EndChar

StartChar: uniE002
Encoding: 57346 57346 5
Width: 2048
GlyphClass: 2
Flags: W
LayerCount: 3
Fore
SplineSet
0 640 m 1,0,-1
 256 640 l 1,1,-1
 256 0 l 1,2,-1
 896 0 l 1,3,-1
 896 384 l 1,4,-1
 1152 384 l 1,5,-1
 1152 0 l 1,6,-1
 1792 0 l 1,7,-1
 1792 640 l 1,8,-1
 2048 640 l 1,9,-1
 2048 704 l 1,10,-1
 1664 1088 l 1,11,-1
 1664 1664 l 1,12,-1
 1408 1664 l 1,13,-1
 1408 1344 l 1,14,-1
 1024 1728 l 1,15,-1
 0 704 l 1,16,-1
 0 640 l 1,0,-1
EndSplineSet
Validated: 9
EndChar

StartChar: uniE003
Encoding: 57347 57347 6
Width: 2048
GlyphClass: 2
Flags: W
LayerCount: 3
Fore
SplineSet
1155 1186 m 1,0,1
 1065 1171 1065 1171 1021.5 1163.5 c 128,-1,2
 978 1156 978 1156 901.5 1120 c 128,-1,3
 825 1084 825 1084 765.5 1031.5 c 128,-1,4
 706 979 706 979 660 912 c 0,5,6
 570 784 570 784 556 610 c 0,7,8
 549 531 549 531 561.5 476 c 128,-1,9
 574 421 574 421 576 412 c 128,-1,10
 578 403 578 403 577 392 c 128,-1,11
 576 381 576 381 574 378.5 c 128,-1,12
 572 376 572 376 561 372.5 c 128,-1,13
 550 369 550 369 541 369.5 c 128,-1,14
 532 370 532 370 495.5 370 c 128,-1,15
 459 370 459 370 394 369.5 c 128,-1,16
 329 369 329 369 294 370 c 0,17,18
 220 372 220 372 220 455 c 0,19,20
 218 740 218 740 222 975 c 0,21,22
 222 993 222 993 234 1014 c 128,-1,23
 246 1035 246 1035 261 1046 c 0,24,25
 526 1236 526 1236 770 1399 c 0,26,27
 787 1410 787 1410 813.5 1413 c 128,-1,28
 840 1416 840 1416 865 1400.5 c 128,-1,29
 890 1385 890 1385 931 1357.5 c 128,-1,30
 972 1330 972 1330 999.5 1310.5 c 128,-1,31
 1027 1291 1027 1291 1076 1256 c 128,-1,32
 1125 1221 1125 1221 1146 1207 c 0,33,34
 1147 1206 1147 1206 1155 1186 c 1,0,1
1637 1215 m 0,35,36
 1635 1140 1635 1140 1578 1108 c 0,37,38
 1554 1095 1554 1095 1524.5 1095 c 128,-1,39
 1495 1095 1495 1095 1466 1114 c 0,40,41
 1404 1154 1404 1154 879 1523 c 0,42,43
 847 1546 847 1546 819 1546 c 128,-1,44
 791 1546 791 1546 759 1523 c 0,45,46
 636 1435 636 1435 187 1123 c 0,47,48
 144 1093 144 1093 119.5 1093 c 128,-1,49
 95 1093 95 1093 84 1095 c 0,50,51
 36 1105 36 1105 12 1159 c 0,52,53
 0 1184 0 1184 0 1201.5 c 128,-1,54
 0 1219 0 1219 7.5 1240.5 c 128,-1,55
 15 1262 15 1262 56 1291 c 0,56,57
 591 1664 591 1664 662.5 1712.5 c 128,-1,58
 734 1761 734 1761 763 1782.5 c 128,-1,59
 792 1804 792 1804 820.5 1804 c 128,-1,60
 849 1804 849 1804 900.5 1768 c 128,-1,61
 952 1732 952 1732 1100 1629 c 0,62,63
 1382 1432 1382 1432 1584 1288 c 0,64,65
 1606 1271 1606 1271 1620 1245 c 128,-1,66
 1634 1219 1634 1219 1637 1215 c 0,35,36
2047 224 m 0,67,68
 2048 216 2048 216 2048 209 c 0,69,70
 2048 161 2048 161 2017.5 109 c 128,-1,71
 1987 57 1987 57 1934.5 33 c 128,-1,72
 1882 9 1882 9 1824 9 c 128,-1,73
 1766 9 1766 9 1711 58 c 0,74,75
 1693 74 1693 74 1626.5 132.5 c 128,-1,76
 1560 191 1560 191 1526.5 221.5 c 128,-1,77
 1493 252 1493 252 1476 260 c 0,78,79
 1447 274 1447 274 1386 234 c 0,80,81
 1260 149 1260 149 1131 149 c 0,82,83
 1049 149 1049 149 956 187 c 128,-1,84
 863 225 863 225 792 302 c 0,85,86
 671 433 671 433 671 613 c 0,87,88
 671 741 671 741 724 838 c 0,89,90
 817 1012 817 1012 1049 1054 c 0,91,92
 1091 1062 1091 1062 1150 1062 c 128,-1,93
 1209 1062 1209 1062 1302.5 1028 c 128,-1,94
 1396 994 1396 994 1474 904 c 0,95,96
 1575 786 1575 786 1582 638 c 0,97,98
 1584 609 1584 609 1584 571.5 c 128,-1,99
 1584 534 1584 534 1585 516 c 1,100,101
 1619 505 1619 505 1690 482 c 0,102,103
 1843 434 1843 434 1918 408 c 0,104,105
 2033 367 2033 367 2047 224 c 0,67,68
1128.5 304 m 128,-1,107
 1262 304 1262 304 1349.5 388 c 128,-1,108
 1437 472 1437 472 1438 601 c 2,109,110
 1438 601 1438 601 1438 603 c 0,111,112
 1438 689 1438 689 1397 763 c 0,113,114
 1355 837 1355 837 1283.5 879.5 c 128,-1,115
 1212 922 1212 922 1130 923 c 2,116,117
 1130 923 1130 923 1127 923 c 0,118,119
 998 922 998 922 909 831.5 c 128,-1,120
 820 741 820 741 819 610 c 2,121,122
 819 610 819 610 819 609 c 0,123,124
 819 478 819 478 907 391 c 128,-1,106
 995 304 995 304 1128.5 304 c 128,-1,107
EndSplineSet
Validated: 33
EndChar

StartChar: uniE01B
Encoding: 57371 57371 7
Width: 1902
GlyphClass: 2
Flags: W
LayerCount: 3
Fore
SplineSet
356 69 m 128,-1,1
 344 86 344 86 344 97 c 128,-1,2
 344 108 344 108 346 132 c 2,3,-1
 444 702 l 1,4,-1
 28 1108 l 2,5,6
 0 1136 0 1136 0 1162 c 0,7,8
 0 1208 0 1208 64 1214 c 2,9,-1
 638 1298 l 1,10,-1
 894 1818 l 2,11,12
 918 1866 918 1866 944 1866 c 0,13,14
 988 1866 988 1866 1006 1818 c 1,15,-1
 1264 1298 l 1,16,-1
 1838 1214 l 2,17,18
 1858 1212 1858 1212 1880 1200 c 128,-1,19
 1902 1188 1902 1188 1902 1167 c 0,20,21
 1902 1133 1902 1133 1872 1108 c 2,22,-1
 1458 702 l 1,23,-1
 1556 132 l 1,24,25
 1556 132 1556 132 1556 108 c 0,26,27
 1556 52 1556 52 1510 52 c 0,28,29
 1487 52 1487 52 1464 66 c 2,30,-1
 950 334 l 1,31,-1
 438 66 l 2,32,33
 410 52 410 52 389 52 c 128,-1,0
 368 52 368 52 356 69 c 128,-1,1
EndSplineSet
Validated: 1
EndChar

StartChar: uniE01C
Encoding: 57372 57372 8
Width: 1902
GlyphClass: 2
Flags: W
LayerCount: 3
Fore
SplineSet
356 69 m 128,-1,1
 344 86 344 86 344 97 c 128,-1,2
 344 108 344 108 346 132 c 2,3,-1
 444 702 l 1,4,-1
 28 1108 l 2,5,6
 0 1136 0 1136 0 1162 c 0,7,8
 0 1208 0 1208 64 1214 c 2,9,-1
 638 1298 l 1,10,-1
 894 1818 l 2,11,12
 918 1866 918 1866 944 1866 c 0,13,14
 988 1866 988 1866 1006 1818 c 1,15,-1
 1264 1298 l 1,16,-1
 1838 1214 l 2,17,18
 1858 1212 1858 1212 1880 1200 c 128,-1,19
 1902 1188 1902 1188 1902 1167 c 0,20,21
 1902 1133 1902 1133 1872 1108 c 2,22,-1
 1458 702 l 1,23,-1
 1556 132 l 1,24,25
 1556 132 1556 132 1556 108 c 0,26,27
 1556 52 1556 52 1510 52 c 0,28,29
 1487 52 1487 52 1464 66 c 2,30,-1
 950 334 l 1,31,-1
 438 66 l 2,32,33
 410 52 410 52 389 52 c 128,-1,0
 368 52 368 52 356 69 c 128,-1,1
252 1094 m 1,34,-1
 602 754 l 1,35,-1
 518 274 l 1,36,-1
 950 500 l 1,37,-1
 1382 274 l 1,38,-1
 1300 754 l 1,39,-1
 1650 1094 l 1,40,-1
 1166 1164 l 1,41,-1
 950 1602 l 1,42,-1
 734 1164 l 1,43,-1
 252 1094 l 1,34,-1
EndSplineSet
Validated: 1
EndChar

StartChar: uniE01D
Encoding: 57373 57373 9
Width: 1902
GlyphClass: 2
Flags: W
LayerCount: 3
Fore
SplineSet
0 1162 m 0,0,1
 0 1207 0 1207 64 1214 c 2,2,-1
 638 1298 l 1,3,-1
 894 1818 l 2,4,5
 918 1866 918 1866 950 1866 c 128,-1,6
 982 1866 982 1866 1006 1818 c 2,7,-1
 1264 1298 l 1,8,-1
 1838 1214 l 2,9,10
 1902 1207 1902 1207 1902 1162 c 0,11,12
 1902 1136 1902 1136 1872 1108 c 2,13,-1
 1458 702 l 1,14,-1
 1556 132 l 2,15,16
 1562 94 1562 94 1549 73 c 128,-1,17
 1536 52 1536 52 1518 52 c 0,18,19
 1485 52 1485 52 1464 66 c 2,20,-1
 950 334 l 1,21,-1
 438 66 l 2,22,23
 414 52 414 52 390 52 c 128,-1,24
 366 52 366 52 353 73 c 128,-1,25
 340 94 340 94 346 132 c 2,26,-1
 444 702 l 1,27,-1
 28 1108 l 2,28,29
 0 1136 0 1136 0 1162 c 0,0,1
950 500 m 1,30,-1
 1018 466 l 1,31,-1
 1382 274 l 1,32,-1
 1314 678 l 1,33,-1
 1300 754 l 1,34,-1
 1356 808 l 1,35,-1
 1650 1094 l 1,36,-1
 1166 1164 l 1,37,-1
 1132 1234 l 1,38,-1
 950 1602 l 1,39,-1
 950 500 l 1,30,-1
EndSplineSet
Validated: 1
EndChar

StartChar: uniE01E
Encoding: 57374 57374 10
Width: 950
GlyphClass: 2
Flags: W
LayerCount: 3
Fore
SplineSet
356 69 m 128,-1,1
 344 86 344 86 344 97 c 128,-1,2
 344 108 344 108 346 132 c 2,3,-1
 444 702 l 1,4,-1
 28 1108 l 2,5,6
 0 1136 0 1136 0 1162 c 0,7,8
 0 1208 0 1208 64 1214 c 2,9,-1
 638 1298 l 1,10,-1
 894 1818 l 2,11,12
 918 1866 918 1866 950 1866 c 1,13,-1
 950 334 l 1,14,-1
 438 66 l 2,15,16
 410 52 410 52 389 52 c 128,-1,0
 368 52 368 52 356 69 c 128,-1,1
EndSplineSet
Validated: 1
EndChar

StartChar: uniE027
Encoding: 57383 57383 11
Width: 1610
GlyphClass: 2
Flags: W
LayerCount: 3
Fore
SplineSet
26 1215 m 0,0,1
 0 1288 0 1288 0 1357 c 0,2,3
 0 1507 0 1507 109 1661 c 0,4,5
 138 1702 138 1702 173 1717 c 0,6,7
 264 1756 264 1756 338 1756 c 0,8,9
 350 1756 350 1756 365 1751 c 0,10,11
 382 1745 382 1745 416 1681 c 0,12,13
 518 1485 518 1485 552 1439.5 c 128,-1,14
 586 1394 586 1394 586 1368 c 0,15,16
 586 1316 586 1316 482 1249 c 128,-1,17
 378 1182 378 1182 378 1134 c 0,18,19
 378 1112 378 1112 394 1085 c 128,-1,20
 410 1058 410 1058 422 1036 c 0,21,22
 510 880 510 880 622 768 c 128,-1,23
 734 656 734 656 890 570 c 0,24,25
 910 558 910 558 938 541 c 128,-1,26
 966 524 966 524 988 524 c 0,27,28
 1034 524 1034 524 1102 628 c 128,-1,29
 1170 732 1170 732 1222 732 c 0,30,31
 1248 732 1248 732 1275 712 c 128,-1,32
 1302 692 1302 692 1337 671 c 0,33,34
 1414 625 1414 625 1568 543 c 0,35,36
 1600 526 1600 526 1604 514 c 0,37,38
 1610 496 1610 496 1610 475 c 128,-1,39
 1610 454 1610 454 1598 404 c 128,-1,40
 1586 354 1586 354 1571 319 c 128,-1,41
 1556 284 1556 284 1514 255 c 128,-1,42
 1472 226 1472 226 1428 202 c 0,43,44
 1325 146 1325 146 1233.5 146 c 128,-1,45
 1142 146 1142 146 1069 172 c 128,-1,46
 996 198 996 198 933 221 c 0,47,48
 807 267 807 267 728 317 c 0,49,50
 577 412 577 412 420 567 c 0,51,52
 209 776 209 776 121 966 c 0,53,54
 93 1027 93 1027 26 1215 c 0,0,1
EndSplineSet
Validated: 1
EndChar

StartChar: uniE028
Encoding: 57384 57384 12
Width: 878
GlyphClass: 2
Flags: W
LayerCount: 3
Fore
SplineSet
-110 180 m 6,0,-1
 -110 1643 l 6,1,2
 -110 1718 -110 1718 -56 1773 c 132,-1,3
 -2 1828 -2 1828 73 1828 c 6,4,-1
 805 1828 l 6,5,6
 880 1828 880 1828 934 1773 c 132,-1,7
 988 1718 988 1718 988 1643 c 6,8,9
 988 1642 988 1642 988 180 c 6,10,11
 988 105 988 105 934 51.5 c 132,-1,12
 880 -2 880 -2 805 -2 c 6,13,-1
 73 -2 l 6,14,15
 -2 -2 -2 -2 -56 51.5 c 132,-1,16
 -110 105 -110 105 -110 180 c 6,0,-1
28 410 m 6,17,18
 28 390 28 390 41.5 376.5 c 132,-1,19
 55 363 55 363 73 363 c 6,20,-1
 805 363 l 6,21,22
 823 363 823 363 836.5 376.5 c 132,-1,23
 850 390 850 390 850 410 c 6,24,-1
 850 1416 l 6,25,26
 850 1434 850 1434 836.5 1447 c 132,-1,27
 823 1460 823 1460 805 1460 c 6,28,-1
 73 1460 l 6,29,30
 56 1460 56 1460 42 1446 c 4,31,32
 28 1434 28 1434 28 1416 c 6,33,-1
 28 410 l 6,17,18
325 1643 m 6,34,35
 303 1642 303 1642 303 1620 c 260,36,37
 303 1598 303 1598 325 1598 c 6,38,-1
 553 1598 l 6,39,40
 575 1598 575 1598 575 1620.5 c 132,-1,41
 575 1643 575 1643 553 1643 c 6,42,-1
 325 1643 l 6,34,35
325 180 m 260,43,44
 325 132 325 132 359 100 c 132,-1,45
 393 68 393 68 439 68 c 132,-1,46
 485 68 485 68 519 100.5 c 132,-1,47
 553 133 553 133 553 180.5 c 132,-1,48
 553 228 553 228 519 262 c 132,-1,49
 485 296 485 296 439 296 c 132,-1,50
 393 296 393 296 359 262 c 132,-1,51
 325 228 325 228 325 180 c 260,43,44
EndSplineSet
Validated: 1
EndChar

StartChar: uniE029
Encoding: 57385 57385 13
Width: 2048
GlyphClass: 2
Flags: W
LayerCount: 3
Fore
SplineSet
1624 1230 m 128,-1,1
 1626 1230 1626 1230 1788 1216 c 128,-1,2
 1950 1202 1950 1202 1974 1202 c 128,-1,3
 1998 1202 1998 1202 2023 1227 c 128,-1,4
 2048 1252 2048 1252 2048 1288 c 0,5,6
 2048 1360 2048 1360 2009 1502 c 128,-1,7
 1970 1644 1970 1644 1888 1724 c 0,8,9
 1796 1816 1796 1816 1543 1871 c 0,10,11
 1318 1920 1318 1920 1024 1920 c 0,12,13
 575 1920 575 1920 300 1810 c 0,14,15
 210 1774 210 1774 160 1724 c 0,16,17
 78 1644 78 1644 44 1520 c 128,-1,18
 10 1396 10 1396 6 1351 c 128,-1,19
 2 1306 2 1306 1 1299 c 256,20,21
 0 1292 0 1292 0 1288 c 0,22,23
 0 1252 0 1252 25 1227 c 128,-1,24
 50 1202 50 1202 74 1202 c 128,-1,25
 98 1202 98 1202 260 1216 c 128,-1,26
 422 1230 422 1230 424 1230 c 128,-1,27
 426 1230 426 1230 428 1232 c 0,28,29
 464 1232 464 1232 488 1257 c 128,-1,30
 512 1282 512 1282 512 1316 c 2,31,-1
 512 1484 l 2,32,33
 512 1524 512 1524 540 1551 c 128,-1,34
 568 1578 568 1578 606 1578 c 2,35,-1
 1442 1578 l 2,36,37
 1480 1578 1480 1578 1508 1551 c 128,-1,38
 1536 1524 1536 1524 1536 1484 c 2,39,-1
 1536 1316 l 2,40,41
 1536 1282 1536 1282 1560 1257 c 128,-1,42
 1584 1232 1584 1232 1620 1232 c 0,43,0
 1622 1230 1622 1230 1624 1230 c 128,-1,1
42 256 m 2,44,45
 42 186 42 186 92 136 c 128,-1,46
 142 86 142 86 214 86 c 2,47,-1
 256 86 l 1,48,-1
 256 -22 l 2,49,50
 256 -66 256 -66 287 -97 c 128,-1,51
 318 -128 318 -128 362 -128 c 256,52,53
 406 -128 406 -128 438 -97 c 128,-1,54
 470 -66 470 -66 470 -22 c 2,55,-1
 470 86 l 1,56,-1
 1578 86 l 1,57,-1
 1578 -22 l 2,58,59
 1578 -66 1578 -66 1610 -97 c 128,-1,60
 1642 -128 1642 -128 1686 -128 c 256,61,62
 1730 -128 1730 -128 1761 -97 c 128,-1,63
 1792 -66 1792 -66 1792 -22 c 2,64,-1
 1792 86 l 1,65,-1
 1834 86 l 2,66,67
 1906 86 1906 86 1956 136 c 128,-1,68
 2006 186 2006 186 2006 256 c 2,69,-1
 2006 428 l 2,70,71
 2006 514 2006 514 1940 580 c 2,72,-1
 1366 1194 l 1,73,-1
 1366 1302 l 2,74,75
 1366 1346 1366 1346 1334 1377 c 128,-1,76
 1302 1408 1302 1408 1258 1408 c 256,77,78
 1214 1408 1214 1408 1183 1377 c 128,-1,79
 1152 1346 1152 1346 1152 1302 c 2,80,-1
 1152 1194 l 1,81,-1
 896 1194 l 1,82,-1
 896 1302 l 2,83,84
 896 1346 896 1346 865 1377 c 128,-1,85
 834 1408 834 1408 790 1408 c 256,86,87
 746 1408 746 1408 714 1377 c 128,-1,88
 682 1346 682 1346 682 1302 c 2,89,-1
 682 1194 l 1,90,-1
 108 580 l 2,91,92
 42 514 42 514 42 428 c 2,93,-1
 42 256 l 2,44,45
682 640 m 256,94,95
 682 782 682 782 782 882 c 128,-1,96
 882 982 882 982 1024 982 c 128,-1,97
 1166 982 1166 982 1266 882 c 128,-1,98
 1366 782 1366 782 1366 640 c 256,99,100
 1366 498 1366 498 1266 398 c 128,-1,101
 1166 298 1166 298 1024 298 c 256,102,103
 882 298 882 298 782 398 c 128,-1,104
 682 498 682 498 682 640 c 256,94,95
854 640 m 256,105,106
 854 570 854 570 904 520 c 128,-1,107
 954 470 954 470 1024 470 c 256,108,109
 1094 470 1094 470 1144 520 c 128,-1,110
 1194 570 1194 570 1194 640 c 256,111,112
 1194 710 1194 710 1144 760 c 128,-1,113
 1094 810 1094 810 1024 810 c 128,-1,114
 954 810 954 810 904 760 c 128,-1,115
 854 710 854 710 854 640 c 256,105,106
EndSplineSet
Validated: 9
EndChar

StartChar: uniE042
Encoding: 57410 57410 14
Width: 2048
GlyphClass: 2
Flags: W
LayerCount: 3
Fore
SplineSet
0 182 m 2,0,-1
 0 1090 l 1,1,2
 52 1034 52 1034 119 988 c 128,-1,3
 186 942 186 942 258 894 c 0,4,5
 500 732 500 732 628 638 c 128,-1,6
 756 544 756 544 843 491 c 128,-1,7
 930 438 930 438 1022 438 c 2,8,-1
 1026 438 l 2,9,10
 1118 438 1118 438 1205 491 c 128,-1,11
 1292 544 1292 544 1363 596 c 128,-1,12
 1434 648 1434 648 1505 697 c 128,-1,13
 1576 746 1576 746 1647 796 c 128,-1,14
 1718 846 1718 846 1790 894 c 2,15,16
 1790 894 1790 894 1934 990 c 1,17,18
 2000 1039 2000 1039 2048 1090 c 1,19,-1
 2048 182 l 2,20,21
 2048 108 2048 108 1994 54 c 128,-1,22
 1940 0 1940 0 1866 0 c 2,23,-1
 182 0 l 2,24,25
 108 0 108 0 54 54 c 128,-1,26
 0 108 0 108 0 182 c 2,0,-1
68 1239 m 128,-1,28
 0 1324 0 1324 0 1405 c 128,-1,29
 0 1486 0 1486 46 1548 c 128,-1,30
 92 1610 92 1610 182 1610 c 2,31,-1
 1866 1610 l 2,32,33
 1940 1610 1940 1610 1994 1556 c 128,-1,34
 2048 1502 2048 1502 2048 1416 c 128,-1,35
 2048 1330 2048 1330 1988 1248 c 128,-1,36
 1928 1166 1928 1166 1857 1116 c 128,-1,37
 1786 1066 1786 1066 1719 1020 c 2,38,39
 1719 1020 1719 1020 1618.5 951 c 128,-1,40
 1518 882 1518 882 1451 835 c 128,-1,41
 1384 788 1384 788 1323 746 c 128,-1,42
 1262 704 1262 704 1178 645 c 128,-1,43
 1094 586 1094 586 1026 586 c 2,44,-1
 1022 586 l 2,45,46
 954 586 954 586 870 645 c 128,-1,47
 786 704 786 704 725 746 c 128,-1,48
 664 788 664 788 597 835 c 128,-1,49
 530 882 530 882 463 928 c 128,-1,50
 396 974 396 974 329 1020 c 128,-1,51
 262 1066 262 1066 199 1110 c 128,-1,27
 136 1154 136 1154 68 1239 c 128,-1,28
EndSplineSet
Validated: 1
EndChar

StartChar: uniE043
Encoding: 57411 57411 15
Width: 2048
GlyphClass: 2
Flags: W
LayerCount: 3
Fore
SplineSet
0 182 m 2,0,-1
 0 1426 l 2,1,2
 0 1502 0 1502 54 1556 c 128,-1,3
 108 1610 108 1610 182 1610 c 2,4,-1
 1866 1610 l 2,5,6
 1940 1610 1940 1610 1994 1556 c 128,-1,7
 2048 1502 2048 1502 2048 1426 c 2,8,-1
 2048 182 l 2,9,10
 2048 108 2048 108 1994 54 c 128,-1,11
 1940 0 1940 0 1866 0 c 2,12,-1
 182 0 l 2,13,14
 108 0 108 0 54 54 c 128,-1,15
 0 108 0 108 0 182 c 2,0,-1
146 182 m 2,16,17
 146 168 146 168 157 157 c 128,-1,18
 168 146 168 146 182 146 c 2,19,-1
 1866 146 l 2,20,21
 1880 146 1880 146 1891 157 c 128,-1,22
 1902 168 1902 168 1902 182 c 2,23,-1
 1902 1060 l 1,24,25
 1861 1014 1861 1014 1780 952 c 0,26,27
 1514 746 1514 746 1393 645 c 128,-1,28
 1272 544 1272 544 1193 491 c 128,-1,29
 1114 438 1114 438 1026 438 c 2,30,-1
 1022 438 l 2,31,32
 934 438 934 438 855 491 c 128,-1,33
 776 544 776 544 684 621 c 128,-1,34
 592 698 592 698 470 794 c 2,35,36
 470 794 470 794 337 898 c 128,-1,37
 204 1002 204 1002 184 1021 c 128,-1,38
 164 1040 164 1040 146 1060 c 1,39,-1
 146 182 l 2,16,17
146 1426 m 0,40,41
 146 1235 146 1235 314 1102 c 0,42,43
 430 1012 430 1012 544 921 c 128,-1,44
 658 830 658 830 738 766 c 128,-1,45
 818 702 818 702 890 644 c 128,-1,46
 962 586 962 586 1022 586 c 2,47,-1
 1026 586 l 2,48,49
 1086 586 1086 586 1158 644 c 128,-1,50
 1230 702 1230 702 1310 766 c 0,51,52
 1601 999 1601 999 1734 1102 c 0,53,54
 1790 1146 1790 1146 1846 1229 c 128,-1,55
 1902 1312 1902 1312 1902 1384 c 0,56,57
 1902 1406 1902 1406 1900 1434 c 128,-1,58
 1898 1462 1898 1462 1866 1462 c 2,59,-1
 182 1462 l 2,60,61
 168 1462 168 1462 157 1451 c 128,-1,62
 146 1440 146 1440 146 1426 c 0,40,41
EndSplineSet
Validated: 1
EndChar

StartChar: uniE044
Encoding: 57412 57412 16
Width: 2048
GlyphClass: 2
Flags: W
LayerCount: 3
Fore
SplineSet
0 36 m 2,0,-1
 0 1154 l 2,1,2
 0 1170 0 1170 12 1182 c 0,3,4
 102 1260 102 1260 192 1334 c 128,-1,5
 282 1408 282 1408 533 1591 c 128,-1,6
 784 1774 784 1774 868 1838 c 128,-1,7
 952 1902 952 1902 1024 1902 c 256,8,9
 1096 1902 1096 1902 1180 1838 c 128,-1,10
 1264 1774 1264 1774 1515 1591 c 128,-1,11
 1766 1408 1766 1408 1856 1334 c 128,-1,12
 1946 1260 1946 1260 2036 1182 c 0,13,14
 2048 1170 2048 1170 2048 1154 c 2,15,-1
 2048 36 l 2,16,17
 2048 -38 2048 -38 1994 -92 c 128,-1,18
 1940 -146 1940 -146 1866 -146 c 2,19,-1
 182 -146 l 2,20,21
 108 -146 108 -146 54 -92 c 128,-1,22
 0 -38 0 -38 0 36 c 2,0,-1
236 797 m 128,-1,24
 238 782 238 782 250 774 c 0,25,26
 369 683 369 683 540.5 560.5 c 128,-1,27
 712 438 712 438 812 365 c 128,-1,28
 912 292 912 292 1025 292 c 128,-1,29
 1138 292 1138 292 1239 366 c 128,-1,30
 1340 440 1340 440 1439 511 c 0,31,32
 1682 685 1682 685 1798 774 c 0,33,34
 1810 782 1810 782 1812 797 c 128,-1,35
 1814 812 1814 812 1804 824 c 2,36,-1
 1762 884 l 2,37,38
 1738 913 1738 913 1710 890 c 0,39,40
 1642 840 1642 840 1547 770 c 128,-1,41
 1452 700 1452 700 1358 633 c 128,-1,42
 1264 566 1264 566 1180 502 c 128,-1,43
 1096 438 1096 438 1024 438 c 256,44,45
 952 438 952 438 868 502 c 128,-1,46
 784 566 784 566 690 634 c 0,47,48
 453 806 453 806 338 890 c 0,49,50
 310 913 310 913 286 884 c 2,51,-1
 244 824 l 2,52,23
 234 812 234 812 236 797 c 128,-1,24
EndSplineSet
Validated: 1
EndChar

StartChar: uniE045
Encoding: 57413 57413 17
Width: 2048
GlyphClass: 2
Flags: W
LayerCount: 3
Fore
SplineSet
0 36 m 2,0,-1
 0 1098 l 2,1,2
 0 1162 0 1162 46 1204 c 0,3,4
 233 1378 233 1378 574 1634 c 0,5,6
 652 1694 652 1694 713 1744 c 128,-1,7
 774 1794 774 1794 854 1848 c 128,-1,8
 934 1902 934 1902 1022 1902 c 2,9,-1
 1026 1902 l 2,10,11
 1114 1902 1114 1902 1194 1848 c 128,-1,12
 1274 1794 1274 1794 1333 1746 c 128,-1,13
 1392 1698 1392 1698 1471 1637 c 0,14,15
 1857 1339 1857 1339 2002 1204 c 0,16,17
 2048 1162 2048 1162 2048 1098 c 2,18,-1
 2048 36 l 2,19,20
 2048 -38 2048 -38 1994 -92 c 128,-1,21
 1940 -146 1940 -146 1866 -146 c 2,22,-1
 182 -146 l 2,23,24
 108 -146 108 -146 54 -92 c 128,-1,25
 0 -38 0 -38 0 36 c 2,0,-1
146 36 m 2,26,27
 146 22 146 22 157 11 c 128,-1,28
 168 0 168 0 182 0 c 2,29,-1
 1866 0 l 2,30,31
 1880 0 1880 0 1891 11 c 128,-1,32
 1902 22 1902 22 1902 36 c 2,33,-1
 1902 1098 l 1,34,35
 1816 1176 1816 1176 1744 1236 c 128,-1,36
 1672 1296 1672 1296 1452 1466 c 128,-1,37
 1232 1636 1232 1636 1159 1696 c 128,-1,38
 1086 1756 1086 1756 1026 1756 c 2,39,-1
 1022 1756 l 2,40,41
 962 1756 962 1756 889 1696 c 128,-1,42
 816 1636 816 1636 596 1466 c 128,-1,43
 376 1296 376 1296 304 1236 c 128,-1,44
 232 1176 232 1176 146 1098 c 1,45,-1
 146 36 l 2,26,27
334 742 m 0,46,47
 306 765 306 765 328 792 c 2,48,-1
 370 852 l 2,49,50
 394 881 394 881 422 858 c 0,51,52
 482 812 482 812 566 747 c 128,-1,53
 650 682 650 682 733 619 c 128,-1,54
 816 556 816 556 889 497 c 128,-1,55
 962 438 962 438 1022 438 c 2,56,-1
 1026 438 l 2,57,58
 1086 438 1086 438 1159 497 c 128,-1,59
 1232 556 1232 556 1317 621 c 0,60,61
 1561 807 1561 807 1634 866 c 0,62,63
 1646 874 1646 874 1661 872 c 128,-1,64
 1676 870 1676 870 1684 858 c 2,65,-1
 1730 800 l 2,66,67
 1748 774 1748 774 1724 750 c 1,68,69
 1680 716 1680 716 1616 666 c 0,70,71
 1285 408 1285 408 1199.5 350 c 128,-1,72
 1114 292 1114 292 1026 292 c 2,73,-1
 1022 292 l 2,74,75
 934 292 934 292 854 346 c 128,-1,76
 774 400 774 400 714 450 c 0,77,78
 707 452 707 452 604 532 c 0,79,80
 389 700 389 700 334 742 c 0,46,47
EndSplineSet
Validated: 1
EndChar

StartChar: uniE046
Encoding: 57414 57414 18
Width: 2050
GlyphClass: 2
Flags: W
LayerCount: 3
Fore
SplineSet
46 664 m 2,0,1
 3 681 3 681 1 727 c 256,2,3
 -1 773 -1 773 36 794 c 2,4,-1
 1938 1892 l 2,5,6
 1958 1902 1958 1902 1972 1902 c 0,7,8
 2023 1902 2023 1902 2042 1857 c 0,9,10
 2050 1838 2050 1838 2046 1816 c 2,11,-1
 1754 60 l 2,12,13
 1750 28 1750 28 1718 10 c 0,14,15
 1697 -6 1697 -6 1679.5 -1 c 128,-1,16
 1662 4 1662 4 1654 6 c 2,17,-1
 1138 218 l 1,18,-1
 860 -120 l 2,19,20
 838 -146 838 -146 804 -146 c 0,21,22
 766 -146 766 -146 749 -121 c 128,-1,23
 732 -96 732 -96 732 -74 c 2,24,-1
 732 326 l 1,25,-1
 1718 1536 l 1,26,-1
 498 478 l 1,27,-1
 46 664 l 2,0,1
EndSplineSet
Validated: 33
EndChar

StartChar: uniE047
Encoding: 57415 57415 19
Width: 2050
GlyphClass: 2
Flags: W
LayerCount: 3
Fore
SplineSet
46 664 m 2,0,1
 4 681 4 681 0 727 c 0,2,3
 -4 772 -4 772 36 794 c 2,4,-1
 1938 1892 l 2,5,6
 1956 1902 1956 1902 1977 1902 c 128,-1,7
 1998 1902 1998 1902 2016 1889 c 0,8,9
 2054 1861 2054 1861 2046 1816 c 2,10,-1
 1754 60 l 2,11,12
 1750 28 1750 28 1718 10 c 0,13,14
 1697 -6 1697 -6 1679.5 -1 c 128,-1,15
 1662 4 1662 4 1654 6 c 2,16,-1
 1052 252 l 1,17,-1
 712 -122 l 2,18,19
 692 -146 692 -146 672 -146 c 0,20,21
 618 -146 618 -146 602 -121 c 128,-1,22
 586 -96 586 -96 586 -74 c 2,23,-1
 586 444 l 1,24,-1
 46 664 l 2,0,1
238 742 m 1,25,-1
 622 586 l 1,26,-1
 1610 1316 l 1,27,-1
 1062 406 l 1,28,-1
 1626 176 l 1,29,-1
 1878 1688 l 1,30,-1
 238 742 l 1,25,-1
EndSplineSet
Validated: 33
EndChar

StartChar: uniE04E
Encoding: 57422 57422 20
Width: 2048
GlyphClass: 2
Flags: W
LayerCount: 3
Fore
SplineSet
1024 146 m 0,0,1
 958 146 958 146 858 156 c 1,2,3
 633 -45 633 -45 332 -122 c 0,4,5
 274 -138 274 -138 202 -146 c 1,6,-1
 196 -146 l 2,7,8
 180 -146 180 -146 166 -134 c 128,-1,9
 152 -122 152 -122 148 -101 c 128,-1,10
 144 -80 144 -80 155 -65 c 128,-1,11
 166 -50 166 -50 199 -12 c 128,-1,12
 232 26 232 26 289 94 c 128,-1,13
 346 162 346 162 386 306 c 1,14,15
 209 407 209 407 105 555 c 0,16,17
 0 705 0 705 0 867.5 c 128,-1,18
 0 1030 0 1030 80 1163 c 0,19,20
 243 1434 243 1434 626 1552 c 0,21,22
 812 1610 812 1610 1024 1610 c 128,-1,23
 1236 1610 1236 1610 1423 1552 c 0,24,25
 1806 1433 1806 1433 1968 1162 c 0,26,27
 2048 1030 2048 1030 2048 878 c 128,-1,28
 2048 726 2048 726 1968 593 c 0,29,30
 1805 322 1805 322 1422 204 c 0,31,32
 1236 146 1236 146 1024 146 c 0,0,1
686 1416 m 0,33,34
 359 1322 359 1322 216 1103 c 0,35,36
 146 996 146 996 146 873 c 128,-1,37
 146 750 146 750 228 634 c 128,-1,38
 310 518 310 518 458 434 c 2,39,-1
 558 376 l 1,40,-1
 526 266 l 2,41,42
 496 153 496 153 446 70 c 1,43,44
 614 139 614 139 762 266 c 2,45,-1
 810 308 l 1,46,-1
 876 302 l 2,47,48
 966 292 966 292 1024 292 c 0,49,50
 1202 292 1202 292 1362 339 c 0,51,52
 1689 435 1689 435 1832 652 c 0,53,54
 1902 758 1902 758 1902 877 c 128,-1,55
 1902 996 1902 996 1832 1103 c 0,56,57
 1689 1322 1689 1322 1362 1416 c 0,58,59
 1202 1462 1202 1462 1024 1462 c 128,-1,60
 846 1462 846 1462 686 1416 c 0,33,34
EndSplineSet
Validated: 1
EndChar

StartChar: uniE04F
Encoding: 57423 57423 21
Width: 2048
GlyphClass: 2
Flags: W
LayerCount: 3
Fore
SplineSet
1024 146 m 0,0,1
 958 146 958 146 858 156 c 1,2,3
 633 -45 633 -45 332 -122 c 0,4,5
 274 -138 274 -138 202 -146 c 0,6,7
 184 -148 184 -148 168 -136 c 128,-1,8
 152 -124 152 -124 148 -102 c 128,-1,9
 144 -80 144 -80 155 -65 c 128,-1,10
 166 -50 166 -50 199 -12 c 128,-1,11
 232 26 232 26 289 94 c 128,-1,12
 346 162 346 162 386 306 c 1,13,14
 209 407 209 407 105 555 c 0,15,16
 0 705 0 705 0 866.5 c 128,-1,17
 0 1028 0 1028 80 1162 c 0,18,19
 242 1434 242 1434 626 1552 c 0,20,21
 812 1610 812 1610 1024 1610 c 256,22,23
 1236 1610 1236 1610 1423 1552 c 0,24,25
 1806 1433 1806 1433 1968 1162 c 0,26,27
 2048 1030 2048 1030 2048 878 c 128,-1,28
 2048 726 2048 726 1968 593 c 0,29,30
 1805 322 1805 322 1422 204 c 0,31,32
 1236 146 1236 146 1024 146 c 0,0,1
EndSplineSet
Validated: 1
EndChar

StartChar: uniE050
Encoding: 57424 57424 22
Width: 2048
GlyphClass: 2
Flags: W
LayerCount: 3
Fore
SplineSet
604 458 m 1,0,1
 425 328 425 328 188 292 c 1,2,-1
 184 292 l 2,3,4
 172 292 172 292 161 302 c 128,-1,5
 150 312 150 312 147 327 c 128,-1,6
 144 342 144 342 152 353 c 128,-1,7
 160 364 160 364 182 389 c 128,-1,8
 204 414 204 414 239 454 c 128,-1,9
 274 494 274 494 304 566 c 1,10,11
 166 646 166 646 83 766 c 128,-1,12
 0 886 0 886 0 1016 c 128,-1,13
 0 1146 0 1146 64 1252 c 0,14,15
 192 1471 192 1471 492 1564 c 0,16,17
 638 1610 638 1610 805 1610 c 0,18,19
 1139 1610 1139 1610 1373 1438 c 0,20,21
 1482 1358 1482 1358 1546 1252 c 256,22,23
 1610 1146 1610 1146 1610 1024 c 256,24,25
 1610 902 1610 902 1546 796 c 0,26,27
 1414 577 1414 577 1118 484 c 0,28,29
 972 438 972 438 836 438 c 128,-1,30
 700 438 700 438 604 458 c 1,0,1
552 1428 m 0,31,32
 307 1355 307 1355 199 1193 c 0,33,34
 146 1114 146 1114 146 1022 c 128,-1,35
 146 930 146 930 207 843 c 128,-1,36
 268 756 268 756 378 692 c 2,37,-1
 488 628 l 1,38,-1
 448 532 l 1,39,40
 481 551 481 551 518 578 c 2,41,-1
 570 612 l 1,42,-1
 630 602 l 2,43,44
 714 586 714 586 826 586 c 128,-1,45
 938 586 938 586 1058 621 c 0,46,47
 1304 693 1304 693 1410 856 c 0,48,49
 1462 934 1462 934 1462 1024 c 0,50,51
 1462 1203 1462 1203 1268 1332 c 0,52,53
 1073 1462 1073 1462 804 1462 c 0,54,55
 670 1462 670 1462 552 1428 c 0,31,32
1444 164 m 1,56,57
 1336 146 1336 146 1212 146 c 128,-1,58
 1088 146 1088 146 950 186 c 128,-1,59
 812 226 812 226 704 298 c 1,60,61
 776 292 776 292 836 292 c 128,-1,62
 896 292 896 292 985 305 c 0,63,64
 1155 330 1155 330 1274.5 387 c 128,-1,65
 1394 444 1394 444 1460 492 c 0,66,67
 1602 596 1602 596 1679 733 c 128,-1,68
 1756 870 1756 870 1756 1024 c 0,69,70
 1756 1107 1756 1107 1730 1198 c 1,71,72
 1874 1118 1874 1118 1961 996 c 128,-1,73
 2048 874 2048 874 2048 733 c 128,-1,74
 2048 592 2048 592 1965 473 c 128,-1,75
 1882 354 1882 354 1744 274 c 1,76,77
 1774 202 1774 202 1809 162 c 128,-1,78
 1844 122 1844 122 1866 97 c 128,-1,79
 1888 72 1888 72 1896 61 c 128,-1,80
 1904 50 1904 50 1901 34 c 128,-1,81
 1898 18 1898 18 1886 8 c 128,-1,82
 1874 -2 1874 -2 1854 1 c 0,83,84
 1630 35 1630 35 1444 164 c 1,56,57
EndSplineSet
Validated: 1
EndChar

StartChar: uniE051
Encoding: 57425 57425 23
Width: 2048
GlyphClass: 2
Flags: W
LayerCount: 3
Fore
SplineSet
604 458 m 1,0,1
 425 328 425 328 188 292 c 1,2,-1
 184 292 l 2,3,4
 172 292 172 292 161 302 c 128,-1,5
 150 312 150 312 147 327 c 128,-1,6
 144 342 144 342 152 353 c 128,-1,7
 160 364 160 364 182 389 c 128,-1,8
 204 414 204 414 239 454 c 128,-1,9
 274 494 274 494 304 566 c 1,10,11
 166 646 166 646 83 766 c 128,-1,12
 0 886 0 886 0 1016 c 128,-1,13
 0 1146 0 1146 64 1252 c 0,14,15
 192 1471 192 1471 492 1564 c 0,16,17
 638 1610 638 1610 805 1610 c 0,18,19
 1139 1610 1139 1610 1373 1438 c 0,20,21
 1482 1358 1482 1358 1546 1252 c 256,22,23
 1610 1146 1610 1146 1610 1024 c 128,-1,24
 1610 902 1610 902 1546 796 c 0,25,26
 1414 577 1414 577 1118 484 c 0,27,28
 972 438 972 438 836 438 c 128,-1,29
 700 438 700 438 604 458 c 1,0,1
1444 164 m 1,30,31
 1336 146 1336 146 1212 146 c 128,-1,32
 1088 146 1088 146 950 186 c 128,-1,33
 812 226 812 226 704 298 c 1,34,35
 776 292 776 292 836 292 c 128,-1,36
 896 292 896 292 985 305 c 0,37,38
 1155 330 1155 330 1274.5 387 c 128,-1,39
 1394 444 1394 444 1460 492 c 0,40,41
 1602 596 1602 596 1679 733 c 128,-1,42
 1756 870 1756 870 1756 1024 c 0,43,44
 1756 1107 1756 1107 1730 1198 c 1,45,46
 1874 1118 1874 1118 1961 996 c 128,-1,47
 2048 874 2048 874 2048 733 c 128,-1,48
 2048 592 2048 592 1965 473 c 128,-1,49
 1882 354 1882 354 1744 274 c 1,50,51
 1774 202 1774 202 1809 162 c 128,-1,52
 1844 122 1844 122 1866 97 c 128,-1,53
 1888 72 1888 72 1896 61 c 128,-1,54
 1904 50 1904 50 1901 34 c 128,-1,55
 1898 18 1898 18 1886 8 c 128,-1,56
 1874 -2 1874 -2 1854 1 c 0,57,58
 1630 35 1630 35 1444 164 c 1,30,31
EndSplineSet
Validated: 1
EndChar

StartChar: uniE052
Encoding: 57426 57426 24
Width: 2048
GlyphClass: 2
Flags: W
LayerCount: 3
Fore
SplineSet
1968 592 m 0,0,1
 1805 322 1805 322 1423 204 c 0,2,3
 1236 146 1236 146 1067 146 c 128,-1,4
 898 146 898 146 782 166 c 1,5,6
 567 -49 567 -49 238 -104 c 0,7,8
 177 -114 177 -114 163.5 -105 c 128,-1,9
 150 -96 150 -96 148 -82 c 0,10,11
 144 -68 144 -68 152 -59 c 128,-1,12
 160 -50 160 -50 192 -20 c 128,-1,13
 224 10 224 10 280 76 c 128,-1,14
 336 142 336 142 358 322 c 1,15,16
 192 423 192 423 97 567 c 0,17,18
 0 714 0 714 0 872 c 128,-1,19
 0 1030 0 1030 80 1163 c 0,20,21
 243 1434 243 1434 626 1552 c 0,22,23
 812 1610 812 1610 1024 1610 c 256,24,25
 1236 1610 1236 1610 1423 1552 c 0,26,27
 1806 1433 1806 1433 1968 1162 c 0,28,29
 2048 1030 2048 1030 2048 878 c 128,-1,30
 2048 726 2048 726 1968 592 c 0,0,1
481 981 m 128,-1,32
 438 938 438 938 438 877 c 128,-1,33
 438 816 438 816 481 774 c 128,-1,34
 524 732 524 732 585 732 c 128,-1,35
 646 732 646 732 689 774 c 128,-1,36
 732 816 732 816 732 877 c 128,-1,37
 732 938 732 938 689 981 c 128,-1,38
 646 1024 646 1024 585 1024 c 128,-1,31
 524 1024 524 1024 481 981 c 128,-1,32
921 981 m 128,-1,40
 878 938 878 938 878 877 c 128,-1,41
 878 816 878 816 921 774 c 128,-1,42
 964 732 964 732 1024 732 c 256,43,44
 1084 732 1084 732 1127 774 c 128,-1,45
 1170 816 1170 816 1170 877 c 128,-1,46
 1170 938 1170 938 1127 981 c 128,-1,47
 1084 1024 1084 1024 1024 1024 c 256,48,39
 964 1024 964 1024 921 981 c 128,-1,40
1359 981 m 128,-1,50
 1316 938 1316 938 1316 877 c 128,-1,51
 1316 816 1316 816 1359 774 c 128,-1,52
 1402 732 1402 732 1463 732 c 128,-1,53
 1524 732 1524 732 1567 774 c 128,-1,54
 1610 816 1610 816 1610 877 c 128,-1,55
 1610 938 1610 938 1567 981 c 128,-1,56
 1524 1024 1524 1024 1463 1024 c 128,-1,49
 1402 1024 1402 1024 1359 981 c 128,-1,50
EndSplineSet
Validated: 33
EndChar

StartChar: uniE053
Encoding: 57427 57427 25
Width: 2048
GlyphClass: 2
Flags: W
LayerCount: 3
Fore
SplineSet
1024 146 m 0,0,1
 958 146 958 146 858 156 c 1,2,3
 633 -45 633 -45 332 -122 c 0,4,5
 274 -138 274 -138 202 -146 c 1,6,-1
 196 -146 l 2,7,8
 180 -146 180 -146 166 -134 c 128,-1,9
 152 -122 152 -122 148 -101 c 128,-1,10
 144 -80 144 -80 155 -65 c 128,-1,11
 166 -50 166 -50 199 -12 c 128,-1,12
 232 26 232 26 289 94 c 128,-1,13
 346 162 346 162 386 306 c 1,14,15
 209 407 209 407 105 555 c 0,16,17
 0 705 0 705 0 866.5 c 128,-1,18
 0 1028 0 1028 80 1162 c 0,19,20
 242 1434 242 1434 626 1552 c 0,21,22
 812 1610 812 1610 1024 1610 c 128,-1,23
 1236 1610 1236 1610 1423 1552 c 0,24,25
 1806 1433 1806 1433 1968 1162 c 0,26,27
 2048 1028 2048 1028 2048 877 c 128,-1,28
 2048 726 2048 726 1968 593 c 0,29,30
 1805 322 1805 322 1422 204 c 0,31,32
 1236 146 1236 146 1024 146 c 0,0,1
686 1416 m 0,33,34
 359 1322 359 1322 216 1103 c 0,35,36
 146 996 146 996 146 873 c 128,-1,37
 146 750 146 750 228 634 c 128,-1,38
 310 518 310 518 458 434 c 2,39,-1
 558 376 l 1,40,-1
 526 266 l 2,41,42
 496 153 496 153 446 70 c 1,43,44
 614 139 614 139 762 266 c 2,45,-1
 810 308 l 1,46,-1
 876 302 l 2,47,48
 966 292 966 292 1024 292 c 0,49,50
 1202 292 1202 292 1362 339 c 0,51,52
 1689 435 1689 435 1832 652 c 0,53,54
 1902 758 1902 758 1902 877 c 128,-1,55
 1902 996 1902 996 1832 1103 c 0,56,57
 1689 1322 1689 1322 1362 1416 c 0,58,59
 1202 1462 1202 1462 1024 1462 c 128,-1,60
 846 1462 846 1462 686 1416 c 0,33,34
481 774 m 128,-1,62
 438 816 438 816 438 877 c 128,-1,63
 438 938 438 938 481 981 c 128,-1,64
 524 1024 524 1024 585 1024 c 128,-1,65
 646 1024 646 1024 689 981 c 128,-1,66
 732 938 732 938 732 877 c 128,-1,67
 732 816 732 816 689 774 c 128,-1,68
 646 732 646 732 585 732 c 128,-1,61
 524 732 524 732 481 774 c 128,-1,62
921 774 m 128,-1,70
 878 816 878 816 878 877 c 128,-1,71
 878 938 878 938 921 981 c 128,-1,72
 964 1024 964 1024 1024 1024 c 256,73,74
 1084 1024 1084 1024 1127 981 c 128,-1,75
 1170 938 1170 938 1170 877 c 128,-1,76
 1170 816 1170 816 1127 774 c 128,-1,77
 1084 732 1084 732 1024 732 c 256,78,69
 964 732 964 732 921 774 c 128,-1,70
1359 774 m 128,-1,80
 1316 816 1316 816 1316 877 c 128,-1,81
 1316 938 1316 938 1359 981 c 128,-1,82
 1402 1024 1402 1024 1463 1024 c 128,-1,83
 1524 1024 1524 1024 1567 981 c 128,-1,84
 1610 938 1610 938 1610 877 c 128,-1,85
 1610 816 1610 816 1567 774 c 128,-1,86
 1524 732 1524 732 1463 732 c 128,-1,79
 1402 732 1402 732 1359 774 c 128,-1,80
EndSplineSet
Validated: 1
EndChar

StartChar: uniE069
Encoding: 57449 57449 26
Width: 2048
GlyphClass: 2
Flags: W
LayerCount: 3
Fore
SplineSet
384 64 m 2,0,1
 384 12 384 12 421 -26 c 128,-1,2
 458 -64 458 -64 512 -64 c 2,3,-1
 1472 -64 l 2,4,5
 1526 -64 1526 -64 1563 -27 c 128,-1,6
 1600 10 1600 10 1600 64 c 2,7,-1
 1600 1408 l 2,8,9
 1600 1460 1600 1460 1563 1498 c 128,-1,10
 1526 1536 1526 1536 1472 1536 c 2,11,-1
 1408 1536 l 1,12,13
 1408 1590 1408 1590 1370 1627 c 128,-1,14
 1332 1664 1332 1664 1280 1664 c 2,15,-1
 1216 1664 l 1,16,17
 1216 1744 1216 1744 1160 1800 c 128,-1,18
 1104 1856 1104 1856 1024 1856 c 2,19,-1
 960 1856 l 2,20,21
 880 1856 880 1856 824 1800 c 128,-1,22
 768 1744 768 1744 768 1664 c 1,23,-1
 704 1664 l 2,24,25
 652 1664 652 1664 614 1627 c 128,-1,26
 576 1590 576 1590 576 1536 c 1,27,-1
 512 1536 l 2,28,29
 458 1536 458 1536 421 1499 c 128,-1,30
 384 1462 384 1462 384 1408 c 2,31,-1
 384 64 l 2,0,1
448 64 m 2,32,-1
 448 1408 l 2,33,34
 448 1434 448 1434 467 1453 c 128,-1,35
 486 1472 486 1472 512 1472 c 2,36,-1
 576 1472 l 1,37,38
 576 1418 576 1418 614 1381 c 128,-1,39
 652 1344 652 1344 704 1344 c 2,40,-1
 1280 1344 l 2,41,42
 1332 1344 1332 1344 1370 1381 c 128,-1,43
 1408 1418 1408 1418 1408 1472 c 1,44,-1
 1472 1472 l 2,45,46
 1498 1472 1498 1472 1517 1453 c 128,-1,47
 1536 1434 1536 1434 1536 1408 c 2,48,-1
 1536 64 l 2,49,50
 1536 38 1536 38 1517 19 c 128,-1,51
 1498 0 1498 0 1472 0 c 2,52,-1
 512 0 l 2,53,54
 486 0 486 0 467 19 c 128,-1,55
 448 38 448 38 448 64 c 2,32,-1
576 256 m 1,56,-1
 576 448 l 1,57,-1
 768 448 l 1,58,-1
 768 256 l 1,59,-1
 576 256 l 1,56,-1
576 576 m 1,60,-1
 576 768 l 1,61,-1
 768 768 l 1,62,-1
 768 576 l 1,63,-1
 576 576 l 1,60,-1
576 896 m 1,64,-1
 576 1088 l 1,65,-1
 768 1088 l 1,66,-1
 768 896 l 1,67,-1
 576 896 l 1,64,-1
640 320 m 1,68,-1
 704 320 l 1,69,-1
 704 384 l 1,70,-1
 640 384 l 1,71,-1
 640 320 l 1,68,-1
640 640 m 1,72,-1
 704 640 l 1,73,-1
 704 704 l 1,74,-1
 640 704 l 1,75,-1
 640 640 l 1,72,-1
640 960 m 1,76,-1
 704 960 l 1,77,-1
 704 1024 l 1,78,-1
 640 1024 l 1,79,-1
 640 960 l 1,76,-1
640 1472 m 2,80,-1
 640 1536 l 2,81,82
 640 1562 640 1562 659 1581 c 128,-1,83
 678 1600 678 1600 704 1600 c 2,84,-1
 832 1600 l 1,85,-1
 832 1664 l 2,86,87
 832 1716 832 1716 870 1754 c 128,-1,88
 908 1792 908 1792 960 1792 c 2,89,-1
 1024 1792 l 2,90,91
 1078 1792 1078 1792 1115 1755 c 128,-1,92
 1152 1718 1152 1718 1152 1664 c 2,93,-1
 1152 1600 l 1,94,-1
 1280 1600 l 2,95,96
 1306 1600 1306 1600 1325 1581 c 128,-1,97
 1344 1562 1344 1562 1344 1536 c 2,98,-1
 1344 1472 l 2,99,100
 1344 1446 1344 1446 1325 1427 c 128,-1,101
 1306 1408 1306 1408 1280 1408 c 2,102,-1
 704 1408 l 2,103,104
 678 1408 678 1408 659 1427 c 128,-1,105
 640 1446 640 1446 640 1472 c 2,80,-1
896 320 m 1,106,-1
 1408 320 l 1,107,-1
 1408 384 l 1,108,-1
 896 384 l 1,109,-1
 896 320 l 1,106,-1
896 640 m 1,110,-1
 1408 640 l 1,111,-1
 1408 704 l 1,112,-1
 896 704 l 1,113,-1
 896 640 l 1,110,-1
896 960 m 1,114,-1
 1408 960 l 1,115,-1
 1408 1024 l 1,116,-1
 896 1024 l 1,117,-1
 896 960 l 1,114,-1
960 1632 m 256,118,119
 960 1618 960 1618 969 1609 c 128,-1,120
 978 1600 978 1600 992 1600 c 128,-1,121
 1006 1600 1006 1600 1015 1609 c 128,-1,122
 1024 1618 1024 1618 1024 1632 c 256,123,124
 1024 1646 1024 1646 1015 1655 c 128,-1,125
 1006 1664 1006 1664 992 1664 c 256,126,127
 978 1664 978 1664 969 1655 c 128,-1,128
 960 1646 960 1646 960 1632 c 256,118,119
EndSplineSet
Validated: 9
EndChar

StartChar: uniE06A
Encoding: 57450 57450 27
Width: 2048
GlyphClass: 2
Flags: W
LayerCount: 3
Fore
SplineSet
384 64 m 2,0,-1
 384 1408 l 2,1,2
 384 1462 384 1462 421 1499 c 128,-1,3
 458 1536 458 1536 512 1536 c 2,4,-1
 576 1536 l 1,5,-1
 576 1472 l 2,6,7
 576 1420 576 1420 613 1382 c 128,-1,8
 650 1344 650 1344 704 1344 c 2,9,-1
 1280 1344 l 2,10,11
 1332 1344 1332 1344 1370 1381 c 128,-1,12
 1408 1418 1408 1418 1408 1472 c 2,13,-1
 1408 1536 l 1,14,-1
 1472 1536 l 2,15,16
 1526 1536 1526 1536 1563 1498 c 128,-1,17
 1600 1460 1600 1460 1600 1408 c 2,18,-1
 1600 64 l 2,19,20
 1600 10 1600 10 1563 -27 c 128,-1,21
 1526 -64 1526 -64 1472 -64 c 2,22,-1
 512 -64 l 2,23,24
 458 -64 458 -64 421 -26 c 128,-1,25
 384 12 384 12 384 64 c 2,0,-1
576 256 m 1,26,-1
 768 256 l 1,27,-1
 768 448 l 1,28,-1
 576 448 l 1,29,-1
 576 256 l 1,26,-1
576 576 m 1,30,-1
 768 576 l 1,31,-1
 768 768 l 1,32,-1
 576 768 l 1,33,-1
 576 576 l 1,30,-1
576 896 m 1,34,-1
 768 896 l 1,35,-1
 768 1088 l 1,36,-1
 576 1088 l 1,37,-1
 576 896 l 1,34,-1
640 320 m 1,38,-1
 704 320 l 1,39,-1
 704 384 l 1,40,-1
 640 384 l 1,41,-1
 640 320 l 1,38,-1
640 640 m 1,42,-1
 704 640 l 1,43,-1
 704 704 l 1,44,-1
 640 704 l 1,45,-1
 640 640 l 1,42,-1
640 960 m 1,46,-1
 704 960 l 1,47,-1
 704 1024 l 1,48,-1
 640 1024 l 1,49,-1
 640 960 l 1,46,-1
640 1472 m 2,50,-1
 640 1536 l 2,51,52
 640 1562 640 1562 659 1581 c 128,-1,53
 678 1600 678 1600 704 1600 c 2,54,-1
 832 1600 l 1,55,-1
 832 1664 l 2,56,57
 832 1716 832 1716 870 1754 c 128,-1,58
 908 1792 908 1792 960 1792 c 2,59,-1
 1024 1792 l 2,60,61
 1078 1792 1078 1792 1115 1755 c 128,-1,62
 1152 1718 1152 1718 1152 1664 c 2,63,-1
 1152 1600 l 1,64,-1
 1280 1600 l 2,65,66
 1306 1600 1306 1600 1325 1581 c 128,-1,67
 1344 1562 1344 1562 1344 1536 c 2,68,-1
 1344 1472 l 2,69,70
 1344 1446 1344 1446 1325 1427 c 128,-1,71
 1306 1408 1306 1408 1280 1408 c 2,72,-1
 704 1408 l 2,73,74
 678 1408 678 1408 659 1427 c 128,-1,75
 640 1446 640 1446 640 1472 c 2,50,-1
896 320 m 1,76,-1
 1408 320 l 1,77,-1
 1408 384 l 1,78,-1
 896 384 l 1,79,-1
 896 320 l 1,76,-1
896 640 m 1,80,-1
 1408 640 l 1,81,-1
 1408 704 l 1,82,-1
 896 704 l 1,83,-1
 896 640 l 1,80,-1
896 960 m 1,84,-1
 1408 960 l 1,85,-1
 1408 1024 l 1,86,-1
 896 1024 l 1,87,-1
 896 960 l 1,84,-1
960 1632 m 256,88,89
 960 1618 960 1618 969 1609 c 128,-1,90
 978 1600 978 1600 992 1600 c 128,-1,91
 1006 1600 1006 1600 1015 1609 c 128,-1,92
 1024 1618 1024 1618 1024 1632 c 256,93,94
 1024 1646 1024 1646 1015 1655 c 128,-1,95
 1006 1664 1006 1664 992 1664 c 256,96,97
 978 1664 978 1664 969 1655 c 128,-1,98
 960 1646 960 1646 960 1632 c 256,88,89
EndSplineSet
Validated: 9
EndChar

StartChar: uniE06B
Encoding: 57451 57451 28
Width: 2048
GlyphClass: 2
Flags: W
LayerCount: 3
Fore
SplineSet
384 64 m 2,0,1
 384 12 384 12 421 -26 c 128,-1,2
 458 -64 458 -64 512 -64 c 2,3,-1
 1472 -64 l 2,4,5
 1526 -64 1526 -64 1563 -27 c 128,-1,6
 1600 10 1600 10 1600 64 c 2,7,-1
 1600 1408 l 2,8,9
 1600 1460 1600 1460 1563 1498 c 128,-1,10
 1526 1536 1526 1536 1472 1536 c 2,11,-1
 1408 1536 l 1,12,13
 1408 1590 1408 1590 1370 1627 c 128,-1,14
 1332 1664 1332 1664 1280 1664 c 2,15,-1
 1216 1664 l 1,16,17
 1216 1744 1216 1744 1160 1800 c 128,-1,18
 1104 1856 1104 1856 1024 1856 c 2,19,-1
 960 1856 l 2,20,21
 880 1856 880 1856 824 1800 c 128,-1,22
 768 1744 768 1744 768 1664 c 1,23,-1
 704 1664 l 2,24,25
 652 1664 652 1664 614 1627 c 128,-1,26
 576 1590 576 1590 576 1536 c 1,27,-1
 512 1536 l 2,28,29
 458 1536 458 1536 421 1499 c 128,-1,30
 384 1462 384 1462 384 1408 c 2,31,-1
 384 64 l 2,0,1
448 64 m 2,32,-1
 448 1408 l 2,33,34
 448 1434 448 1434 467 1453 c 128,-1,35
 486 1472 486 1472 512 1472 c 2,36,-1
 576 1472 l 1,37,38
 576 1418 576 1418 614 1381 c 128,-1,39
 652 1344 652 1344 704 1344 c 2,40,-1
 1280 1344 l 2,41,42
 1332 1344 1332 1344 1370 1381 c 128,-1,43
 1408 1418 1408 1418 1408 1472 c 1,44,-1
 1472 1472 l 2,45,46
 1498 1472 1498 1472 1517 1453 c 128,-1,47
 1536 1434 1536 1434 1536 1408 c 2,48,-1
 1536 64 l 2,49,50
 1536 38 1536 38 1517 19 c 128,-1,51
 1498 0 1498 0 1472 0 c 2,52,-1
 512 0 l 2,53,54
 486 0 486 0 467 19 c 128,-1,55
 448 38 448 38 448 64 c 2,32,-1
576 256 m 1,56,-1
 1408 256 l 1,57,-1
 1408 320 l 1,58,-1
 576 320 l 1,59,-1
 576 256 l 1,56,-1
576 448 m 1,60,-1
 1408 448 l 1,61,-1
 1408 512 l 1,62,-1
 576 512 l 1,63,-1
 576 448 l 1,60,-1
576 640 m 1,64,-1
 1408 640 l 1,65,-1
 1408 704 l 1,66,-1
 576 704 l 1,67,-1
 576 640 l 1,64,-1
576 832 m 1,68,-1
 1408 832 l 1,69,-1
 1408 896 l 1,70,-1
 576 896 l 1,71,-1
 576 832 l 1,68,-1
576 1024 m 1,72,-1
 1408 1024 l 1,73,-1
 1408 1088 l 1,74,-1
 576 1088 l 1,75,-1
 576 1024 l 1,72,-1
640 1472 m 2,76,-1
 640 1536 l 2,77,78
 640 1562 640 1562 659 1581 c 128,-1,79
 678 1600 678 1600 704 1600 c 2,80,-1
 832 1600 l 1,81,-1
 832 1664 l 2,82,83
 832 1716 832 1716 870 1754 c 128,-1,84
 908 1792 908 1792 960 1792 c 2,85,-1
 1024 1792 l 2,86,87
 1078 1792 1078 1792 1115 1755 c 128,-1,88
 1152 1718 1152 1718 1152 1664 c 2,89,-1
 1152 1600 l 1,90,-1
 1280 1600 l 2,91,92
 1306 1600 1306 1600 1325 1581 c 128,-1,93
 1344 1562 1344 1562 1344 1536 c 2,94,-1
 1344 1472 l 2,95,96
 1344 1446 1344 1446 1325 1427 c 128,-1,97
 1306 1408 1306 1408 1280 1408 c 2,98,-1
 704 1408 l 2,99,100
 678 1408 678 1408 659 1427 c 128,-1,101
 640 1446 640 1446 640 1472 c 2,76,-1
960 1632 m 256,102,103
 960 1618 960 1618 969 1609 c 128,-1,104
 978 1600 978 1600 992 1600 c 128,-1,105
 1006 1600 1006 1600 1015 1609 c 128,-1,106
 1024 1618 1024 1618 1024 1632 c 256,107,108
 1024 1646 1024 1646 1015 1655 c 128,-1,109
 1006 1664 1006 1664 992 1664 c 256,110,111
 978 1664 978 1664 969 1655 c 128,-1,112
 960 1646 960 1646 960 1632 c 256,102,103
EndSplineSet
Validated: 9
EndChar

StartChar: uniE06C
Encoding: 57452 57452 29
Width: 2048
GlyphClass: 2
Flags: W
LayerCount: 3
Fore
SplineSet
384 64 m 2,0,-1
 384 1408 l 2,1,2
 384 1462 384 1462 421 1499 c 128,-1,3
 458 1536 458 1536 512 1536 c 2,4,-1
 576 1536 l 1,5,-1
 576 1472 l 2,6,7
 576 1420 576 1420 613 1382 c 128,-1,8
 650 1344 650 1344 704 1344 c 2,9,-1
 1280 1344 l 2,10,11
 1332 1344 1332 1344 1370 1381 c 128,-1,12
 1408 1418 1408 1418 1408 1472 c 2,13,-1
 1408 1536 l 1,14,-1
 1472 1536 l 2,15,16
 1526 1536 1526 1536 1563 1498 c 128,-1,17
 1600 1460 1600 1460 1600 1408 c 2,18,-1
 1600 64 l 2,19,20
 1600 10 1600 10 1563 -27 c 128,-1,21
 1526 -64 1526 -64 1472 -64 c 2,22,-1
 512 -64 l 2,23,24
 458 -64 458 -64 421 -26 c 128,-1,25
 384 12 384 12 384 64 c 2,0,-1
576 256 m 1,26,-1
 1408 256 l 1,27,-1
 1408 320 l 1,28,-1
 576 320 l 1,29,-1
 576 256 l 1,26,-1
576 448 m 1,30,-1
 1408 448 l 1,31,-1
 1408 512 l 1,32,-1
 576 512 l 1,33,-1
 576 448 l 1,30,-1
576 640 m 1,34,-1
 1408 640 l 1,35,-1
 1408 704 l 1,36,-1
 576 704 l 1,37,-1
 576 640 l 1,34,-1
576 832 m 1,38,-1
 1408 832 l 1,39,-1
 1408 896 l 1,40,-1
 576 896 l 1,41,-1
 576 832 l 1,38,-1
576 1024 m 1,42,-1
 1408 1024 l 1,43,-1
 1408 1088 l 1,44,-1
 576 1088 l 1,45,-1
 576 1024 l 1,42,-1
640 1472 m 2,46,-1
 640 1536 l 2,47,48
 640 1562 640 1562 659 1581 c 128,-1,49
 678 1600 678 1600 704 1600 c 2,50,-1
 832 1600 l 1,51,-1
 832 1664 l 2,52,53
 832 1716 832 1716 870 1754 c 128,-1,54
 908 1792 908 1792 960 1792 c 2,55,-1
 1024 1792 l 2,56,57
 1078 1792 1078 1792 1115 1755 c 128,-1,58
 1152 1718 1152 1718 1152 1664 c 2,59,-1
 1152 1600 l 1,60,-1
 1280 1600 l 2,61,62
 1306 1600 1306 1600 1325 1581 c 128,-1,63
 1344 1562 1344 1562 1344 1536 c 2,64,-1
 1344 1472 l 2,65,66
 1344 1446 1344 1446 1325 1427 c 128,-1,67
 1306 1408 1306 1408 1280 1408 c 2,68,-1
 704 1408 l 2,69,70
 678 1408 678 1408 659 1427 c 128,-1,71
 640 1446 640 1446 640 1472 c 2,46,-1
960 1632 m 256,72,73
 960 1618 960 1618 969 1609 c 128,-1,74
 978 1600 978 1600 992 1600 c 128,-1,75
 1006 1600 1006 1600 1015 1609 c 128,-1,76
 1024 1618 1024 1618 1024 1632 c 256,77,78
 1024 1646 1024 1646 1015 1655 c 128,-1,79
 1006 1664 1006 1664 992 1664 c 256,80,81
 978 1664 978 1664 969 1655 c 128,-1,82
 960 1646 960 1646 960 1632 c 256,72,73
EndSplineSet
Validated: 1
EndChar

StartChar: uniE06D
Encoding: 57453 57453 30
Width: 2048
GlyphClass: 2
Flags: W
LayerCount: 3
Fore
SplineSet
384 64 m 2,0,-1
 384 1408 l 2,1,2
 384 1462 384 1462 421 1499 c 128,-1,3
 458 1536 458 1536 512 1536 c 2,4,-1
 576 1536 l 1,5,-1
 576 1472 l 2,6,7
 576 1420 576 1420 613 1382 c 128,-1,8
 650 1344 650 1344 704 1344 c 2,9,-1
 1280 1344 l 2,10,11
 1332 1344 1332 1344 1370 1381 c 128,-1,12
 1408 1418 1408 1418 1408 1472 c 2,13,-1
 1408 1536 l 1,14,-1
 1472 1536 l 2,15,16
 1526 1536 1526 1536 1563 1498 c 128,-1,17
 1600 1460 1600 1460 1600 1408 c 2,18,-1
 1600 64 l 2,19,20
 1600 10 1600 10 1563 -27 c 128,-1,21
 1526 -64 1526 -64 1472 -64 c 2,22,-1
 512 -64 l 2,23,24
 458 -64 458 -64 421 -26 c 128,-1,25
 384 12 384 12 384 64 c 2,0,-1
640 1472 m 2,26,-1
 640 1536 l 2,27,28
 640 1562 640 1562 659 1581 c 128,-1,29
 678 1600 678 1600 704 1600 c 2,30,-1
 832 1600 l 1,31,-1
 832 1664 l 2,32,33
 832 1716 832 1716 870 1754 c 128,-1,34
 908 1792 908 1792 960 1792 c 2,35,-1
 1024 1792 l 2,36,37
 1078 1792 1078 1792 1115 1755 c 128,-1,38
 1152 1718 1152 1718 1152 1664 c 2,39,-1
 1152 1600 l 1,40,-1
 1280 1600 l 2,41,42
 1306 1600 1306 1600 1325 1581 c 128,-1,43
 1344 1562 1344 1562 1344 1536 c 2,44,-1
 1344 1472 l 2,45,46
 1344 1446 1344 1446 1325 1427 c 128,-1,47
 1306 1408 1306 1408 1280 1408 c 2,48,-1
 704 1408 l 2,49,50
 678 1408 678 1408 659 1427 c 128,-1,51
 640 1446 640 1446 640 1472 c 2,26,-1
960 1632 m 256,52,53
 960 1618 960 1618 969 1609 c 128,-1,54
 978 1600 978 1600 992 1600 c 128,-1,55
 1006 1600 1006 1600 1015 1609 c 128,-1,56
 1024 1618 1024 1618 1024 1632 c 256,57,58
 1024 1646 1024 1646 1015 1655 c 128,-1,59
 1006 1664 1006 1664 992 1664 c 256,60,61
 978 1664 978 1664 969 1655 c 128,-1,62
 960 1646 960 1646 960 1632 c 256,52,53
EndSplineSet
Validated: 1
EndChar

StartChar: uniE075
Encoding: 57461 57461 31
Width: 1902
GlyphClass: 2
Flags: W
LayerCount: 3
Fore
SplineSet
0 0 m 2,0,-1
 0 1462 l 2,1,2
 0 1522 0 1522 43 1566 c 128,-1,3
 86 1610 86 1610 146 1610 c 2,4,-1
 292 1610 l 1,5,-1
 292 1718 l 2,6,7
 292 1794 292 1794 346 1848 c 128,-1,8
 400 1902 400 1902 476 1902 c 2,9,-1
 548 1902 l 2,10,11
 624 1902 624 1902 678 1848 c 128,-1,12
 732 1794 732 1794 732 1718 c 2,13,-1
 732 1610 l 1,14,-1
 1170 1610 l 1,15,-1
 1170 1718 l 2,16,17
 1170 1794 1170 1794 1224 1848 c 128,-1,18
 1278 1902 1278 1902 1354 1902 c 2,19,-1
 1426 1902 l 2,20,21
 1502 1902 1502 1902 1556 1848 c 128,-1,22
 1610 1794 1610 1794 1610 1718 c 2,23,-1
 1610 1610 l 1,24,-1
 1756 1610 l 2,25,26
 1816 1610 1816 1610 1859 1566 c 128,-1,27
 1902 1522 1902 1522 1902 1462 c 2,28,-1
 1902 0 l 2,29,30
 1902 -60 1902 -60 1859 -103 c 128,-1,31
 1816 -146 1816 -146 1756 -146 c 2,32,-1
 146 -146 l 2,33,34
 86 -146 86 -146 43 -103 c 128,-1,35
 0 -60 0 -60 0 0 c 2,0,-1
146 0 m 1,36,-1
 1756 0 l 1,37,-1
 1756 1170 l 1,38,-1
 146 1170 l 1,39,-1
 146 0 l 1,36,-1
438 1390 m 2,40,41
 438 1374 438 1374 449 1364 c 128,-1,42
 460 1354 460 1354 476 1354 c 2,43,-1
 548 1354 l 2,44,45
 564 1354 564 1354 575 1364 c 128,-1,46
 586 1374 586 1374 586 1390 c 2,47,-1
 586 1718 l 2,48,49
 586 1734 586 1734 575 1745 c 128,-1,50
 564 1756 564 1756 548 1756 c 2,51,-1
 476 1756 l 2,52,53
 460 1756 460 1756 449 1745 c 128,-1,54
 438 1734 438 1734 438 1718 c 2,55,-1
 438 1390 l 2,40,41
1316 1390 m 2,56,57
 1316 1374 1316 1374 1327 1364 c 128,-1,58
 1338 1354 1338 1354 1354 1354 c 2,59,-1
 1426 1354 l 2,60,61
 1442 1354 1442 1354 1452 1364 c 128,-1,62
 1462 1374 1462 1374 1462 1390 c 2,63,-1
 1462 1718 l 2,64,65
 1462 1734 1462 1734 1452 1745 c 128,-1,66
 1442 1756 1442 1756 1426 1756 c 2,67,-1
 1354 1756 l 2,68,69
 1338 1756 1338 1756 1327 1745 c 128,-1,70
 1316 1734 1316 1734 1316 1718 c 2,71,-1
 1316 1390 l 2,56,57
EndSplineSet
Validated: 1
EndChar

StartChar: uniE076
Encoding: 57462 57462 32
Width: 1902
GlyphClass: 2
Flags: W
LayerCount: 3
Fore
SplineSet
0 0 m 2,0,-1
 0 1462 l 2,1,2
 0 1522 0 1522 43 1566 c 128,-1,3
 86 1610 86 1610 146 1610 c 2,4,-1
 292 1610 l 1,5,-1
 292 1718 l 2,6,7
 292 1794 292 1794 346 1848 c 128,-1,8
 400 1902 400 1902 476 1902 c 2,9,-1
 548 1902 l 2,10,11
 624 1902 624 1902 678 1848 c 128,-1,12
 732 1794 732 1794 732 1718 c 2,13,-1
 732 1610 l 1,14,-1
 1170 1610 l 1,15,-1
 1170 1718 l 2,16,17
 1170 1794 1170 1794 1224 1848 c 128,-1,18
 1278 1902 1278 1902 1354 1902 c 2,19,-1
 1426 1902 l 2,20,21
 1502 1902 1502 1902 1556 1848 c 128,-1,22
 1610 1794 1610 1794 1610 1718 c 2,23,-1
 1610 1610 l 1,24,-1
 1756 1610 l 2,25,26
 1816 1610 1816 1610 1859 1566 c 128,-1,27
 1902 1522 1902 1522 1902 1462 c 2,28,-1
 1902 0 l 2,29,30
 1902 -60 1902 -60 1859 -103 c 128,-1,31
 1816 -146 1816 -146 1756 -146 c 2,32,-1
 146 -146 l 2,33,34
 86 -146 86 -146 43 -103 c 128,-1,35
 0 -60 0 -60 0 0 c 2,0,-1
146 0 m 1,36,-1
 476 0 l 1,37,-1
 476 330 l 1,38,-1
 146 330 l 1,39,-1
 146 0 l 1,36,-1
146 402 m 1,40,-1
 476 402 l 1,41,-1
 476 768 l 1,42,-1
 146 768 l 1,43,-1
 146 402 l 1,40,-1
146 842 m 1,44,-1
 476 842 l 1,45,-1
 476 1170 l 1,46,-1
 146 1170 l 1,47,-1
 146 842 l 1,44,-1
438 1390 m 2,48,49
 438 1376 438 1376 449 1365 c 128,-1,50
 460 1354 460 1354 476 1354 c 2,51,-1
 548 1354 l 2,52,53
 564 1354 564 1354 575 1365 c 128,-1,54
 586 1376 586 1376 586 1390 c 2,55,-1
 586 1718 l 2,56,57
 586 1734 586 1734 575 1745 c 128,-1,58
 564 1756 564 1756 548 1756 c 2,59,-1
 476 1756 l 2,60,61
 460 1756 460 1756 449 1745 c 128,-1,62
 438 1734 438 1734 438 1718 c 2,63,-1
 438 1390 l 2,48,49
548 0 m 1,64,-1
 914 0 l 1,65,-1
 914 330 l 1,66,-1
 548 330 l 1,67,-1
 548 0 l 1,64,-1
548 402 m 1,68,-1
 914 402 l 1,69,-1
 914 768 l 1,70,-1
 548 768 l 1,71,-1
 548 402 l 1,68,-1
548 842 m 1,72,-1
 914 842 l 1,73,-1
 914 1170 l 1,74,-1
 548 1170 l 1,75,-1
 548 842 l 1,72,-1
988 0 m 1,76,-1
 1354 0 l 1,77,-1
 1354 330 l 1,78,-1
 988 330 l 1,79,-1
 988 0 l 1,76,-1
988 402 m 1,80,-1
 1354 402 l 1,81,-1
 1354 768 l 1,82,-1
 988 768 l 1,83,-1
 988 402 l 1,80,-1
988 842 m 1,84,-1
 1354 842 l 1,85,-1
 1354 1170 l 1,86,-1
 988 1170 l 1,87,-1
 988 842 l 1,84,-1
1316 1390 m 2,88,89
 1316 1376 1316 1376 1327 1365 c 128,-1,90
 1338 1354 1338 1354 1354 1354 c 2,91,-1
 1426 1354 l 2,92,93
 1440 1354 1440 1354 1451 1365 c 128,-1,94
 1462 1376 1462 1376 1462 1390 c 2,95,-1
 1462 1718 l 2,96,97
 1462 1734 1462 1734 1451 1745 c 128,-1,98
 1440 1756 1440 1756 1426 1756 c 2,99,-1
 1354 1756 l 2,100,101
 1338 1756 1338 1756 1327 1745 c 128,-1,102
 1316 1734 1316 1734 1316 1718 c 2,103,-1
 1316 1390 l 2,88,89
1426 0 m 1,104,-1
 1756 0 l 1,105,-1
 1756 330 l 1,106,-1
 1426 330 l 1,107,-1
 1426 0 l 1,104,-1
1426 402 m 1,108,-1
 1756 402 l 1,109,-1
 1756 768 l 1,110,-1
 1426 768 l 1,111,-1
 1426 402 l 1,108,-1
1426 842 m 1,112,-1
 1756 842 l 1,113,-1
 1756 1170 l 1,114,-1
 1426 1170 l 1,115,-1
 1426 842 l 1,112,-1
EndSplineSet
Validated: 1
EndChar

StartChar: uniE077
Encoding: 57463 57463 33
Width: 2048
GlyphClass: 2
Flags: W
LayerCount: 3
Fore
SplineSet
192 64 m 2,0,-1
 192 1472 l 2,1,2
 192 1526 192 1526 230 1563 c 128,-1,3
 268 1600 268 1600 320 1600 c 2,4,-1
 448 1600 l 1,5,-1
 448 1536 l 2,6,7
 448 1456 448 1456 504 1400 c 128,-1,8
 560 1344 560 1344 640 1344 c 256,9,10
 720 1344 720 1344 776 1400 c 128,-1,11
 832 1456 832 1456 832 1536 c 2,12,-1
 832 1600 l 1,13,-1
 1216 1600 l 1,14,-1
 1216 1536 l 2,15,16
 1216 1456 1216 1456 1272 1400 c 128,-1,17
 1328 1344 1328 1344 1408 1344 c 256,18,19
 1488 1344 1488 1344 1544 1400 c 128,-1,20
 1600 1456 1600 1456 1600 1536 c 2,21,-1
 1600 1600 l 1,22,-1
 1728 1600 l 2,23,24
 1780 1600 1780 1600 1818 1563 c 128,-1,25
 1856 1526 1856 1526 1856 1472 c 2,26,-1
 1856 64 l 2,27,28
 1856 12 1856 12 1818 -26 c 128,-1,29
 1780 -64 1780 -64 1728 -64 c 2,30,-1
 320 -64 l 2,31,32
 268 -64 268 -64 230 -26 c 128,-1,33
 192 12 192 12 192 64 c 2,0,-1
320 64 m 1,34,-1
 1728 64 l 1,35,-1
 1728 1152 l 1,36,-1
 320 1152 l 1,37,-1
 320 64 l 1,34,-1
448 192 m 1,38,-1
 448 384 l 1,39,-1
 640 384 l 1,40,-1
 640 192 l 1,41,-1
 448 192 l 1,38,-1
448 512 m 1,42,-1
 448 704 l 1,43,-1
 640 704 l 1,44,-1
 640 512 l 1,45,-1
 448 512 l 1,42,-1
448 832 m 1,46,-1
 448 1024 l 1,47,-1
 640 1024 l 1,48,-1
 640 832 l 1,49,-1
 448 832 l 1,46,-1
512 1534 m 2,50,-1
 512 1666 l 2,51,52
 512 1718 512 1718 549 1755 c 128,-1,53
 586 1792 586 1792 638 1792 c 256,54,55
 690 1792 690 1792 727 1755 c 128,-1,56
 764 1718 764 1718 764 1666 c 2,57,-1
 764 1534 l 2,58,59
 764 1482 764 1482 727 1445 c 128,-1,60
 690 1408 690 1408 638 1408 c 256,61,62
 586 1408 586 1408 549 1445 c 128,-1,63
 512 1482 512 1482 512 1534 c 2,50,-1
768 192 m 1,64,-1
 768 384 l 1,65,-1
 960 384 l 1,66,-1
 960 192 l 1,67,-1
 768 192 l 1,64,-1
768 512 m 1,68,-1
 768 704 l 1,69,-1
 960 704 l 1,70,-1
 960 512 l 1,71,-1
 768 512 l 1,68,-1
768 832 m 1,72,-1
 768 1024 l 1,73,-1
 960 1024 l 1,74,-1
 960 832 l 1,75,-1
 768 832 l 1,72,-1
1088 192 m 1,76,-1
 1088 384 l 1,77,-1
 1280 384 l 1,78,-1
 1280 192 l 1,79,-1
 1088 192 l 1,76,-1
1088 512 m 1,80,-1
 1088 704 l 1,81,-1
 1280 704 l 1,82,-1
 1280 512 l 1,83,-1
 1088 512 l 1,80,-1
1088 832 m 1,84,-1
 1088 1024 l 1,85,-1
 1280 1024 l 1,86,-1
 1280 832 l 1,87,-1
 1088 832 l 1,84,-1
1280 1534 m 2,89,-1
 1280 1666 l 2,90,91
 1280 1718 1280 1718 1317 1755 c 128,-1,92
 1354 1792 1354 1792 1406 1792 c 256,93,94
 1458 1792 1458 1792 1495 1755 c 128,-1,95
 1532 1718 1532 1718 1532 1666 c 2,96,-1
 1532 1534 l 2,97,98
 1532 1482 1532 1482 1495 1445 c 128,-1,99
 1458 1408 1458 1408 1406 1408 c 256,100,101
 1354 1408 1354 1408 1317 1445 c 128,-1,88
 1280 1482 1280 1482 1280 1534 c 2,89,-1
1408 192 m 1,102,-1
 1408 384 l 1,103,-1
 1600 384 l 1,104,-1
 1600 192 l 1,105,-1
 1408 192 l 1,102,-1
1408 512 m 1,106,-1
 1408 704 l 1,107,-1
 1600 704 l 1,108,-1
 1600 512 l 1,109,-1
 1408 512 l 1,106,-1
1408 832 m 1,110,-1
 1408 1024 l 1,111,-1
 1600 1024 l 1,112,-1
 1600 832 l 1,113,-1
 1408 832 l 1,110,-1
EndSplineSet
Validated: 1
EndChar

StartChar: uniE078
Encoding: 57464 57464 34
Width: 2048
GlyphClass: 2
Flags: W
LayerCount: 3
Fore
SplineSet
1650 1425 m 1,0,1
 1650 1425 1650 1425 1651 1488 c 0,2,3
 1653 1584 1653 1584 1649 1612 c 128,-1,4
 1645 1640 1645 1640 1622.5 1657.5 c 128,-1,5
 1600 1675 1600 1675 1581 1680 c 128,-1,6
 1562 1685 1562 1685 1543 1686 c 128,-1,7
 1524 1687 1524 1687 1497 1685 c 128,-1,8
 1470 1683 1470 1683 1457 1683 c 1,9,-1
 1457 1783 l 1,10,11
 1473 1783 1473 1783 1506 1784 c 0,12,13
 1569 1786 1569 1786 1618.5 1781.5 c 128,-1,14
 1668 1777 1668 1777 1708.5 1736 c 128,-1,15
 1749 1695 1749 1695 1750 1640 c 0,16,17
 1751 1538 1751 1538 1751 1416.5 c 128,-1,18
 1751 1295 1751 1295 1751.5 1219 c 128,-1,19
 1752 1143 1752 1143 1751 1073 c 2,20,-1
 1751 951 l 1,21,-1
 1653 952 l 1,22,23
 1652 1225 1652 1225 1652 1316 c 1,24,-1
 106 1316 l 1,25,26
 101 1249 101 1249 101 1132 c 2,27,28
 101 1132 101 1132 101 505 c 0,29,30
 101 435 101 435 119 417.5 c 128,-1,31
 137 400 137 400 205.5 399.5 c 128,-1,32
 274 399 274 399 914 399 c 2,33,-1
 1010 399 l 1,34,-1
 1011 300 l 1,35,-1
 200 300 l 2,36,37
 90 300 90 300 45 345.5 c 128,-1,38
 0 391 0 391 0 502 c 2,39,40
 0 502 0 502 0 1577 c 0,41,42
 0 1694 0 1694 46 1739.5 c 128,-1,43
 92 1785 92 1785 210 1785 c 2,44,-1
 296 1785 l 1,45,-1
 296 1683 l 1,46,47
 283 1683 283 1683 256 1684 c 0,48,49
 197 1688 197 1688 173.5 1681 c 128,-1,50
 150 1674 150 1674 128.5 1655.5 c 128,-1,51
 107 1637 107 1637 104 1614.5 c 128,-1,52
 101 1592 101 1592 100.5 1571.5 c 128,-1,53
 100 1551 100 1551 99.5 1544 c 128,-1,54
 99 1537 99 1537 101 1425 c 1,55,-1
 1650 1425 l 1,0,1
1232 1781 m 1,56,-1
 1232 1688 l 1,57,-1
 520 1688 l 1,58,-1
 520 1781 l 1,59,-1
 1232 1781 l 1,56,-1
515 1186 m 1,60,-1
 515 977 l 1,61,-1
 302 977 l 1,62,-1
 302 1186 l 1,63,-1
 515 1186 l 1,60,-1
1241 1186 m 1,64,-1
 1449 1186 l 1,65,-1
 1449 977 l 1,66,-1
 1241 977 l 1,67,-1
 1241 1186 l 1,64,-1
511 542 m 1,68,-1
 303 542 l 1,69,-1
 303 752 l 1,70,-1
 511 752 l 1,71,-1
 511 542 l 1,68,-1
773 1188 m 1,72,-1
 977 1188 l 1,73,-1
 977 977 l 1,74,-1
 773 977 l 1,75,-1
 773 1188 l 1,72,-1
774 754 m 1,76,-1
 979 754 l 1,77,-1
 979 543 l 1,78,-1
 774 543 l 1,79,-1
 774 754 l 1,76,-1
458 1758.5 m 128,-1,81
 457 1736 457 1736 457 1726.5 c 128,-1,82
 457 1717 457 1717 458 1698 c 0,83,84
 460 1659 460 1659 455.5 1642 c 128,-1,85
 451 1625 451 1625 435 1610.5 c 128,-1,86
 419 1596 419 1596 406.5 1596.5 c 128,-1,87
 394 1597 394 1597 378 1612 c 128,-1,88
 362 1627 362 1627 360 1640 c 0,89,90
 356 1688 356 1688 356 1735.5 c 128,-1,91
 356 1783 356 1783 360 1831 c 0,92,93
 361 1843 361 1843 378.5 1857.5 c 128,-1,94
 396 1872 396 1872 408.5 1871.5 c 128,-1,95
 421 1871 421 1871 436.5 1857 c 128,-1,96
 452 1843 452 1843 455 1828.5 c 128,-1,97
 458 1814 458 1814 458.5 1797.5 c 128,-1,80
 459 1781 459 1781 458 1758.5 c 128,-1,81
1394 1734 m 128,-1,99
 1394 1725 1394 1725 1396 1706 c 0,100,101
 1400 1643 1400 1643 1379 1622 c 128,-1,102
 1358 1601 1358 1601 1346.5 1597.5 c 128,-1,103
 1335 1594 1335 1594 1316.5 1611 c 128,-1,104
 1298 1628 1298 1628 1297 1640 c 0,105,106
 1293 1686 1293 1686 1293 1733.5 c 128,-1,107
 1293 1781 1293 1781 1298 1831 c 0,108,109
 1299 1843 1299 1843 1316 1857.5 c 128,-1,110
 1333 1872 1333 1872 1345.5 1872 c 128,-1,111
 1358 1872 1358 1872 1373.5 1857.5 c 128,-1,112
 1389 1843 1389 1843 1392 1829.5 c 128,-1,113
 1395 1816 1395 1816 1395.5 1800.5 c 128,-1,114
 1396 1785 1396 1785 1395 1764 c 128,-1,98
 1394 1743 1394 1743 1394 1734 c 128,-1,99
1567 894 m 0,115,116
 1665 894 1665 894 1754 856 c 0,117,118
 1931 780 1931 780 2010 600 c 0,119,120
 2048 510 2048 510 2048 411 c 128,-1,121
 2048 312 2048 312 2011 222.5 c 128,-1,122
 1974 133 1974 133 1909.5 68.5 c 128,-1,123
 1845 4 1845 4 1755.5 -34 c 128,-1,124
 1666 -72 1666 -72 1566 -72 c 2,125,126
 1566 -72 1566 -72 1565 -72 c 0,127,128
 1465 -72 1465 -72 1376 -34 c 0,129,130
 1194 42 1194 42 1120 221 c 0,131,132
 1082 310 1082 310 1082 410 c 128,-1,133
 1082 510 1082 510 1120 600 c 0,134,135
 1196 780 1196 780 1378 857 c 0,136,137
 1467 894 1467 894 1565 894 c 2,138,139
 1565 894 1565 894 1567 894 c 0,115,116
1825 325 m 1,140,-1
 1880 386 l 1,141,-1
 1822 444 l 1,142,-1
 1698 447 l 1,143,-1
 1600 446 l 1,144,-1
 1597 666 l 1,145,-1
 1543 731 l 1,146,-1
 1477 667 l 1,147,-1
 1472 322 l 1,148,-1
 1682 322 l 1,149,-1
 1825 325 l 1,140,-1
EndSplineSet
Validated: 33
EndChar

StartChar: uniE079
Encoding: 57465 57465 35
Width: 1756
GlyphClass: 2
Flags: W
LayerCount: 3
Fore
SplineSet
0 878 m 256,0,1
 0 1060 0 1060 68 1220 c 0,2,3
 212 1548 212 1548 536 1686 c 0,4,5
 696 1756 696 1756 878 1756 c 256,6,7
 1060 1756 1060 1756 1220 1687 c 0,8,9
 1548 1546 1548 1546 1686 1220 c 0,10,11
 1756 1060 1756 1060 1756 878 c 256,12,13
 1756 696 1756 696 1687 536 c 0,14,15
 1546 208 1546 208 1220 70 c 0,16,17
 1060 0 1060 0 878 0 c 256,18,19
 696 0 696 0 536 69 c 0,20,21
 211 209 211 209 68 536 c 0,22,23
 0 696 0 696 0 878 c 256,0,1
256 878 m 256,24,25
 256 750 256 750 305 636 c 0,26,27
 404 406 404 406 636 304 c 0,28,29
 750 256 750 256 878 256 c 0,30,31
 1133 256 1133 256 1317 438 c 0,32,33
 1402 522 1402 522 1450 636 c 0,34,35
 1500 750 1500 750 1500 878 c 0,36,37
 1500 1134 1500 1134 1317 1317 c 128,-1,38
 1134 1500 1134 1500 878 1500 c 0,39,40
 750 1500 750 1500 636 1451 c 0,41,42
 408 1353 408 1353 304 1120 c 0,43,44
 256 1006 256 1006 256 878 c 256,24,25
586 768 m 2,45,-1
 586 842 l 2,46,47
 586 856 586 856 596 867 c 128,-1,48
 606 878 606 878 622 878 c 2,49,-1
 878 878 l 1,50,-1
 878 1280 l 2,51,52
 878 1296 878 1296 888 1306 c 128,-1,53
 898 1316 898 1316 914 1316 c 2,54,-1
 988 1316 l 2,55,56
 1002 1316 1002 1316 1013 1306 c 128,-1,57
 1024 1296 1024 1296 1024 1280 c 2,58,-1
 1024 768 l 2,59,60
 1024 752 1024 752 1013 742 c 128,-1,61
 1002 732 1002 732 988 732 c 2,62,-1
 622 732 l 2,63,64
 606 732 606 732 596 742 c 128,-1,65
 586 752 586 752 586 768 c 2,45,-1
EndSplineSet
Validated: 1
EndChar

StartChar: uniE07A
Encoding: 57466 57466 36
Width: 2048
GlyphClass: 2
Flags: W
LayerCount: 3
Fore
SplineSet
0 896 m 256,0,1
 0 684 0 684 80 497 c 128,-1,2
 160 310 160 310 299 171 c 128,-1,3
 438 32 438 32 625 -48 c 128,-1,4
 812 -128 812 -128 1024 -128 c 256,5,6
 1236 -128 1236 -128 1423 -48 c 128,-1,7
 1610 32 1610 32 1749 171 c 128,-1,8
 1888 310 1888 310 1968 497 c 128,-1,9
 2048 684 2048 684 2048 896 c 256,10,11
 2048 1108 2048 1108 1968 1295 c 128,-1,12
 1888 1482 1888 1482 1749 1621 c 128,-1,13
 1610 1760 1610 1760 1423 1840 c 128,-1,14
 1236 1920 1236 1920 1024 1920 c 256,15,16
 812 1920 812 1920 625 1840 c 128,-1,17
 438 1760 438 1760 299 1621 c 128,-1,18
 160 1482 160 1482 80 1295 c 128,-1,19
 0 1108 0 1108 0 896 c 256,0,1
256 896 m 256,20,21
 256 1056 256 1056 316 1195 c 128,-1,22
 376 1334 376 1334 481 1439 c 128,-1,23
 586 1544 586 1544 725 1604 c 128,-1,24
 864 1664 864 1664 1024 1664 c 256,25,26
 1184 1664 1184 1664 1323 1604 c 128,-1,27
 1462 1544 1462 1544 1567 1439 c 128,-1,28
 1672 1334 1672 1334 1732 1195 c 128,-1,29
 1792 1056 1792 1056 1792 896 c 256,30,31
 1792 736 1792 736 1732 597 c 128,-1,32
 1672 458 1672 458 1567 353 c 128,-1,33
 1462 248 1462 248 1323 188 c 128,-1,34
 1184 128 1184 128 1024 128 c 256,35,36
 864 128 864 128 725 188 c 128,-1,37
 586 248 586 248 481 353 c 128,-1,38
 376 458 376 458 316 597 c 128,-1,39
 256 736 256 736 256 896 c 256,20,21
896 842 m 1,40,-1
 896 1408 l 1,41,-1
 1152 1408 l 1,42,-1
 1152 950 l 1,43,-1
 1498 602 l 1,44,-1
 1318 422 l 1,45,-1
 896 842 l 1,40,-1
EndSplineSet
Validated: 9
EndChar

StartChar: uniE07B
Encoding: 57467 57467 37
Width: 2048
GlyphClass: 2
Flags: W
LayerCount: 3
Fore
SplineSet
0 896 m 256,0,1
 0 684 0 684 80 497 c 128,-1,2
 160 310 160 310 299 171 c 128,-1,3
 438 32 438 32 625 -48 c 128,-1,4
 812 -128 812 -128 1024 -128 c 256,5,6
 1236 -128 1236 -128 1423 -48 c 128,-1,7
 1610 32 1610 32 1749 171 c 128,-1,8
 1888 310 1888 310 1968 497 c 128,-1,9
 2048 684 2048 684 2048 896 c 256,10,11
 2048 1108 2048 1108 1968 1295 c 128,-1,12
 1888 1482 1888 1482 1749 1621 c 128,-1,13
 1610 1760 1610 1760 1423 1840 c 128,-1,14
 1236 1920 1236 1920 1024 1920 c 256,15,16
 812 1920 812 1920 625 1840 c 128,-1,17
 438 1760 438 1760 299 1621 c 128,-1,18
 160 1482 160 1482 80 1295 c 128,-1,19
 0 1108 0 1108 0 896 c 256,0,1
896 842 m 1,20,-1
 896 1408 l 1,21,-1
 1152 1408 l 1,22,-1
 1152 950 l 1,23,-1
 1498 602 l 1,24,-1
 1318 422 l 1,25,-1
 896 842 l 1,20,-1
EndSplineSet
Validated: 9
EndChar

StartChar: uniE09C
Encoding: 57500 57500 38
Width: 2048
GlyphClass: 2
Flags: W
LayerCount: 3
Fore
SplineSet
448 1280 m 256,0,1
 448 1520 448 1520 616 1688 c 128,-1,2
 784 1856 784 1856 1024 1856 c 256,3,4
 1264 1856 1264 1856 1432 1688 c 128,-1,5
 1600 1520 1600 1520 1600 1280 c 256,6,7
 1600 1040 1600 1040 1432 872 c 128,-1,8
 1264 704 1264 704 1024 704 c 128,-1,9
 784 704 784 704 616 872 c 128,-1,10
 448 1040 448 1040 448 1280 c 256,0,1
1024 640 m 256,11,12
 811 640 811 640 640 768 c 1,13,-1
 640 -64 l 1,14,-1
 1024 320 l 1,15,-1
 1408 -64 l 1,16,-1
 1408 768 l 1,17,18
 1237 640 1237 640 1024 640 c 256,11,12
EndSplineSet
Validated: 9
EndChar

StartChar: uniE09D
Encoding: 57501 57501 39
Width: 2048
GlyphClass: 2
Flags: W
LayerCount: 3
Fore
SplineSet
1158.07767131 778.482849392 m 0,0,1
 1165.80493568 786.790289919 1165.80493568 786.790289919 1169 799 c 2,2,-1
 1197 906 l 1,3,-1
 1303 876 l 2,4,5
 1326 870 1326 870 1343 887 c 0,6,7
 1360.5620438 904.562043796 1360.5620438 904.562043796 1354 927 c 2,8,-1
 1323 1033 l 1,9,-1
 1431 1061 l 2,10,11
 1455 1067 1455 1067 1460.2073015 1090.99504718 c 0,12,13
 1465.07014467 1114.33669443 1465.07014467 1114.33669443 1449 1130 c 2,14,-1
 1370 1207 l 1,15,-1
 1449 1284 l 2,16,17
 1466 1301 1466 1301 1461 1324 c 0,18,19
 1456.93069307 1340.27722772 1456.93069307 1340.27722772 1431 1347 c 2,20,-1
 1323 1375 l 1,21,-1
 1354 1487 l 2,22,23
 1360 1510 1360 1510 1343 1527 c 0,24,25
 1325.4379562 1544.5620438 1325.4379562 1544.5620438 1303 1538 c 2,26,-1
 1197 1507 l 1,27,-1
 1169 1615 l 2,28,29
 1163 1637 1163 1637 1141.19196575 1643.44800928 c 0,30,31
 1115.97059583 1650.00764751 1115.97059583 1650.00764751 1100 1633 c 2,32,-1
 1023 1551 l 1,33,-1
 946 1630 l 2,34,35
 927 1650 927 1650 904.203734432 1643.4180542 c 0,36,37
 882.960335301 1637.98986473 882.960335301 1637.98986473 877 1615 c 2,38,-1
 849 1507 l 1,39,-1
 743 1538 l 2,40,41
 721 1545 721 1545 703 1527 c 0,42,43
 685.602941176 1509.60294118 685.602941176 1509.60294118 692 1487 c 2,44,-1
 722 1381 l 1,45,-1
 615 1353 l 2,46,47
 591 1347 591 1347 585.741861205 1322.18349214 c 0,48,49
 580.963792838 1299.83061476 580.963792838 1299.83061476 597 1284 c 2,50,-1
 675 1207 l 1,51,-1
 597 1130 l 2,52,53
 580 1113 580 1113 585.903200618 1090.40333076 c 0,54,55
 590.935249851 1067.2973178 590.935249851 1067.2973178 615 1061 c 2,56,-1
 722 1033 l 1,57,-1
 692 927 l 2,58,59
 686 904 686 904 703 887 c 0,60,61
 720.397058824 869.602941176 720.397058824 869.602941176 743 876 c 2,62,-1
 849 906 l 1,63,-1
 877 799 l 2,64,65
 884 774 884 774 906.814199093 769.3208762 c 0,66,67
 929.176225879 763.957735306 929.176225879 763.957735306 946 781 c 2,68,-1
 1023 859 l 1,69,-1
 1100 781 l 2,70,71
 1114 767 1114 767 1135.16708771 767.755967418 c 0,72,73
 1142 768 1142 768 1147.11382958 770.045531833 c 0,74,75
 1152 772 1152 772 1158.07767131 778.482849392 c 0,0,1
638 706 m 1,76,-1
 384 44 l 1,77,-1
 632 154 l 1,78,-1
 742 -94 l 1,79,-1
 1000 576 l 1,80,81
 798 584 798 584 638 706 c 1,76,-1
450 1216 m 128,-1,83
 450 976 450 976 618 808 c 128,-1,84
 786 640 786 640 1026 640 c 0,85,86
 1263 640 1263 640 1433 808 c 0,87,88
 1602 975 1602 975 1602 1216 c 128,-1,89
 1602 1457 1602 1457 1433 1624 c 0,90,91
 1263 1792 1263 1792 1026 1792 c 0,92,93
 786 1792 786 1792 618 1624 c 128,-1,82
 450 1456 450 1456 450 1216 c 128,-1,83
1052 576 m 1,94,-1
 1308 -94 l 1,95,-1
 1420 154 l 1,96,-1
 1668 44 l 1,97,-1
 1412 706 l 1,98,99
 1252 584 1252 584 1052 576 c 1,94,-1
EndSplineSet
Validated: 9
EndChar

StartChar: uniE09E
Encoding: 57502 57502 40
Width: 2048
GlyphClass: 2
Flags: W
LayerCount: 3
Fore
SplineSet
954 1176 m 1,0,1
 751 1152 751 1152 602 1020 c 1,2,-1
 322 1712 l 1,3,-1
 678 1856 l 1,4,-1
 954 1176 l 1,0,1
800 1070 m 0,5,6
 584 976 584 976 493 763 c 0,7,8
 448 658 448 658 448 539 c 128,-1,9
 448 420 448 420 493 315 c 0,10,11
 584 102 584 102 800 8 c 0,12,13
 904 -36 904 -36 1024 -36 c 128,-1,14
 1144 -36 1144 -36 1248 9 c 0,15,16
 1465 103 1465 103 1554 314 c 0,17,18
 1600 420 1600 420 1600 539 c 128,-1,19
 1600 658 1600 658 1555 763 c 0,20,21
 1464 974 1464 974 1248 1070 c 0,22,23
 1144 1116 1144 1116 1024 1116 c 256,24,25
 904 1116 904 1116 800 1070 c 0,5,6
704 604 m 5,26,-1
 928 604 l 5,27,-1
 1024 860 l 5,28,-1
 1120 604 l 5,29,-1
 1344 604 l 5,30,-1
 1152 476 l 5,31,-1
 1248 220 l 5,32,-1
 1024 366 l 5,33,-1
 800 220 l 5,34,-1
 896 476 l 5,35,-1
 704 604 l 5,26,-1
1446 1020 m 1,36,37
 1298 1152 1298 1152 1094 1176 c 1,38,-1
 1370 1856 l 1,39,-1
 1726 1712 l 1,40,-1
 1446 1020 l 1,36,37
EndSplineSet
Validated: 9
EndChar

StartChar: uniE09F
Encoding: 57503 57503 41
Width: 2048
GlyphClass: 2
Flags: W
LayerCount: 3
Fore
SplineSet
576 416 m 256,0,1
 576 218 576 218 717 77 c 128,-1,2
 858 -64 858 -64 1056 -64 c 128,-1,3
 1254 -64 1254 -64 1395 77 c 128,-1,4
 1536 218 1536 218 1536 416 c 256,5,6
 1536 614 1536 614 1395 755 c 128,-1,7
 1254 896 1254 896 1056 896 c 256,8,9
 858 896 858 896 717 755 c 128,-1,10
 576 614 576 614 576 416 c 256,0,1
656 784 m 1,11,12
 731 868 731 868 832 912 c 1,13,-1
 832 1856 l 1,14,-1
 576 1856 l 1,15,-1
 576 1024 l 1,16,-1
 656 784 l 1,11,12
768 512 m 1,17,-1
 992 512 l 1,18,-1
 1056 704 l 1,19,-1
 1120 512 l 1,20,-1
 1344 512 l 1,21,-1
 1184 350 l 1,22,-1
 1248 128 l 1,23,-1
 1056 260 l 1,24,-1
 878 128 l 1,25,-1
 928 350 l 1,26,-1
 768 512 l 1,17,-1
1056 960 m 256,27,28
 1140 960 1140 960 1216 936 c 1,29,-1
 1216 1856 l 1,30,-1
 896 1856 l 1,31,-1
 896 936 l 1,32,33
 972 960 972 960 1056 960 c 256,27,28
1456 784 m 1,34,35
 1381 868 1381 868 1280 912 c 1,36,-1
 1280 1856 l 1,37,-1
 1536 1856 l 1,38,-1
 1536 1024 l 1,39,-1
 1456 784 l 1,34,35
EndSplineSet
Validated: 9
EndChar

StartChar: uniE0A0
Encoding: 57504 57504 42
Width: 1902
GlyphClass: 2
Flags: W
LayerCount: 3
Fore
SplineSet
0 1206 m 2,0,-1
 0 1354 l 2,1,2
 0 1398 0 1398 32 1430 c 128,-1,3
 64 1462 64 1462 110 1462 c 2,4,-1
 438 1462 l 1,5,-1
 438 1572 l 2,6,7
 438 1648 438 1648 492 1702 c 128,-1,8
 546 1756 546 1756 622 1756 c 2,9,-1
 1280 1756 l 2,10,11
 1356 1756 1356 1756 1409 1702 c 128,-1,12
 1462 1648 1462 1648 1462 1572 c 2,13,-1
 1462 1462 l 1,14,-1
 1792 1462 l 2,15,16
 1838 1462 1838 1462 1870 1430 c 128,-1,17
 1902 1398 1902 1398 1902 1354 c 2,18,-1
 1902 1206 l 2,19,20
 1902 1126 1902 1126 1855 1044 c 0,21,22
 1757 873 1757 873 1530 784 c 0,23,24
 1416 738 1416 738 1282 732 c 1,25,26
 1232 668 1232 668 1174 624 c 1,27,28
 1128 582 1128 582 1113 538 c 128,-1,29
 1098 494 1098 494 1098 439 c 128,-1,30
 1098 384 1098 384 1130 338 c 128,-1,31
 1162 292 1162 292 1244 292 c 256,32,33
 1326 292 1326 292 1394 242 c 128,-1,34
 1462 192 1462 192 1462 110 c 2,35,-1
 1462 36 l 2,36,37
 1462 22 1462 22 1452 11 c 128,-1,38
 1442 0 1442 0 1426 0 c 2,39,-1
 476 0 l 2,40,41
 460 0 460 0 449 11 c 128,-1,42
 438 22 438 22 438 36 c 2,43,-1
 438 110 l 2,44,45
 438 192 438 192 507 242 c 128,-1,46
 576 292 576 292 658 292 c 256,47,48
 740 292 740 292 772 338 c 128,-1,49
 804 384 804 384 804 439 c 128,-1,50
 804 494 804 494 789 538 c 128,-1,51
 774 582 774 582 743 609 c 128,-1,52
 712 636 712 636 683 662 c 128,-1,53
 654 688 654 688 620 732 c 1,54,55
 361 744 361 744 176 895 c 0,56,57
 0 1039 0 1039 0 1206 c 2,0,-1
524 892 m 1,58,59
 438 1083 438 1083 438 1316 c 1,60,-1
 146 1316 l 1,61,-1
 146 1206 l 2,62,63
 146 1122 146 1122 250 1025 c 128,-1,64
 354 928 354 928 524 892 c 1,58,59
1378 892 m 1,65,66
 1548 928 1548 928 1652 1025 c 128,-1,67
 1756 1122 1756 1122 1756 1206 c 2,68,-1
 1756 1316 l 1,69,-1
 1462 1316 l 1,70,71
 1462 1079 1462 1079 1378 892 c 1,65,66
EndSplineSet
Validated: 1
EndChar

StartChar: uniE0A2
Encoding: 57506 57506 43
Width: 1756
GlyphClass: 2
Flags: W
LayerCount: 3
Fore
SplineSet
1150 24 m 132,-1,1
 1134 8 1134 8 1123 5 c 132,-1,2
 1112 2 1112 2 1093 1 c 4,3,4
 1059 -1 1059 -1 1032 26 c 6,5,-1
 878 182 l 5,6,-1
 724 26 l 6,7,8
 694 -8 694 -8 658 0 c 4,9,10
 595 14 595 14 586 62 c 6,11,-1
 530 276 l 5,12,-1
 318 216 l 6,13,14
 272 204 272 204 238 238 c 260,15,16
 204 272 204 272 216 318 c 6,17,-1
 276 530 l 5,18,-1
 62 586 l 6,19,20
 16 594 16 594 2 644 c 4,21,22
 -8 694 -8 694 26 724 c 6,23,-1
 182 878 l 5,24,-1
 26 1032 l 6,25,26
 -7 1061 -7 1061 0 1098 c 4,27,28
 14 1161 14 1161 62 1170 c 6,29,-1
 276 1226 l 5,30,-1
 216 1438 l 6,31,32
 204 1484 204 1484 238 1518 c 260,33,34
 272 1552 272 1552 318 1540 c 6,35,-1
 530 1478 l 5,36,-1
 586 1694 l 6,37,38
 594 1738 594 1738 644 1752 c 4,39,40
 689 1765 689 1765 724 1730 c 6,41,-1
 878 1572 l 5,42,-1
 1032 1730 l 6,43,44
 1066 1764 1066 1764 1112 1752 c 4,45,46
 1162 1738 1162 1738 1170 1694 c 6,47,-1
 1226 1478 l 5,48,-1
 1438 1540 l 6,49,50
 1484 1552 1484 1552 1518 1518 c 260,51,52
 1552 1484 1552 1484 1540 1438 c 6,53,-1
 1478 1226 l 5,54,-1
 1694 1170 l 6,55,56
 1740 1162 1740 1162 1754 1112 c 5,57,58
 1763 1065 1763 1065 1730 1032 c 6,59,-1
 1572 878 l 5,60,-1
 1730 724 l 6,61,62
 1763 691 1763 691 1756 656 c 4,63,64
 1742 595 1742 595 1694 586 c 6,65,-1
 1478 530 l 5,66,-1
 1540 318 l 6,67,68
 1552 272 1552 272 1518 238 c 260,69,70
 1484 204 1484 204 1438 216 c 6,71,-1
 1226 276 l 5,72,-1
 1170 62 l 6,73,0
 1166 40 1166 40 1150 24 c 132,-1,1
EndSplineSet
Validated: 33
EndChar

StartChar: uniE0A3
Encoding: 57507 57507 44
Width: 2048
GlyphClass: 2
Flags: W
LayerCount: 3
Fore
SplineSet
1164 506 m 0,0,1
 1296 675 1296 675 1479.5 915 c 128,-1,2
 1663 1155 1663 1155 1709 1215 c 1,3,4
 1778 1066 1778 1066 1778 908 c 128,-1,5
 1778 750 1778 750 1718.5 612 c 128,-1,6
 1659 474 1659 474 1559 374 c 128,-1,7
 1459 274 1459 274 1321 215 c 128,-1,8
 1183 156 1183 156 1031 156 c 128,-1,9
 879 156 879 156 740.5 215 c 128,-1,10
 602 274 602 274 502 374 c 128,-1,11
 402 474 402 474 343 612 c 128,-1,12
 284 750 284 750 284 902 c 128,-1,13
 284 1054 284 1054 343 1192 c 128,-1,14
 402 1330 402 1330 502 1430 c 128,-1,15
 602 1530 602 1530 740.5 1589 c 128,-1,16
 879 1648 879 1648 1024 1648 c 0,17,18
 1312 1648 1312 1648 1521 1464 c 1,19,20
 1188 1031 1188 1031 1170 1008 c 128,-1,21
 1152 985 1152 985 1150.5 983 c 128,-1,22
 1149 981 1149 981 1147 978 c 128,-1,23
 1145 975 1145 975 1133 959.5 c 128,-1,24
 1121 944 1121 944 1078.5 888.5 c 128,-1,25
 1036 833 1036 833 1021 814 c 1,26,27
 837 1038 837 1038 828 1049 c 0,28,29
 763 1127 763 1127 689 1127 c 0,30,31
 643 1127 643 1127 593.5 1089 c 128,-1,32
 544 1051 544 1051 544 988.5 c 128,-1,33
 544 926 544 926 593.5 863.5 c 128,-1,34
 643 801 643 801 886 503 c 0,35,36
 954 419 954 419 1025 419 c 2,37,38
 1025 419 1025 419 1026 419 c 0,39,40
 1097 420 1097 420 1164 506 c 0,0,1
396 1673 m 2,41,42
 396 1673 396 1673 400 1673 c 0,43,44
 575 1673 575 1673 667 1830 c 0,45,46
 698 1883 698 1883 724.5 1903 c 128,-1,47
 751 1923 751 1923 784.5 1918.5 c 128,-1,48
 818 1914 818 1914 884.5 1876.5 c 128,-1,49
 951 1839 951 1839 1024 1838 c 2,50,51
 1024 1838 1024 1838 1025 1838 c 0,52,53
 1097 1838 1097 1838 1157.5 1872 c 128,-1,54
 1218 1906 1218 1906 1245 1915 c 128,-1,55
 1272 1924 1272 1924 1296.5 1916 c 128,-1,56
 1321 1908 1321 1908 1340.5 1888 c 128,-1,57
 1360 1868 1360 1868 1396.5 1816 c 128,-1,58
 1433 1764 1433 1764 1476 1726.5 c 128,-1,59
 1519 1689 1519 1689 1548.5 1689 c 128,-1,60
 1578 1689 1578 1689 1612 1718 c 0,61,62
 1687 1781 1687 1781 1771 1782 c 2,63,64
 1771 1782 1771 1782 1778 1782 c 0,65,66
 1866 1779 1866 1779 1934 1712 c 0,67,68
 2010 1639 2010 1639 2010 1553.5 c 128,-1,69
 2010 1468 2010 1468 1959 1394 c 0,70,71
 1956 1390 1956 1390 1891 1299 c 1,72,73
 1986 1263 1986 1263 2016 1212 c 0,74,75
 2048 1162 2048 1162 2038 1115 c 0,76,77
 2025 1047 2025 1047 1998.5 996.5 c 128,-1,78
 1972 946 1972 946 1974 909 c 0,79,80
 1978 839 1978 839 1999.5 788.5 c 128,-1,81
 2021 738 2021 738 2027.5 721 c 128,-1,82
 2034 704 2034 704 2040.5 682.5 c 128,-1,83
 2047 661 2047 661 2048 650.5 c 128,-1,84
 2049 640 2049 640 2046 624.5 c 128,-1,85
 2043 609 2043 609 2036 600.5 c 128,-1,86
 2029 592 2029 592 2016 578 c 0,87,88
 1997 560 1997 560 1936 521 c 0,89,90
 1809 440 1809 440 1805 287 c 0,91,92
 1802 177 1802 177 1774 151 c 0,93,94
 1751 129 1751 129 1714.5 125 c 128,-1,95
 1678 121 1678 121 1616.5 119.5 c 128,-1,96
 1555 118 1555 118 1494 80 c 128,-1,97
 1433 42 1433 42 1393.5 -23.5 c 128,-1,98
 1354 -89 1354 -89 1329.5 -108 c 128,-1,99
 1305 -127 1305 -127 1288 -127 c 2,100,101
 1288 -127 1288 -127 1260.5 -125 c 128,-1,102
 1233 -123 1233 -123 1166 -85 c 128,-1,103
 1099 -47 1099 -47 1026 -47 c 2,104,105
 1026 -47 1026 -47 1024 -47 c 0,106,107
 951 -48 951 -48 884 -86 c 0,108,109
 800 -132 800 -132 772 -127 c 1,110,111
 745 -127 745 -127 720.5 -107.5 c 128,-1,112
 696 -88 696 -88 656 -21 c 0,113,114
 574 117 574 117 398 121 c 0,115,116
 306 123 306 123 277 151.5 c 128,-1,117
 248 180 248 180 247 270 c 0,118,119
 245 445 245 445 97 533 c 0,120,121
 40 567 40 567 20 592.5 c 128,-1,122
 0 618 0 618 0.5 634.5 c 128,-1,123
 1 651 1 651 3 670.5 c 128,-1,124
 5 690 5 690 44 757 c 0,125,126
 124 898 124 898 38 1047 c 0,127,128
 1 1111 1 1111 1 1142.5 c 128,-1,129
 1 1174 1 1174 19 1199 c 128,-1,130
 37 1224 37 1224 103.5 1262.5 c 128,-1,131
 170 1301 170 1301 208.5 1365.5 c 128,-1,132
 247 1430 247 1430 248 1521.5 c 128,-1,133
 249 1613 249 1613 279 1643 c 128,-1,134
 309 1673 309 1673 396 1673 c 2,41,42
1574 1533 m 1,135,136
 1338 1735 1338 1735 1031 1735 c 0,137,138
 804 1735 804 1735 610 1622 c 0,139,140
 422 1512 422 1512 310 1322 c 0,141,142
 196 1129 196 1129 196 902 c 0,143,144
 196 558 196 558 441 313 c 0,145,146
 596 158 596 158 810 99 c 0,147,148
 918 69 918 69 1031 69 c 128,-1,149
 1144 69 1144 69 1252 99 c 128,-1,150
 1360 129 1360 129 1451.5 182.5 c 128,-1,151
 1543 236 1543 236 1620 313 c 128,-1,152
 1697 390 1697 390 1751 482 c 0,153,154
 1865 675 1865 675 1865 892 c 128,-1,155
 1865 1109 1865 1109 1768 1292 c 1,156,157
 1831 1375 1831 1375 1875 1434 c 128,-1,158
 1919 1493 1919 1493 1919 1544 c 0,159,160
 1919 1614 1919 1614 1868.5 1652.5 c 128,-1,161
 1818 1691 1818 1691 1771 1692 c 0,162,163
 1688 1692 1688 1692 1622 1594 c 0,164,165
 1615 1585 1615 1585 1611 1580.5 c 128,-1,166
 1607 1576 1607 1576 1574 1533 c 1,135,136
EndSplineSet
Validated: 33
EndChar

StartChar: uniE0B7
Encoding: 57527 57527 45
Width: 2048
GlyphClass: 2
Flags: W
LayerCount: 3
Fore
SplineSet
384 1280 m 0,0,1
 384 1040 384 1040 484 790 c 256,2,3
 584 540 584 540 704 336 c 128,-1,4
 824 132 824 132 924 2 c 2,5,6
 924 2 924 2 1024 -128 c 1,7,8
 1024 -128 1024 -128 1124 2 c 256,9,10
 1224 132 1224 132 1344 336 c 128,-1,11
 1464 540 1464 540 1564 790 c 256,12,13
 1664 1040 1664 1040 1664 1280 c 0,14,15
 1664 1412 1664 1412 1614 1529 c 0,16,17
 1512 1767 1512 1767 1274 1870 c 0,18,19
 1156 1920 1156 1920 1024 1920 c 256,20,21
 892 1920 892 1920 775 1870 c 0,22,23
 537 1768 537 1768 434 1530 c 0,24,25
 384 1412 384 1412 384 1280 c 0,0,1
640 1280 m 256,26,27
 640 1440 640 1440 752 1552 c 128,-1,28
 864 1664 864 1664 1024 1664 c 256,29,30
 1184 1664 1184 1664 1296 1552 c 128,-1,31
 1408 1440 1408 1440 1408 1280 c 256,32,33
 1408 1120 1408 1120 1296 1008 c 128,-1,34
 1184 896 1184 896 1024 896 c 256,35,36
 864 896 864 896 752 1008 c 128,-1,37
 640 1120 640 1120 640 1280 c 256,26,27
EndSplineSet
Validated: 9
EndChar

StartChar: uniE0B8
Encoding: 57528 57528 46
Width: 2048
GlyphClass: 2
Flags: W
LayerCount: 3
Fore
SplineSet
384 1280 m 0,0,1
 384 1040 384 1040 484 790 c 256,2,3
 584 540 584 540 704 336 c 128,-1,4
 824 132 824 132 924 2 c 2,5,6
 924 2 924 2 1024 -128 c 1,7,8
 1024 -128 1024 -128 1124 2 c 256,9,10
 1224 132 1224 132 1344 336 c 128,-1,11
 1464 540 1464 540 1564 790 c 256,12,13
 1664 1040 1664 1040 1664 1280 c 0,14,15
 1664 1412 1664 1412 1614 1529 c 0,16,17
 1512 1767 1512 1767 1274 1870 c 0,18,19
 1156 1920 1156 1920 1024 1920 c 256,20,21
 892 1920 892 1920 775 1870 c 0,22,23
 537 1768 537 1768 434 1530 c 0,24,25
 384 1412 384 1412 384 1280 c 0,0,1
632 1280 m 256,26,27
 632 1442 632 1442 747 1557 c 128,-1,28
 862 1672 862 1672 1024 1672 c 256,29,30
 1186 1672 1186 1672 1301 1557 c 128,-1,31
 1416 1442 1416 1442 1416 1280 c 256,32,33
 1416 1118 1416 1118 1301 1003 c 128,-1,34
 1186 888 1186 888 1024 888 c 256,35,36
 862 888 862 888 747 1003 c 128,-1,37
 632 1118 632 1118 632 1280 c 256,26,27
776 1280 m 256,38,39
 776 1382 776 1382 849 1455 c 128,-1,40
 922 1528 922 1528 1024 1528 c 256,41,42
 1126 1528 1126 1528 1199 1455 c 128,-1,43
 1272 1382 1272 1382 1272 1280 c 256,44,45
 1272 1178 1272 1178 1199 1105 c 128,-1,46
 1126 1032 1126 1032 1024 1032 c 256,47,48
 922 1032 922 1032 849 1105 c 128,-1,49
 776 1178 776 1178 776 1280 c 256,38,39
EndSplineSet
Validated: 9
EndChar

StartChar: uniE0B9
Encoding: 57529 57529 47
Width: 1170
GlyphClass: 2
Flags: W
LayerCount: 3
Fore
SplineSet
0 1170 m 0,0,1
 0 1411 0 1411 171 1584 c 0,2,3
 341 1756 341 1756 586 1756 c 0,4,5
 706 1756 706 1756 813 1710 c 0,6,7
 1029 1617 1029 1617 1124 1398 c 0,8,9
 1170 1292 1170 1292 1170 1170 c 0,10,11
 1170 1045 1170 1045 1132 966 c 2,12,-1
 716 82 l 2,13,14
 698 44 698 44 662 22 c 128,-1,15
 626 0 626 0 585 0 c 128,-1,16
 544 0 544 0 508 22 c 128,-1,17
 472 44 472 44 454 82 c 2,18,-1
 38 966 l 2,19,20
 0 1045 0 1045 0 1170 c 0,0,1
378 1377 m 128,-1,22
 292 1292 292 1292 292 1171 c 128,-1,23
 292 1050 292 1050 378 964 c 128,-1,24
 464 878 464 878 585 878 c 128,-1,25
 706 878 706 878 792 964 c 128,-1,26
 878 1050 878 1050 878 1171 c 128,-1,27
 878 1292 878 1292 792 1377 c 128,-1,28
 706 1462 706 1462 585 1462 c 128,-1,21
 464 1462 464 1462 378 1377 c 128,-1,22
EndSplineSet
Validated: 1
EndChar

StartChar: uniE0BA
Encoding: 57530 57530 48
Width: 1170
GlyphClass: 2
Flags: W
LayerCount: 3
Fore
SplineSet
358 778 m 0,0,1
 140 871 140 871 46 1089 c 0,2,3
 0 1196 0 1196 0 1317 c 128,-1,4
 0 1438 0 1438 46 1545 c 0,5,6
 140 1763 140 1763 358 1856 c 0,7,8
 464 1902 464 1902 585 1902 c 128,-1,9
 706 1902 706 1902 813 1856 c 0,10,11
 1031 1762 1031 1762 1124 1544 c 0,12,13
 1170 1438 1170 1438 1170 1317 c 128,-1,14
 1170 1196 1170 1196 1124 1089 c 0,15,16
 1031 872 1031 872 814 778 c 0,17,18
 706 732 706 732 585 732 c 128,-1,19
 464 732 464 732 358 778 c 0,0,1
182 1316 m 0,20,21
 182 1302 182 1302 193 1291 c 128,-1,22
 204 1280 204 1280 219 1280 c 128,-1,23
 234 1280 234 1280 245 1291 c 128,-1,24
 256 1302 256 1302 256 1316 c 0,25,26
 256 1452 256 1452 352 1549 c 128,-1,27
 448 1646 448 1646 586 1646 c 0,28,29
 600 1646 600 1646 611 1656 c 128,-1,30
 622 1666 622 1666 622 1682 c 256,31,32
 622 1698 622 1698 611 1708 c 128,-1,33
 600 1718 600 1718 586 1718 c 0,34,35
 418 1718 418 1718 301 1601 c 0,36,37
 182 1482 182 1482 182 1316 c 0,20,21
438 676 m 1,38,39
 503 658 503 658 585 658 c 128,-1,40
 667 658 667 658 732 676 c 1,41,-1
 732 -74 l 2,42,43
 732 -104 732 -104 710 -125 c 128,-1,44
 688 -146 688 -146 658 -146 c 2,45,-1
 512 -146 l 2,46,47
 482 -146 482 -146 460 -125 c 128,-1,48
 438 -104 438 -104 438 -74 c 2,49,-1
 438 676 l 1,38,39
EndSplineSet
Validated: 1
EndChar

StartChar: uniE0BD
Encoding: 57533 57533 50
Width: 2048
GlyphClass: 2
Flags: W
LayerCount: 3
Fore
SplineSet
0 -50 m 1,0,-1
 0 -128 l 1,1,-1
 78 -128 l 1,2,-1
 800 416 l 1,3,-1
 1152 64 l 1,4,-1
 1152 512 l 1,5,-1
 1664 960 l 1,6,-1
 1856 768 l 1,7,-1
 2048 960 l 1,8,-1
 1088 1920 l 1,9,-1
 896 1728 l 1,10,-1
 1088 1536 l 1,11,-1
 640 1024 l 1,12,-1
 192 1024 l 1,13,-1
 544 672 l 1,14,-1
 0 -50 l 1,0,-1
768 960 m 1,15,-1
 1216 1408 l 1,16,-1
 1344 1280 l 1,17,-1
 896 832 l 1,18,-1
 768 960 l 1,15,-1
EndSplineSet
Validated: 9
EndChar

StartChar: uniE0BE
Encoding: 57534 57534 51
Width: 1316
GlyphClass: 2
Flags: W
LayerCount: 3
Fore
SplineSet
0 512 m 0,0,1
 0 652 0 652 90 765 c 128,-1,2
 180 878 180 878 292 878 c 1,3,-1
 292 1462 l 1,4,5
 232 1462 232 1462 189 1506 c 128,-1,6
 146 1550 146 1550 146 1610 c 256,7,8
 146 1670 146 1670 189 1713 c 128,-1,9
 232 1756 232 1756 292 1756 c 2,10,-1
 1024 1756 l 2,11,12
 1084 1756 1084 1756 1127 1713 c 128,-1,13
 1170 1670 1170 1670 1170 1610 c 256,14,15
 1170 1550 1170 1550 1127 1506 c 128,-1,16
 1084 1462 1084 1462 1024 1462 c 1,17,-1
 1024 878 l 1,18,19
 1138 878 1138 878 1227 765 c 128,-1,20
 1316 652 1316 652 1316 512 c 0,21,22
 1316 482 1316 482 1295 460 c 128,-1,23
 1274 438 1274 438 1244 438 c 2,24,-1
 754 438 l 1,25,-1
 694 -114 l 2,26,27
 694 -126 694 -126 684 -136 c 128,-1,28
 674 -146 674 -146 660 -146 c 2,29,-1
 658 -146 l 2,30,31
 626 -146 626 -146 622 -116 c 2,32,-1
 534 438 l 1,33,-1
 74 438 l 2,34,35
 44 438 44 438 22 460 c 128,-1,36
 0 482 0 482 0 512 c 0,0,1
476 914 m 2,37,38
 476 898 476 898 486 888 c 128,-1,39
 496 878 496 878 512 878 c 256,40,41
 528 878 528 878 538 888 c 128,-1,42
 548 898 548 898 548 914 c 2,43,-1
 548 1426 l 2,44,45
 548 1442 548 1442 538 1452 c 128,-1,46
 528 1462 528 1462 512 1462 c 256,47,48
 496 1462 496 1462 486 1452 c 128,-1,49
 476 1442 476 1442 476 1426 c 2,50,-1
 476 914 l 2,37,38
EndSplineSet
Validated: 1
EndChar

StartChar: uniE0EA
Encoding: 57578 57578 52
Width: 2048
GlyphClass: 2
Flags: W
LayerCount: 3
Fore
SplineSet
430 1530 m 0,0,1
 329 1530 329 1530 238 1582 c 1,2,-1
 36 1234 l 1,3,4
 130 1178 130 1178 175 1099 c 0,5,6
 231 1001 231 1001 231 894 c 0,7,8
 231 770 231 770 152 660 c 0,9,10
 106 598 106 598 36 558 c 1,11,-1
 238 210 l 1,12,13
 329 262 329 262 420.5 262 c 128,-1,14
 512 262 512 262 583 231 c 0,15,16
 729 167 729 167 790 24 c 0,17,18
 822 -48 822 -48 822 -128 c 1,19,-1
 1224 -128 l 1,20,21
 1224 -26 1224 -26 1270 55 c 0,22,23
 1386 260 1386 260 1617 260 c 0,24,25
 1716 260 1716 260 1810 208 c 1,26,-1
 2010 558 l 1,27,28
 1919 610 1919 610 1873.5 690 c 128,-1,29
 1828 770 1828 770 1822 819.5 c 128,-1,30
 1816 869 1816 869 1816 906 c 0,31,32
 1816 1027 1816 1027 1896 1130 c 0,33,34
 1942 1192 1942 1192 2012 1232 c 1,35,-1
 1810 1582 l 1,36,37
 1723 1528 1723 1528 1628.5 1528 c 128,-1,38
 1534 1528 1534 1528 1463 1559 c 0,39,40
 1316 1623 1316 1623 1256 1768 c 0,41,42
 1226 1838 1226 1838 1226 1920 c 1,43,-1
 824 1920 l 1,44,45
 824 1816 824 1816 777 1735 c 0,46,47
 658 1530 658 1530 430 1530 c 0,0,1
610 896 m 256,48,49
 610 1068 610 1068 731 1189 c 128,-1,50
 852 1310 852 1310 1024 1310 c 256,51,52
 1196 1310 1196 1310 1317 1189 c 128,-1,53
 1438 1068 1438 1068 1438 896 c 256,54,55
 1438 724 1438 724 1317 603 c 128,-1,56
 1196 482 1196 482 1024 482 c 256,57,58
 852 482 852 482 731 603 c 128,-1,59
 610 724 610 724 610 896 c 256,48,49
EndSplineSet
Validated: 9
EndChar

StartChar: uniE0EB
Encoding: 57579 57579 53
Width: 2048
GlyphClass: 2
Flags: W
LayerCount: 3
Fore
SplineSet
24 1512 m 1,0,1
 0 1432 0 1432 0 1328 c 128,-1,2
 0 1224 0 1224 45 1119 c 0,3,4
 138 903 138 903 352 814 c 0,5,6
 456 768 456 768 587 768 c 128,-1,7
 718 768 718 768 846 836 c 1,8,-1
 1636 -86 l 2,9,10
 1670 -126 1670 -126 1721 -128 c 2,11,12
 1721 -128 1721 -128 1726 -128 c 0,13,14
 1774 -128 1774 -128 1810 -92 c 2,15,-1
 2012 110 l 2,16,17
 2048 146 2048 146 2048 194 c 2,18,19
 2048 194 2048 194 2048 199 c 0,20,21
 2046 250 2046 250 2006 284 c 2,22,-1
 1084 1074 l 1,23,24
 1152 1202 1152 1202 1152 1333 c 128,-1,25
 1152 1464 1152 1464 1107 1569 c 0,26,27
 1014 1785 1014 1785 800 1874 c 0,28,29
 696 1920 696 1920 576 1920 c 0,30,31
 488 1920 488 1920 408 1896 c 1,32,-1
 742 1562 l 2,33,34
 778 1526 778 1526 778 1472 c 128,-1,35
 778 1418 778 1418 742 1382 c 2,36,-1
 538 1178 l 2,37,38
 502 1142 502 1142 448 1142 c 128,-1,39
 394 1142 394 1142 358 1178 c 2,40,-1
 24 1512 l 1,0,1
EndSplineSet
Validated: 9
EndChar

StartChar: uniE0EC
Encoding: 57580 57580 54
Width: 1924
GlyphClass: 2
Flags: W
LayerCount: 3
Fore
SplineSet
68 44 m 2,0,1
 24 84 24 84 24 147 c 128,-1,2
 24 210 24 210 68 250 c 2,3,-1
 846 1028 l 1,4,5
 890 916 890 916 976 830 c 128,-1,6
 1062 744 1062 744 1174 700 c 1,7,-1
 396 -80 l 2,8,9
 354 -122 354 -122 292 -122 c 0,10,11
 234 -122 234 -122 188 -80 c 2,12,-1
 68 44 l 2,0,1
292 220 m 256,13,14
 292 190 292 190 314 168 c 128,-1,15
 336 146 336 146 366 146 c 256,16,17
 396 146 396 146 417 168 c 128,-1,18
 438 190 438 190 438 220 c 256,19,20
 438 250 438 250 417 271 c 128,-1,21
 396 292 396 292 366 292 c 256,22,23
 336 292 336 292 314 271 c 128,-1,24
 292 250 292 250 292 220 c 256,13,14
1862 1236 m 0,25,26
 1900 1236 1900 1236 1900 1196 c 0,27,28
 1900 1160 1900 1160 1874 1076 c 1,29,30
 1786 838 1786 838 1546 756 c 0,31,32
 1470 732 1470 732 1377 732 c 128,-1,33
 1284 732 1284 732 1191 772 c 0,34,35
 1001 854 1001 854 918 1044 c 0,36,37
 878 1138 878 1138 878 1244 c 0,38,39
 878 1457 878 1457 1028 1605 c 0,40,41
 1181 1756 1181 1756 1390 1756 c 0,42,43
 1452 1756 1452 1756 1526 1737 c 128,-1,44
 1600 1718 1600 1718 1630 1698 c 128,-1,45
 1660 1678 1660 1678 1665 1670 c 128,-1,46
 1670 1662 1670 1662 1670 1652 c 0,47,48
 1670 1629 1670 1629 1652 1620 c 2,49,-1
 1316 1426 l 1,50,-1
 1316 1170 l 1,51,-1
 1538 1048 l 1,52,53
 1552 1056 1552 1056 1601 1087 c 0,54,55
 1837 1236 1837 1236 1862 1236 c 0,25,26
EndSplineSet
Validated: 1
EndChar

StartChar: uniE0ED
Encoding: 57581 57581 55
Width: 2048
GlyphClass: 2
Flags: W
LayerCount: 3
Fore
SplineSet
0 960 m 1,0,-1
 320 640 l 1,1,-1
 732 1052 l 1,2,-1
 1100 684 l 1,3,-1
 1054 638 l 2,4,5
 1026 610 1026 610 1026 571 c 128,-1,6
 1026 532 1026 532 1054 504 c 2,7,-1
 1658 -100 l 2,8,9
 1686 -128 1686 -128 1726 -128 c 128,-1,10
 1766 -128 1766 -128 1794 -100 c 2,11,-1
 2020 126 l 2,12,13
 2048 154 2048 154 2048 194 c 128,-1,14
 2048 234 2048 234 2020 262 c 2,15,-1
 1416 866 l 2,16,17
 1388 894 1388 894 1349 894 c 128,-1,18
 1310 894 1310 894 1282 866 c 2,19,-1
 1236 820 l 1,20,-1
 868 1188 l 1,21,-1
 1472 1792 l 1,22,-1
 832 1792 l 1,23,-1
 548 1508 l 1,24,-1
 520 1536 l 1,25,-1
 384 1536 l 1,26,-1
 384 1400 l 1,27,-1
 412 1372 l 1,28,-1
 0 960 l 1,0,-1
EndSplineSet
Validated: 9
EndChar

StartChar: uniE0EE
Encoding: 57582 57582 56
Width: 2048
GlyphClass: 2
Flags: W
LayerCount: 3
Fore
SplineSet
1780 946 m 1,0,1
 1856 1022 1856 1022 1856 1130 c 0,2,3
 1856 1234 1856 1234 1780 1310 c 2,4,-1
 1480 1610 l 1,5,-1
 1360 1490 l 1,6,-1
 1360 1734 l 1,7,-1
 1300 1794 l 1,8,-1
 996 1490 l 1,9,-1
 1056 1430 l 1,10,-1
 1300 1430 l 1,11,-1
 1180 1310 l 1,12,-1
 1268 1218 l 1,13,-1
 1024 974 l 1,14,-1
 668 1326 l 1,15,-1
 668 1446 l 1,16,-1
 412 1702 l 1,17,-1
 172 1462 l 1,18,-1
 428 1202 l 1,19,-1
 548 1202 l 1,20,-1
 900 850 l 1,21,-1
 828 778 l 1,22,-1
 648 778 l 1,23,-1
 196 326 l 2,24,25
 172 302 172 302 172 266 c 256,26,27
 172 230 172 230 196 206 c 2,28,-1
 376 26 l 2,29,30
 404 2 404 2 438 2 c 256,31,32
 472 2 472 2 496 26 c 2,33,-1
 948 478 l 1,34,-1
 948 658 l 1,35,-1
 1388 1098 l 1,36,-1
 1480 1010 l 1,37,-1
 1600 1130 l 1,38,-1
 1780 946 l 1,0,1
1096 478 m 1,39,-1
 1548 26 l 2,40,41
 1572 2 1572 2 1608 2 c 256,42,43
 1644 2 1644 2 1668 26 c 2,44,-1
 1848 206 l 2,45,46
 1876 230 1876 230 1876 266 c 256,47,48
 1876 302 1876 302 1848 326 c 2,49,-1
 1396 778 l 1,50,-1
 1312 778 l 1,51,-1
 1096 562 l 1,52,-1
 1096 478 l 1,39,-1
EndSplineSet
Validated: 9
EndChar

StartChar: uniE0EF
Encoding: 57583 57583 57
Width: 2048
GlyphClass: 2
Flags: W
LayerCount: 3
Fore
SplineSet
1186 1626 m 1,0,1
 1186 1626 1186 1626 1951 1648 c 1,2,3
 2011 1319 2011 1319 2048 1110 c 1,4,5
 1790 1011 1790 1011 1327 832 c 1,6,7
 1273 1138 1273 1138 1186 1626 c 1,0,1
1688 902 m 1,8,9
 1697 825 1697 825 1706 751 c 1,10,11
 1737 749 1737 749 1866 738 c 1,12,-1
 1866 431 l 1,13,14
 1826 429 1826 429 1789 426 c 1,15,16
 1782 441 1782 441 1770 470 c 0,17,18
 1744 530 1744 530 1727 555 c 0,19,20
 1663 649 1663 649 1534 649 c 2,21,22
 1534 649 1534 649 1351 649 c 128,-1,23
 1168 649 1168 649 1133 645.5 c 128,-1,24
 1098 642 1098 642 1066.5 632.5 c 128,-1,25
 1035 623 1035 623 1014.5 608.5 c 128,-1,26
 994 594 994 594 974 568 c 0,27,28
 942 528 942 528 901 428 c 1,29,-1
 771 428 l 1,30,31
 753 449 753 449 721 490 c 0,32,33
 656 575 656 575 623 600.5 c 128,-1,34
 590 626 590 626 564 633 c 128,-1,35
 538 640 538 640 505 636 c 0,36,37
 457 629 457 629 417.5 616.5 c 128,-1,38
 378 604 378 604 374 603 c 1,39,40
 468 740 468 740 624 743 c 0,41,42
 655 744 655 744 700 744 c 128,-1,43
 745 744 745 744 787 743.5 c 128,-1,44
 829 743 829 743 878 743 c 0,45,46
 1255 743 1255 743 1368 780 c 0,47,48
 1398 790 1398 790 1438.5 807 c 128,-1,49
 1479 824 1479 824 1494.5 829.5 c 128,-1,50
 1510 835 1510 835 1688 902 c 1,8,9
1262 827 m 1,51,52
 1208 834 1208 834 1079 849 c 128,-1,53
 950 864 950 864 878 873 c 1,54,55
 777 1420 777 1420 774 1435 c 1,56,57
 946 1524 946 1524 1120 1613 c 1,58,59
 1250 891 1250 891 1262 827 c 1,51,52
513 257 m 0,60,61
 454 257 454 257 406.5 302.5 c 128,-1,62
 359 348 359 348 359 411 c 128,-1,63
 359 474 359 474 402 519 c 128,-1,64
 445 564 445 564 507 567 c 2,65,66
 507 567 507 567 514 567 c 0,67,68
 576 567 576 567 622.5 523 c 128,-1,69
 669 479 669 479 668.5 416 c 128,-1,70
 668 353 668 353 625 306.5 c 128,-1,71
 582 260 582 260 522 258 c 0,72,73
 518 258 518 258 513 257 c 0,60,61
1556 566 m 0,74,75
 1622 563 1622 563 1661.5 518 c 128,-1,76
 1701 473 1701 473 1701 414 c 0,77,78
 1701 342 1701 342 1653 299 c 128,-1,79
 1605 256 1605 256 1549 257 c 2,80,81
 1549 257 1549 257 1542 257 c 0,82,83
 1480 260 1480 260 1438.5 304.5 c 128,-1,84
 1397 349 1397 349 1397 414.5 c 128,-1,85
 1397 480 1397 480 1441.5 523.5 c 128,-1,86
 1486 567 1486 567 1548 567 c 0,87,88
 1552 566 1552 566 1556 566 c 0,74,75
1264 303 m 128,-1,90
 1222 259 1222 259 1160 258 c 2,91,92
 1160 258 1160 258 1155 258 c 0,93,94
 1094 258 1094 258 1048.5 303.5 c 128,-1,95
 1003 349 1003 349 1002 413 c 2,96,97
 1002 413 1002 413 1002 414 c 0,98,99
 1003 477 1003 477 1045.5 521 c 128,-1,100
 1088 565 1088 565 1150 566 c 0,101,102
 1153 566 1153 566 1156 567 c 0,103,104
 1219 567 1219 567 1263 523.5 c 128,-1,105
 1307 480 1307 480 1306.5 413.5 c 128,-1,89
 1306 347 1306 347 1264 303 c 128,-1,90
98 1123 m 0,106,107
 115 1295 115 1295 268 1300 c 0,108,109
 342 1303 342 1303 383 1303 c 2,110,111
 383 1303 383 1303 412.5 1303 c 128,-1,112
 442 1303 442 1303 693 1302 c 1,113,-1
 693 812 l 1,114,115
 307 801 307 801 250 432 c 1,116,-1
 5 432 l 1,117,118
 5 441 5 441 2 460 c 0,119,120
 -3 501 -3 501 6 513 c 0,121,122
 50 569 50 569 59 643 c 0,123,124
 62 669 62 669 65 718 c 128,-1,125
 68 767 68 767 72 805.5 c 128,-1,126
 76 844 76 844 84.5 956.5 c 128,-1,127
 93 1069 93 1069 98 1123 c 0,106,107
527 876 m 1,128,-1
 527 1223 l 1,129,130
 407 1230 407 1230 377 1230 c 128,-1,131
 347 1230 347 1230 311 1226.5 c 128,-1,132
 275 1223 275 1223 239.5 1195.5 c 128,-1,133
 204 1168 204 1168 198 1127 c 128,-1,134
 192 1086 192 1086 188.5 1048 c 128,-1,135
 185 1010 185 1010 182 957 c 128,-1,136
 179 904 179 904 176 876 c 1,137,-1
 527 876 l 1,128,-1
EndSplineSet
Validated: 33
EndChar

StartChar: uniE0F0
Encoding: 57584 57584 58
Width: 2048
GlyphClass: 2
Flags: W
LayerCount: 3
Fore
SplineSet
1154 1571 m 1,0,1
 1174 1571 1174 1571 1186 1569 c 1,2,3
 1199 1766 1199 1766 1203 1843 c 1,4,5
 1425 1768 1425 1768 1522 1550 c 0,6,7
 1525 1543 1525 1543 1540 1504 c 128,-1,8
 1555 1465 1555 1465 1578 1427 c 128,-1,9
 1601 1389 1601 1389 1601 1370.5 c 128,-1,10
 1601 1352 1601 1352 1598 1346 c 0,11,12
 1586 1318 1586 1318 1506 1317 c 0,13,14
 1115 1312 1115 1312 549 1318 c 0,15,16
 484 1318 484 1318 466 1338 c 0,17,18
 434 1372 434 1372 486 1441 c 0,19,20
 506 1467 506 1467 529.5 1524 c 128,-1,21
 553 1581 553 1581 562 1598 c 0,22,23
 658 1774 658 1774 863 1848 c 1,24,25
 872 1657 872 1657 876 1582 c 1,26,27
 892 1581 892 1581 907 1581 c 1,28,29
 907 1581 907 1581 907.5 1636.5 c 128,-1,30
 908 1692 908 1692 908 1712 c 2,31,32
 908 1712 908 1712 908 1745.5 c 128,-1,33
 908 1779 908 1779 906 1810.5 c 128,-1,34
 904 1842 904 1842 910 1862 c 128,-1,35
 916 1882 916 1882 925.5 1893 c 128,-1,36
 935 1904 935 1904 954 1910 c 0,37,38
 984 1920 984 1920 1042.5 1920 c 128,-1,39
 1101 1920 1101 1920 1128 1899 c 128,-1,40
 1155 1878 1155 1878 1155 1825 c 2,41,42
 1155 1825 1155 1825 1154 1800 c 0,43,44
 1152 1748 1152 1748 1152 1732.5 c 128,-1,45
 1152 1717 1152 1717 1154 1571 c 1,0,1
1502 1264 m 1,46,47
 1503 1251 1503 1251 1503 1238 c 0,48,49
 1503 1155 1503 1155 1470 1070 c 0,50,51
 1401 897 1401 897 1217 817 c 0,52,53
 1127 779 1127 779 1029 779 c 2,54,55
 1029 779 1029 779 1028 779 c 0,56,57
 930 779 930 779 839 819 c 0,58,59
 655 900 655 900 585 1080 c 0,60,61
 556 1154 556 1154 556 1200.5 c 128,-1,62
 556 1247 556 1247 558 1264 c 1,63,-1
 1502 1264 l 1,46,47
1140 333 m 1,64,65
 1343 683 1343 683 1376 739 c 1,66,67
 1684 545 1684 545 1724 208 c 0,68,69
 1741 67 1741 67 1741 26.5 c 128,-1,70
 1741 -14 1741 -14 1739 -25 c 0,71,72
 1731 -87 1731 -87 1684 -106 c 128,-1,73
 1637 -125 1637 -125 1481 -126 c 2,74,75
 1481 -126 1481 -126 1414.5 -126 c 128,-1,76
 1348 -126 1348 -126 1170.5 -125.5 c 128,-1,77
 993 -125 993 -125 900 -125 c 2,78,79
 900 -125 900 -125 742.5 -125 c 128,-1,80
 585 -125 585 -125 509 -126.5 c 128,-1,81
 433 -128 433 -128 431 -128 c 0,82,83
 362 -128 362 -128 334.5 -100.5 c 128,-1,84
 307 -73 307 -73 306 1 c 2,85,86
 306 1 306 1 306 47 c 128,-1,87
 306 93 306 93 312 158.5 c 128,-1,88
 318 224 318 224 334 299 c 0,89,90
 374 486 374 486 520 624 c 0,91,92
 549 652 549 652 591.5 689.5 c 128,-1,93
 634 727 634 727 657 748 c 1,94,95
 707 663 707 663 795 511.5 c 128,-1,96
 883 360 883 360 898 335 c 1,97,98
 930 472 930 472 940 513 c 1,99,-1
 1099 513 l 1,100,101
 1106 484 1106 484 1140 333 c 1,64,65
1022 728 m 1,102,103
 1035 713 1035 713 1060 689 c 0,104,105
 1105 644 1105 644 1100.5 631 c 128,-1,106
 1096 618 1096 618 1083 603.5 c 128,-1,107
 1070 589 1070 589 1049 570.5 c 128,-1,108
 1028 552 1028 552 1021 544 c 1,109,110
 1013 552 1013 552 992 570 c 0,111,112
 950 607 950 607 943.5 623.5 c 128,-1,113
 937 640 937 640 948 652.5 c 128,-1,114
 959 665 959 665 983.5 689 c 128,-1,115
 1008 713 1008 713 1022 728 c 1,102,103
EndSplineSet
Validated: 33
EndChar

StartChar: uniE0F4
Encoding: 57588 57588 59
Width: 1902
GlyphClass: 2
Flags: W
LayerCount: 3
Fore
SplineSet
658 512 m 0,0,1
 658 488 658 488 630 438 c 1,2,-1
 1682 438 l 2,3,4
 1712 438 1712 438 1734 417 c 128,-1,5
 1756 396 1756 396 1756 366 c 256,6,7
 1756 336 1756 336 1734 314 c 128,-1,8
 1712 292 1712 292 1682 292 c 2,9,-1
 512 292 l 2,10,11
 482 292 482 292 460 314 c 128,-1,12
 438 336 438 336 438 364 c 128,-1,13
 438 392 438 392 466 444 c 2,14,15
 466 444 466 444 508 522 c 1,16,-1
 306 1462 l 1,17,-1
 74 1462 l 2,18,19
 44 1462 44 1462 22 1484 c 128,-1,20
 0 1506 0 1506 0 1536 c 256,21,22
 0 1566 0 1566 22 1588 c 128,-1,23
 44 1610 44 1610 74 1610 c 2,24,-1
 366 1610 l 2,25,26
 424 1610 424 1610 436 1557 c 128,-1,27
 448 1504 448 1504 456 1462 c 1,28,-1
 1828 1462 l 2,29,30
 1858 1462 1858 1462 1880 1441 c 128,-1,31
 1902 1420 1902 1420 1902 1390 c 2,32,-1
 1902 804 l 2,33,34
 1902 778 1902 778 1883 756 c 128,-1,35
 1864 734 1864 734 1836 732 c 2,36,-1
 644 592 l 1,37,38
 658 522 658 522 658 512 c 0,0,1
438 146 m 256,39,40
 438 206 438 206 482 249 c 128,-1,41
 526 292 526 292 586 292 c 256,42,43
 646 292 646 292 689 249 c 128,-1,44
 732 206 732 206 732 146 c 128,-1,45
 732 86 732 86 689 43 c 128,-1,46
 646 0 646 0 586 0 c 256,47,48
 526 0 526 0 482 43 c 128,-1,49
 438 86 438 86 438 146 c 256,39,40
1462 146 m 256,50,51
 1462 206 1462 206 1506 249 c 128,-1,52
 1550 292 1550 292 1610 292 c 256,53,54
 1670 292 1670 292 1713 249 c 128,-1,55
 1756 206 1756 206 1756 146 c 256,56,57
 1756 86 1756 86 1713 43 c 128,-1,58
 1670 0 1670 0 1610 0 c 256,59,60
 1550 0 1550 0 1506 43 c 128,-1,61
 1462 86 1462 86 1462 146 c 256,50,51
EndSplineSet
Validated: 5
EndChar

StartChar: uniE0F6
Encoding: 57590 57590 60
Width: 2048
GlyphClass: 2
Flags: W
LayerCount: 3
Fore
SplineSet
3294.04980469 -164.149414062 m 1,0,-1
 3311.27246094 -164.149414062 l 1,1,-1
 3294.04980469 -164.149414062 l 1,0,-1
1705.70605469 647.764648438 m 4,2,3
 1730 636 1730 636 1752.89746094 614.096679688 c 4,4,5
 1791 579 1791 579 1765.64355469 544.620117188 c 4,6,7
 1737 506 1737 506 1691.10839844 526.717773438 c 4,8,9
 1626 556 1626 556 1611.99902344 565.639648438 c 4,10,11
 1574 592 1574 592 1381.58105469 700.405273438 c 4,12,13
 1341 723 1341 723 1268.38769531 767.772460938 c 4,14,15
 1196 812 1196 812 1174.22558594 824.956054688 c 4,16,17
 1161 833 1161 833 1106.79589844 859.499023438 c 4,18,19
 1076 875 1076 875 1070.48925781 871.565429688 c 132,-1,20
 1065 868 1065 868 1065.04980469 834.881835938 c 4,21,22
 1065 226 1065 226 1065.53808594 180.897460938 c 4,23,24
 1066 143 1066 143 1043.64355469 121.249023438 c 4,25,26
 1021 99 1021 99 994.213867188 111.518554688 c 4,27,28
 974 121 974 121 956.944335938 154.135742188 c 4,29,30
 955.874023438 156.248696234 955.874023438 156.248696234 955.874023438 194.518554688 c 6,31,-1
 955.874023438 814.448242188 l 6,32,33
 956 858 956 858 954.901367188 862.030273438 c 4,34,35
 954 865 954 865 946.741210938 869.645507812 c 4,36,37
 939 874 939 874 936.022460938 872.440429688 c 4,38,39
 881 848 881 848 857.499023438 831.963867188 c 4,40,41
 829 813 829 813 567.432617188 659.342773438 c 4,42,43
 543 645 543 645 494.489257812 615.471679688 c 4,44,45
 446 585 446 585 406.784179688 563.711914062 c 4,46,47
 368 542 368 542 330.010742188 526.327148438 c 4,48,49
 292 511 292 511 269.291992188 529.928710938 c 4,50,51
 234 560 234 560 248.370117188 588.409179688 c 4,52,53
 265 622 265 622 297.799804688 640.756835938 c 4,54,55
 338 664 338 664 416.258789062 706.243164062 c 4,56,57
 495 748 495 748 530.553710938 769.006835938 c 4,58,59
 568 790 568 790 637.055664062 832.721679688 c 4,60,61
 706 875 706 875 737.913085938 893.557617188 c 4,62,63
 764 909 764 909 814.008789062 935.317382812 c 4,64,65
 864 962 864 962 876.862304688 968.967773438 c 4,66,67
 886 974 886 974 886.592773438 981.616210938 c 5,68,-1
 886.299804688 981.616210938 l 5,69,70
 886 990 886 990 883.967773438 991.541992188 c 4,71,72
 872 999 872 999 806.901367188 1035.42871094 c 4,73,74
 758 1063 758 1063 668.502929688 1115.37988281 c 4,75,76
 579 1168 579 1168 554.006835938 1182.45605469 c 4,77,78
 368 1290 368 1290 316.581054688 1315.37402344 c 4,79,80
 293 1327 293 1327 269.389648438 1349.04199219 c 4,81,82
 231 1385 231 1385 256.639648438 1418.51464844 c 4,83,84
 286 1457 286 1457 331.178710938 1436.42089844 c 4,85,86
 396 1407 396 1407 410.284179688 1397.49902344 c 4,87,88
 449 1372 449 1372 640.702148438 1262.72949219 c 4,89,90
 681 1240 681 1240 753.934570312 1195.34277344 c 4,91,92
 827 1151 827 1151 848.061523438 1138.18261719 c 4,93,94
 861 1131 861 1131 915.491210938 1103.63574219 c 4,95,96
 946 1088 946 1088 951.799804688 1091.56933594 c 4,97,98
 957 1095 957 1095 957.237304688 1128.25683594 c 4,99,100
 955 1582 955 1582 956.749023438 1782.24121094 c 4,101,102
 957 1820 957 1820 978.643554688 1841.88964844 c 4,103,104
 1002 1865 1002 1865 1028.07324219 1851.62011719 c 4,105,106
 1064.16055449 1832.38128639 1064.16055449 1832.38128639 1065.34277344 1808.99902344 c 4,107,108
 1066.41308594 1774.80150533 1066.41308594 1774.80150533 1066.41308594 1768.62011719 c 6,109,-1
 1066.41308594 1148.69042969 l 6,110,111
 1066 1106 1066 1106 1067.38574219 1101.10839844 c 4,112,113
 1068 1098 1068 1098 1075.54785156 1093.49121094 c 132,-1,114
 1083 1089 1083 1089 1086.26074219 1090.69433594 c 4,115,116
 1141 1115 1141 1115 1164.78808594 1131.17480469 c 4,117,118
 1188 1147 1188 1147 1454.85449219 1303.79199219 c 4,119,120
 1479 1318 1479 1318 1527.79785156 1347.66308594 c 4,121,122
 1576 1378 1576 1378 1615.50683594 1399.42675781 c 132,-1,123
 1655 1421 1655 1421 1692.27636719 1436.81152344 c 4,124,125
 1730 1453 1730 1453 1752.99511719 1433.20996094 c 4,126,127
 1788 1403 1788 1403 1773.91699219 1374.72949219 c 4,128,129
 1757 1341 1757 1341 1724.48339844 1322.37792969 c 4,130,131
 1684 1299 1684 1299 1606.02441406 1256.88964844 c 4,132,133
 1528 1215 1528 1215 1491.73339844 1194.13183594 c 4,134,135
 1454 1173 1454 1173 1385.25292969 1130.42480469 c 4,136,137
 1316 1088 1316 1088 1284.37402344 1069.58105469 c 4,138,139
 1258 1054 1258 1054 1208.22558594 1027.78808594 c 4,140,141
 1158 1001 1158 1001 1145.42480469 994.170898438 c 4,142,143
 1135 988 1135 988 1135.69433594 981.518554688 c 4,144,145
 1136 973 1136 973 1138.31933594 971.596679688 c 4,146,147
 1150 964 1150 964 1215.38574219 927.709960938 c 4,148,149
 1265 900 1265 900 1353.78613281 847.756835938 c 4,150,151
 1443 795 1443 795 1468.28027344 780.682617188 c 4,152,153
 1655 673 1655 673 1705.70605469 647.764648438 c 4,2,3
EndSplineSet
Validated: 33
EndChar

StartChar: uniE0F9
Encoding: 57593 57593 61
Width: 2048
GlyphClass: 2
Flags: W
LayerCount: 3
Fore
SplineSet
0 878 m 256,0,1
 0 1090 0 1090 80 1276 c 0,2,3
 243 1655 243 1655 626 1822 c 0,4,5
 812 1902 812 1902 1024 1902 c 256,6,7
 1236 1902 1236 1902 1423 1821 c 128,-1,8
 1610 1740 1610 1740 1749 1601 c 128,-1,9
 1888 1462 1888 1462 1968 1276 c 256,10,11
 2048 1090 2048 1090 2048 878 c 256,12,13
 2048 666 2048 666 1968 480 c 256,14,15
 1888 294 1888 294 1749 155 c 128,-1,16
 1610 16 1610 16 1423 -65 c 128,-1,17
 1236 -146 1236 -146 1024 -146 c 256,18,19
 812 -146 812 -146 625 -66 c 128,-1,20
 438 14 438 14 299 154 c 128,-1,21
 160 294 160 294 80 480 c 256,22,23
 0 666 0 666 0 878 c 256,0,1
308 372 m 1,24,25
 487 113 487 113 810 26 c 0,26,27
 912 0 912 0 1023 0 c 128,-1,28
 1134 0 1134 0 1238 27 c 0,29,30
 1559 110 1559 110 1740 372 c 1,31,32
 1718 532 1718 532 1647 657 c 128,-1,33
 1576 782 1576 782 1430 802 c 1,34,35
 1354 718 1354 718 1249 670 c 128,-1,36
 1144 622 1144 622 1024 622 c 256,37,38
 904 622 904 622 799 670 c 128,-1,39
 694 718 694 718 618 802 c 1,40,41
 472 782 472 782 401 657 c 128,-1,42
 330 532 330 532 308 372 c 1,24,25
714 860 m 128,-1,44
 842 732 842 732 1024 732 c 256,45,46
 1206 732 1206 732 1334 860 c 128,-1,47
 1462 988 1462 988 1462 1170 c 0,48,49
 1462 1355 1462 1355 1334 1481 c 0,50,51
 1203 1610 1203 1610 1024 1610 c 256,52,53
 845 1610 845 1610 715.5 1482.5 c 128,-1,54
 586 1355 586 1355 586 1171.5 c 128,-1,43
 586 988 586 988 714 860 c 128,-1,44
EndSplineSet
Validated: 1
EndChar

StartChar: uniE0FA
Encoding: 57594 57594 62
Width: 2048
GlyphClass: 2
Flags: W
LayerCount: 3
Fore
SplineSet
0 878 m 256,0,1
 0 1090 0 1090 80 1276 c 0,2,3
 243 1655 243 1655 626 1822 c 0,4,5
 812 1902 812 1902 1024 1902 c 256,6,7
 1236 1902 1236 1902 1423 1821 c 128,-1,8
 1610 1740 1610 1740 1749 1601 c 128,-1,9
 1888 1462 1888 1462 1968 1276 c 256,10,11
 2048 1090 2048 1090 2048 878 c 256,12,13
 2048 666 2048 666 1968 480 c 256,14,15
 1888 294 1888 294 1749 155 c 128,-1,16
 1610 16 1610 16 1424 -65 c 128,-1,17
 1238 -146 1238 -146 1025 -146 c 128,-1,18
 812 -146 812 -146 625 -65 c 128,-1,19
 438 16 438 16 299 155 c 128,-1,20
 160 294 160 294 80 480 c 256,21,22
 0 666 0 666 0 878 c 256,0,1
1732 358 m 1,23,24
 1902 592 1902 592 1902 878 c 0,25,26
 1902 1058 1902 1058 1832 1218 c 0,27,28
 1764 1378 1764 1378 1644 1498 c 128,-1,29
 1524 1618 1524 1618 1365 1687 c 128,-1,30
 1206 1756 1206 1756 1024 1756 c 256,31,32
 842 1756 842 1756 683 1687 c 128,-1,33
 524 1618 524 1618 404 1498 c 128,-1,34
 284 1378 284 1378 215 1218 c 128,-1,35
 146 1058 146 1058 146 895 c 0,36,37
 146 592 146 592 316 358 c 1,38,39
 348 512 348 512 429 622 c 128,-1,40
 510 732 510 732 666 732 c 1,41,42
 816 586 816 586 1024 586 c 256,43,44
 1232 586 1232 586 1382 732 c 1,45,46
 1538 732 1538 732 1619 622 c 128,-1,47
 1700 512 1700 512 1732 358 c 1,23,24
714 1408 m 128,-1,49
 586 1280 586 1280 586 1097 c 0,50,51
 586 913 586 913 714 787 c 0,52,53
 845 658 845 658 1024 658 c 256,54,55
 1203 658 1203 658 1334 787 c 0,56,57
 1462 913 1462 913 1462 1098 c 0,58,59
 1462 1280 1462 1280 1334 1408 c 128,-1,60
 1206 1536 1206 1536 1024 1536 c 256,61,48
 842 1536 842 1536 714 1408 c 128,-1,49
EndSplineSet
Validated: 9
EndChar

StartChar: uniE0FB
Encoding: 57595 57595 63
Width: 1462
GlyphClass: 2
Flags: W
LayerCount: 3
Fore
SplineSet
732 804 m 128,-1,1
 935 804 935 804 1090 950 c 1,2,3
 1293 950 1293 950 1388 739 c 0,4,5
 1462 575 1462 575 1462 302 c 0,6,7
 1462 178 1462 178 1391 89 c 128,-1,8
 1320 0 1320 0 1220 0 c 2,9,-1
 244 0 l 2,10,11
 144 0 144 0 72 89 c 128,-1,12
 0 178 0 178 0 297 c 128,-1,13
 0 416 0 416 16 531 c 0,14,15
 50 779 50 779 190 892 c 0,16,17
 262 950 262 950 374 950 c 1,18,0
 529 804 529 804 732 804 c 128,-1,1
328 1146 m 0,19,20
 292 1226 292 1226 292 1317 c 128,-1,21
 292 1408 292 1408 328 1488 c 0,22,23
 397 1651 397 1651 560 1720 c 0,24,25
 640 1756 640 1756 731 1756 c 128,-1,26
 822 1756 822 1756 902 1721 c 0,27,28
 1068 1648 1068 1648 1136 1488 c 0,29,30
 1170 1408 1170 1408 1170 1317 c 0,31,32
 1170 1134 1170 1134 1042 1006 c 128,-1,33
 914 878 914 878 732 878 c 0,34,35
 547 878 547 878 421 1006 c 0,36,37
 362 1066 362 1066 328 1146 c 0,19,20
EndSplineSet
Validated: 1
EndChar

StartChar: uniE111
Encoding: 57617 57617 64
Width: 2048
GlyphClass: 2
Flags: W
LayerCount: 3
Fore
SplineSet
462.8203125 493.93359375 m 1,0,1
 617.58203125 471.825195312 617.58203125 471.825195312 760.368164062 471.825195312 c 0,2,3
 1184.12011719 471.825195312 1184.12011719 471.825195312 1351.77832031 775.8203125 c 0,4,5
 1400.60253906 864.255859375 1400.60253906 864.255859375 1440.21386719 949.006835938 c 128,-1,6
 1479.82519531 1033.75683594 1479.82519531 1033.75683594 1518.515625 1111.13769531 c 0,7,8
 1608.79394531 1282.48046875 1608.79394531 1282.48046875 1748.81640625 1413.29101562 c 0,9,10
 1828.0390625 1485.14550781 1828.0390625 1485.14550781 1940.42480469 1549.62890625 c 0,11,12
 1965.29785156 1564.36816406 1965.29785156 1564.36816406 1968.06152344 1588.31933594 c 0,13,14
 1971.74609375 1630.69433594 1971.74609375 1630.69433594 1945.953125 1649.11816406 c 0,15,16
 1711.96777344 1825.98925781 1711.96777344 1825.98925781 1345.33007812 1877.57617188 c 0,17,18
 1227.41699219 1896 1227.41699219 1896 1092 1896 c 128,-1,19
 956.583984375 1896 956.583984375 1896 823.009765625 1870.20703125 c 0,20,21
 549.4140625 1817.69824219 549.4140625 1817.69824219 370.700195312 1674.91210938 c 1,22,23
 86.0498046875 1458.4296875 86.0498046875 1458.4296875 86.0498046875 1064.15722656 c 0,24,25
 86.0498046875 880.837890625 86.0498046875 880.837890625 155.139648438 667.119140625 c 1,26,27
 219.624023438 864.255859375 219.624023438 864.255859375 340.301757812 1034.67871094 c 0,28,29
 588.103515625 1384.734375 588.103515625 1384.734375 976.849609375 1529.36328125 c 0,30,31
 1168.45996094 1601.21582031 1168.45996094 1601.21582031 1380.3359375 1601.21582031 c 1,32,33
 1380.3359375 1601.21582031 1380.3359375 1601.21582031 1292.82226562 1572.65917969 c 0,34,35
 1064.36425781 1498.04199219 1064.36425781 1498.04199219 796.294921875 1302.74804688 c 0,36,37
 647.060546875 1194.04589844 647.060546875 1194.04589844 521.77734375 1033.75683594 c 0,38,39
 521.77734375 1031.9140625 521.77734375 1031.9140625 491.377929688 991.381835938 c 0,40,41
 381.754882812 844.91015625 381.754882812 844.91015625 289.635742188 569.471679688 c 0,42,43
 201.200195312 304.166992188 201.200195312 304.166992188 201.200195312 9.3828125 c 1,44,-1
 437.026367188 9.3828125 l 1,45,-1
 426.893554688 154.010742188 l 2,46,47
 425.051757812 179.8046875 425.051757812 179.8046875 425.051757812 207.440429688 c 0,48,49
 425.051757812 333.645507812 425.051757812 333.645507812 462.8203125 493.93359375 c 1,0,1
EndSplineSet
Validated: 41
EndChar

StartChar: uniE112
Encoding: 57618 57618 65
Width: 2048
GlyphClass: 2
Flags: W
LayerCount: 3
Fore
SplineSet
34 750 m 1,0,1
 72 752 72 752 150 755 c 0,2,3
 328 762 328 762 442 774 c 0,4,5
 672 800 672 800 991.5 946.5 c 128,-1,6
 1311 1093 1311 1093 1374 1120 c 0,7,8
 1540 1191 1540 1191 1683 1190 c 0,9,10
 1814 1190 1814 1190 1897 1131 c 0,11,12
 2048 1025 2048 1025 2048 858 c 0,13,14
 2048 754 2048 754 1994 686 c 0,15,16
 1904 572 1904 572 1774 572 c 0,17,18
 1672 572 1672 572 1615 632 c 0,19,20
 1546 702 1546 702 1546 789 c 0,21,22
 1546 838 1546 838 1572 878 c 128,-1,23
 1598 918 1598 918 1680 954 c 1,24,25
 1644 896 1644 896 1642 894 c 0,26,27
 1614 858 1614 858 1614 819.5 c 128,-1,28
 1614 781 1614 781 1642 742 c 0,29,30
 1682 683 1682 683 1749 683 c 0,31,32
 1829 683 1829 683 1881 754 c 0,33,34
 1913 798 1913 798 1913 850 c 128,-1,35
 1913 902 1913 902 1882 954 c 0,36,37
 1817 1062 1817 1062 1702 1062 c 2,38,39
 1702 1062 1702 1062 1697 1062 c 0,40,41
 1556 1059 1556 1059 1492.5 1038.5 c 128,-1,42
 1429 1018 1429 1018 1389 1003.5 c 128,-1,43
 1349 989 1349 989 1302.5 971 c 128,-1,44
 1256 953 1256 953 1226 941 c 128,-1,45
 1196 929 1196 929 1140 906 c 128,-1,46
 1084 883 1084 883 1062 874 c 0,47,48
 659 711 659 711 285 710 c 0,49,50
 171 710 171 710 108 720.5 c 128,-1,51
 45 731 45 731 31 733 c 0,52,53
 31 734 31 734 34 750 c 1,0,1
0 666 m 1,54,55
 144 604 144 604 303 602 c 2,56,57
 303 602 303 602 350 602 c 0,58,59
 461 602 461 602 567 619 c 128,-1,60
 673 636 673 636 795 660 c 0,61,62
 1089 718 1089 718 1180 716 c 2,63,64
 1180 716 1180 716 1228 715 c 128,-1,65
 1276 714 1276 714 1347 694 c 128,-1,66
 1418 674 1418 674 1480 622 c 0,67,68
 1600 523 1600 523 1602 373 c 0,69,70
 1602 291 1602 291 1555.5 207.5 c 128,-1,71
 1509 124 1509 124 1416 84 c 0,72,73
 1361 61 1361 61 1314 61 c 0,74,75
 1160 61 1160 61 1088 175 c 0,76,77
 1054 229 1054 229 1054 271 c 0,78,79
 1056 395 1056 395 1128 440 c 0,80,81
 1181 474 1181 474 1256 460 c 1,82,83
 1210 437 1210 437 1208 435 c 0,84,85
 1132 390 1132 390 1132 323 c 128,-1,86
 1132 256 1132 256 1174 220 c 0,87,88
 1223 177 1223 177 1287 177 c 0,89,90
 1389 177 1389 177 1445 270 c 0,91,92
 1473 316 1473 316 1473 372 c 0,93,94
 1473 445 1473 445 1429 498 c 0,95,96
 1346 599 1346 599 1220 599 c 1,97,98
 1220 599 1220 599 1127 595.5 c 128,-1,99
 1034 592 1034 592 868 573 c 0,100,101
 552 537 552 537 478 537 c 0,102,103
 229 537 229 537 102 596 c 0,104,105
 51 620 51 620 0 666 c 1,54,55
872 1368 m 1,106,107
 797 1322 797 1322 736 1344 c 0,108,109
 711 1354 711 1354 683 1376 c 0,110,111
 606 1436 606 1436 607 1529 c 0,112,113
 607 1621 607 1621 659 1679 c 0,114,115
 744 1774 744 1774 866 1776 c 0,116,117
 961 1776 961 1776 1039.5 1717.5 c 128,-1,118
 1118 1659 1118 1659 1146 1555 c 0,119,120
 1158 1510 1158 1510 1158 1457.5 c 128,-1,121
 1158 1405 1158 1405 1137 1346 c 0,122,123
 1080 1188 1080 1188 901 1071 c 0,124,125
 650 909 650 909 241 856 c 0,126,127
 169 847 169 847 47 834 c 1,128,129
 45 847 45 847 43 855 c 1,130,131
 109 876 109 876 218 901 c 0,132,133
 553 978 553 978 773 1119 c 0,134,135
 892 1196 892 1196 981 1316 c 0,136,137
 1023 1374 1023 1374 1023 1478 c 0,138,139
 1023 1572 1023 1572 969 1612.5 c 128,-1,140
 915 1653 915 1653 857 1652 c 0,141,142
 777 1652 777 1652 738.5 1610.5 c 128,-1,143
 700 1569 700 1569 699 1514 c 2,144,145
 699 1514 699 1514 699 1508 c 0,146,147
 699 1454 699 1454 727 1423 c 128,-1,148
 755 1392 755 1392 819 1380 c 0,149,150
 829 1378 829 1378 845 1374 c 128,-1,151
 861 1370 861 1370 872 1368 c 1,106,107
EndSplineSet
Validated: 33
EndChar

StartChar: uniE113
Encoding: 57619 57619 66
Width: 2048
GlyphClass: 2
Flags: W
LayerCount: 3
Fore
SplineSet
42 805 m 128,-1,1
 42 820 42 820 54 830 c 2,2,-1
 214 992 l 2,3,4
 246 1024 246 1024 292 1024 c 2,5,-1
 878 1024 l 1,6,-1
 878 1244 l 1,7,-1
 1170 1244 l 1,8,-1
 1170 1024 l 1,9,-1
 1828 1024 l 2,10,11
 1858 1024 1858 1024 1880 1002 c 128,-1,12
 1902 980 1902 980 1902 950 c 2,13,-1
 1902 658 l 2,14,15
 1902 628 1902 628 1880 607 c 128,-1,16
 1858 586 1858 586 1828 586 c 2,17,-1
 292 586 l 2,18,19
 246 586 246 586 214 618 c 2,20,-1
 54 778 l 2,21,0
 42 790 42 790 42 805 c 128,-1,1
146 1390 m 2,22,-1
 146 1682 l 2,23,24
 146 1712 146 1712 168 1734 c 128,-1,25
 190 1756 190 1756 220 1756 c 2,26,-1
 878 1756 l 1,27,-1
 878 1828 l 2,28,29
 878 1858 878 1858 899 1880 c 128,-1,30
 920 1902 920 1902 950 1902 c 2,31,-1
 1098 1902 l 2,32,33
 1128 1902 1128 1902 1149 1880 c 128,-1,34
 1170 1858 1170 1858 1170 1828 c 2,35,-1
 1170 1756 l 1,36,-1
 1756 1756 l 2,37,38
 1797 1756 1797 1756 1834 1724 c 2,39,-1
 1994 1562 l 2,40,41
 2006 1552 2006 1552 2006 1536 c 128,-1,42
 2006 1520 2006 1520 1994 1510 c 2,43,-1
 1834 1348 l 2,44,45
 1797 1316 1797 1316 1756 1316 c 2,46,-1
 220 1316 l 2,47,48
 190 1316 190 1316 168 1338 c 128,-1,49
 146 1360 146 1360 146 1390 c 2,22,-1
878 -74 m 2,50,-1
 878 512 l 1,51,-1
 1170 512 l 1,52,-1
 1170 -74 l 2,53,54
 1170 -104 1170 -104 1149 -125 c 128,-1,55
 1128 -146 1128 -146 1098 -146 c 2,56,-1
 950 -146 l 2,57,58
 920 -146 920 -146 899 -125 c 128,-1,59
 878 -104 878 -104 878 -74 c 2,50,-1
EndSplineSet
Validated: 1
EndChar

StartChar: uniE12C
Encoding: 57644 57644 67
Width: 2048
GlyphClass: 2
Flags: W
LayerCount: 3
Fore
SplineSet
126 865 m 0,0,1
 0 1046 0 1046 0 1232 c 0,2,3
 0 1472 0 1472 145 1613 c 0,4,5
 292 1756 292 1756 546 1756 c 0,6,7
 696 1756 696 1756 826 1666 c 128,-1,8
 956 1576 956 1576 1024 1508 c 1,9,10
 1092 1576 1092 1576 1222 1666 c 128,-1,11
 1352 1756 1352 1756 1491 1756 c 128,-1,12
 1630 1756 1630 1756 1731 1719 c 0,13,14
 1938 1643 1938 1643 2010 1446 c 0,15,16
 2048 1346 2048 1346 2048 1232 c 128,-1,17
 2048 1118 2048 1118 2009 1026 c 0,18,19
 1942 867 1942 867 1832 752 c 0,20,21
 1832 750 1832 750 1074 20 c 0,22,23
 1054 0 1054 0 1032 0 c 0,24,25
 994 0 994 0 974 20 c 2,26,-1
 260 708 l 2,27,28
 258 712 258 712 216 754 c 256,29,30
 174 796 174 796 126 865 c 0,0,1
EndSplineSet
Validated: 1
EndChar

StartChar: uniE12D
Encoding: 57645 57645 68
Width: 2048
GlyphClass: 2
Flags: W
LayerCount: 3
Fore
SplineSet
126 865 m 0,0,1
 0 1046 0 1046 0 1232 c 0,2,3
 0 1472 0 1472 145 1613 c 0,4,5
 292 1756 292 1756 546 1756 c 0,6,7
 696 1756 696 1756 826 1666 c 128,-1,8
 956 1576 956 1576 1024 1508 c 1,9,10
 1092 1576 1092 1576 1222 1666 c 128,-1,11
 1352 1756 1352 1756 1491 1756 c 128,-1,12
 1630 1756 1630 1756 1731 1719 c 0,13,14
 1938 1643 1938 1643 2010 1446 c 0,15,16
 2048 1346 2048 1346 2048 1232 c 128,-1,17
 2048 1118 2048 1118 2009 1026 c 0,18,19
 1942 867 1942 867 1832 752 c 0,20,21
 1832 750 1832 750 1074 20 c 0,22,23
 1054 0 1054 0 1024 0 c 256,24,25
 994 0 994 0 974 20 c 2,26,-1
 260 708 l 2,27,28
 258 712 258 712 216 754 c 256,29,30
 174 796 174 796 126 865 c 0,0,1
146 1220 m 0,31,32
 146 1088 146 1088 252 940 c 0,33,34
 292 884 292 884 326 850 c 256,35,36
 360 816 360 816 360 814 c 2,37,-1
 1024 174 l 1,38,39
 1686 814 1686 814 1722 850 c 0,40,41
 1812 940 1812 940 1868 1070 c 0,42,43
 1902 1142 1902 1142 1902 1220 c 0,44,45
 1902 1462 1902 1462 1770 1536 c 128,-1,46
 1638 1610 1638 1610 1502 1610 c 0,47,48
 1389 1610 1389 1610 1249 1509 c 0,49,50
 1152 1439 1152 1439 1080 1354 c 0,51,52
 1060 1330 1060 1330 1024 1330 c 128,-1,53
 988 1330 988 1330 967 1355 c 128,-1,54
 946 1380 946 1380 901 1424 c 0,55,56
 798 1524 798 1524 676 1580 c 0,57,58
 610 1610 610 1610 546 1610 c 0,59,60
 410 1610 410 1610 278 1536 c 128,-1,61
 146 1462 146 1462 146 1220 c 0,31,32
EndSplineSet
Validated: 1
EndChar

StartChar: uniE12E
Encoding: 57646 57646 69
Width: 2048
GlyphClass: 2
Flags: W
LayerCount: 3
Fore
SplineSet
157 1635 m 128,-1,1
 314 1792 314 1792 538 1792 c 0,2,3
 706 1792 706 1792 860 1656 c 1,4,-1
 704 1408 l 1,5,-1
 1152 1152 l 1,6,-1
 896 512 l 1,7,-1
 1600 1280 l 1,8,-1
 1152 1536 l 1,9,-1
 1276 1722 l 1,10,11
 1390 1792 1390 1792 1506 1792 c 0,12,13
 1734 1792 1734 1792 1891 1635 c 128,-1,14
 2048 1478 2048 1478 2048 1257 c 128,-1,15
 2048 1036 2048 1036 1943 879 c 128,-1,16
 1838 722 1838 722 1683 578 c 128,-1,17
 1528 434 1528 434 1350 276 c 256,18,19
 1172 118 1172 118 1024 -104 c 1,20,21
 868 120 868 120 689 275 c 128,-1,22
 510 430 510 430 357 572 c 128,-1,23
 204 714 204 714 102 871 c 128,-1,24
 0 1028 0 1028 0 1253 c 128,-1,0
 0 1478 0 1478 157 1635 c 128,-1,1
EndSplineSet
Validated: 1
EndChar

StartChar: uniE12F
Encoding: 57647 57647 70
Width: 2048
GlyphClass: 2
Flags: W
LayerCount: 3
Fore
SplineSet
118 878 m 1,0,1
 0 1052 0 1052 0 1220 c 0,2,3
 0 1472 0 1472 145 1613 c 0,4,5
 292 1756 292 1756 546 1756 c 0,6,7
 696 1756 696 1756 826 1666 c 128,-1,8
 956 1576 956 1576 1024 1508 c 1,9,10
 1092 1576 1092 1576 1222 1666 c 128,-1,11
 1352 1756 1352 1756 1491 1756 c 128,-1,12
 1630 1756 1630 1756 1731 1719 c 0,13,14
 1938 1643 1938 1643 2010 1446 c 0,15,16
 2048 1346 2048 1346 2048 1220 c 0,17,18
 2048 1052 2048 1052 1930 878 c 1,19,-1
 1508 878 l 1,20,-1
 1382 1130 l 2,21,22
 1360 1175 1360 1175 1310 1170 c 0,23,24
 1259 1165 1259 1165 1246 1118 c 2,25,-1
 1100 626 l 1,26,-1
 876 1410 l 2,27,28
 859 1462 859 1462 804 1462 c 0,29,30
 778 1462 778 1462 759 1447 c 128,-1,31
 740 1432 740 1432 734 1408 c 2,32,-1
 602 878 l 1,33,-1
 118 878 l 1,0,1
236 732 m 1,34,-1
 658 732 l 2,35,36
 684 732 684 732 704 747 c 128,-1,37
 724 762 724 762 730 786 c 2,38,-1
 810 1108 l 1,39,-1
 1026 346 l 2,40,41
 1044 292 1044 292 1098 292 c 0,42,43
 1122 292 1122 292 1141 307 c 128,-1,44
 1160 322 1160 322 1166 346 c 2,45,-1
 1334 900 l 1,46,-1
 1398 772 l 2,47,48
 1420 732 1420 732 1462 732 c 2,49,-1
 1812 732 l 1,50,51
 1802 720 1802 720 1795 714 c 128,-1,52
 1788 708 1788 708 1786 706 c 2,53,-1
 1074 20 l 2,54,55
 1054 0 1054 0 1024 0 c 256,56,57
 994 0 994 0 974 20 c 0,58,59
 260 708 260 708 253 715 c 2,60,61
 253 715 253 715 236 732 c 1,34,-1
EndSplineSet
Validated: 33
EndChar

StartChar: uniE138
Encoding: 57656 57656 71
Width: 2048
GlyphClass: 2
Flags: W
LayerCount: 3
Fore
SplineSet
128 358 m 1,0,-1
 486 0 l 1,1,-1
 1024 538 l 1,2,-1
 1562 0 l 1,3,-1
 1920 358 l 1,4,-1
 1382 896 l 1,5,-1
 1920 1434 l 1,6,-1
 1562 1792 l 1,7,-1
 1024 1254 l 1,8,-1
 486 1792 l 1,9,-1
 128 1434 l 1,10,-1
 666 896 l 1,11,-1
 128 358 l 1,0,-1
EndSplineSet
Validated: 9
EndChar

StartChar: uniE139
Encoding: 57657 57657 72
Width: 1610
GlyphClass: 2
Flags: W
LayerCount: 3
Fore
SplineSet
158 314 m 2,0,1
 126 342 126 342 126 377 c 0,2,3
 126 440 126 440 158 468 c 2,4,-1
 494 804 l 1,5,-1
 158 1140 l 2,6,7
 126 1172 126 1172 126 1218 c 256,8,9
 126 1264 126 1264 158 1296 c 2,10,-1
 314 1452 l 2,11,12
 346 1484 346 1484 379 1484 c 0,13,14
 436 1484 436 1484 468 1452 c 2,15,-1
 804 1116 l 1,16,-1
 1140 1452 l 2,17,18
 1177 1484 1177 1484 1218 1484 c 256,19,20
 1259 1484 1259 1484 1296 1452 c 2,21,-1
 1452 1296 l 2,22,23
 1484 1259 1484 1259 1484 1218 c 256,24,25
 1484 1177 1484 1177 1452 1140 c 2,26,-1
 1116 804 l 1,27,-1
 1452 468 l 2,28,29
 1484 436 1484 436 1484 403 c 0,30,31
 1484 346 1484 346 1452 314 c 2,32,-1
 1296 158 l 2,33,34
 1264 126 1264 126 1218 126 c 256,35,36
 1172 126 1172 126 1140 158 c 2,37,-1
 804 494 l 1,38,-1
 468 158 l 2,39,40
 440 126 440 126 405 126 c 0,41,42
 342 126 342 126 314 158 c 2,43,-1
 158 314 l 2,0,1
EndSplineSet
Validated: 1
EndChar

StartChar: uniE13A
Encoding: 57658 57658 73
Width: 2048
GlyphClass: 2
Flags: W
LayerCount: 3
Fore
SplineSet
0 182 m 2,0,-1
 0 1572 l 2,1,2
 0 1648 0 1648 54 1702 c 128,-1,3
 108 1756 108 1756 182 1756 c 2,4,-1
 1866 1756 l 2,5,6
 1940 1756 1940 1756 1994 1702 c 128,-1,7
 2048 1648 2048 1648 2048 1572 c 2,8,-1
 2048 182 l 2,9,10
 2048 108 2048 108 1994 54 c 128,-1,11
 1940 0 1940 0 1866 0 c 2,12,-1
 182 0 l 2,13,14
 108 0 108 0 54 54 c 128,-1,15
 0 108 0 108 0 182 c 2,0,-1
292 292 m 1,16,-1
 1756 292 l 1,17,-1
 1756 1462 l 1,18,-1
 292 1462 l 1,19,-1
 292 292 l 1,16,-1
600 659 m 128,-1,21
 600 674 600 674 612 684 c 2,22,-1
 804 878 l 1,23,-1
 612 1070 l 2,24,25
 600 1082 600 1082 600 1097 c 128,-1,26
 600 1112 600 1112 612 1124 c 2,27,-1
 778 1290 l 2,28,29
 790 1302 790 1302 805 1302 c 128,-1,30
 820 1302 820 1302 830 1290 c 2,31,-1
 1024 1098 l 1,32,-1
 1218 1290 l 2,33,34
 1228 1302 1228 1302 1243 1302 c 128,-1,35
 1258 1302 1258 1302 1270 1290 c 2,36,-1
 1436 1124 l 2,37,38
 1448 1112 1448 1112 1448 1097 c 128,-1,39
 1448 1082 1448 1082 1436 1070 c 2,40,-1
 1244 878 l 1,41,-1
 1436 684 l 2,42,43
 1448 674 1448 674 1448 659 c 128,-1,44
 1448 644 1448 644 1436 632 c 2,45,-1
 1270 466 l 2,46,47
 1258 454 1258 454 1243 454 c 128,-1,48
 1228 454 1228 454 1218 466 c 2,49,-1
 1024 658 l 1,50,-1
 830 466 l 2,51,52
 820 454 820 454 805 454 c 128,-1,53
 790 454 790 454 778 466 c 2,54,-1
 612 632 l 2,55,20
 600 644 600 644 600 659 c 128,-1,21
EndSplineSet
Validated: 1
EndChar

StartChar: uniE13B
Encoding: 57659 57659 74
Width: 1756
GlyphClass: 2
Flags: W
LayerCount: 3
Fore
SplineSet
0 878 m 256,0,1
 0 1060 0 1060 68 1220 c 0,2,3
 212 1548 212 1548 536 1686 c 0,4,5
 696 1756 696 1756 878 1756 c 256,6,7
 1060 1756 1060 1756 1220 1687 c 0,8,9
 1548 1546 1548 1546 1686 1220 c 0,10,11
 1756 1060 1756 1060 1756 878 c 256,12,13
 1756 696 1756 696 1687 536 c 0,14,15
 1546 208 1546 208 1220 70 c 0,16,17
 1060 0 1060 0 878 0 c 256,18,19
 696 0 696 0 536 69 c 0,20,21
 211 209 211 209 68 536 c 0,22,23
 0 696 0 696 0 878 c 256,0,1
256 878 m 256,24,25
 256 750 256 750 305 636 c 0,26,27
 404 406 404 406 636 304 c 0,28,29
 750 256 750 256 878 256 c 0,30,31
 1133 256 1133 256 1317 438 c 0,32,33
 1402 522 1402 522 1450 636 c 0,34,35
 1500 750 1500 750 1500 878 c 0,36,37
 1500 1134 1500 1134 1317 1317 c 128,-1,38
 1134 1500 1134 1500 878 1500 c 0,39,40
 750 1500 750 1500 636 1451 c 0,41,42
 408 1353 408 1353 304 1120 c 0,43,44
 256 1006 256 1006 256 878 c 256,24,25
490 695 m 128,-1,46
 490 710 490 710 502 722 c 2,47,-1
 658 878 l 1,48,-1
 502 1034 l 2,49,50
 490 1046 490 1046 490 1061 c 128,-1,51
 490 1076 490 1076 502 1086 c 2,52,-1
 668 1254 l 2,53,54
 680 1264 680 1264 695 1264 c 128,-1,55
 710 1264 710 1264 722 1254 c 2,56,-1
 878 1098 l 1,57,-1
 1034 1254 l 2,58,59
 1046 1264 1046 1264 1061 1264 c 128,-1,60
 1076 1264 1076 1264 1086 1254 c 2,61,-1
 1254 1086 l 2,62,63
 1264 1076 1264 1076 1264 1061 c 128,-1,64
 1264 1046 1264 1046 1254 1034 c 2,65,-1
 1098 878 l 1,66,-1
 1254 722 l 2,67,68
 1264 710 1264 710 1264 695 c 128,-1,69
 1264 680 1264 680 1254 668 c 2,70,-1
 1086 502 l 2,71,72
 1076 490 1076 490 1061 490 c 128,-1,73
 1046 490 1046 490 1034 502 c 2,74,-1
 878 658 l 1,75,-1
 722 502 l 2,76,77
 710 490 710 490 695 490 c 128,-1,78
 680 490 680 490 668 502 c 2,79,-1
 502 668 l 2,80,45
 490 680 490 680 490 695 c 128,-1,46
EndSplineSet
Validated: 1
EndChar

StartChar: uniE13C
Encoding: 57660 57660 75
Width: 2048
GlyphClass: 2
Flags: W
LayerCount: 3
Fore
SplineSet
0 182 m 2,0,-1
 0 1572 l 2,1,2
 0 1648 0 1648 54 1702 c 128,-1,3
 108 1756 108 1756 182 1756 c 2,4,-1
 1866 1756 l 2,5,6
 1940 1756 1940 1756 1994 1702 c 128,-1,7
 2048 1648 2048 1648 2048 1572 c 2,8,-1
 2048 182 l 2,9,10
 2048 108 2048 108 1994 54 c 128,-1,11
 1940 0 1940 0 1866 0 c 2,12,-1
 182 0 l 2,13,14
 108 0 108 0 54 54 c 128,-1,15
 0 108 0 108 0 182 c 2,0,-1
528 585 m 128,-1,17
 528 570 528 570 538 558 c 2,18,-1
 706 392 l 2,19,20
 716 380 716 380 731 380 c 128,-1,21
 746 380 746 380 758 392 c 2,22,-1
 1024 658 l 1,23,-1
 1290 392 l 2,24,25
 1302 380 1302 380 1317 380 c 128,-1,26
 1332 380 1332 380 1342 392 c 2,27,-1
 1510 558 l 2,28,29
 1520 570 1520 570 1520 585 c 128,-1,30
 1520 600 1520 600 1510 612 c 2,31,-1
 1244 878 l 1,32,-1
 1510 1144 l 2,33,34
 1520 1156 1520 1156 1520 1171 c 128,-1,35
 1520 1186 1520 1186 1510 1196 c 2,36,-1
 1342 1364 l 2,37,38
 1332 1374 1332 1374 1317 1374 c 128,-1,39
 1302 1374 1302 1374 1290 1364 c 2,40,-1
 1024 1098 l 1,41,-1
 758 1364 l 2,42,43
 746 1374 746 1374 731 1374 c 128,-1,44
 716 1374 716 1374 706 1364 c 2,45,-1
 538 1196 l 2,46,47
 528 1186 528 1186 528 1171 c 128,-1,48
 528 1156 528 1156 538 1144 c 2,49,-1
 804 878 l 1,50,-1
 538 612 l 2,51,16
 528 600 528 600 528 585 c 128,-1,17
EndSplineSet
Validated: 1
EndChar

StartChar: uniE13D
Encoding: 57661 57661 76
Width: 2048
GlyphClass: 2
Flags: W
LayerCount: 3
Fore
SplineSet
0 896 m 256,0,1
 0 684 0 684 80 497 c 128,-1,2
 160 310 160 310 299 171 c 128,-1,3
 438 32 438 32 625 -48 c 128,-1,4
 812 -128 812 -128 1024 -128 c 256,5,6
 1236 -128 1236 -128 1423 -48 c 128,-1,7
 1610 32 1610 32 1749 171 c 128,-1,8
 1888 310 1888 310 1968 497 c 128,-1,9
 2048 684 2048 684 2048 896 c 256,10,11
 2048 1108 2048 1108 1968 1295 c 128,-1,12
 1888 1482 1888 1482 1749 1621 c 128,-1,13
 1610 1760 1610 1760 1423 1840 c 128,-1,14
 1236 1920 1236 1920 1024 1920 c 256,15,16
 812 1920 812 1920 625 1840 c 128,-1,17
 438 1760 438 1760 299 1621 c 128,-1,18
 160 1482 160 1482 80 1295 c 128,-1,19
 0 1108 0 1108 0 896 c 256,0,1
518 570 m 1,20,-1
 844 896 l 1,21,-1
 518 1222 l 1,22,-1
 698 1402 l 1,23,-1
 1024 1076 l 1,24,-1
 1350 1402 l 1,25,-1
 1530 1222 l 1,26,-1
 1204 896 l 1,27,-1
 1530 570 l 1,28,-1
 1350 390 l 1,29,-1
 1024 716 l 1,30,-1
 698 390 l 1,31,-1
 518 570 l 1,20,-1
EndSplineSet
Validated: 9
EndChar

StartChar: uniE13E
Encoding: 57662 57662 77
Width: 2048
GlyphClass: 2
Flags: W
LayerCount: 3
Fore
SplineSet
170 764 m 2,0,1
 138 792 138 792 138 827 c 0,2,3
 138 890 138 890 170 918 c 2,4,-1
 326 1074 l 2,5,6
 358 1106 358 1106 391 1106 c 0,7,8
 450 1106 450 1106 482 1074 c 2,9,-1
 818 738 l 1,10,-1
 1566 1488 l 2,11,12
 1598 1520 1598 1520 1632 1520 c 0,13,14
 1690 1520 1690 1520 1722 1488 c 2,15,-1
 1878 1332 l 2,16,17
 1910 1304 1910 1304 1910 1269 c 0,18,19
 1910 1206 1910 1206 1878 1178 c 2,20,-1
 894 194 l 2,21,22
 866 162 866 162 831 162 c 0,23,24
 768 162 768 162 740 194 c 2,25,-1
 170 764 l 2,0,1
EndSplineSet
Validated: 1
EndChar

StartChar: uniE140
Encoding: 57664 57664 79
Width: 1910
GlyphClass: 2
Flags: W
LayerCount: 3
Fore
SplineSet
1368 1612 m 2,0,1
 1356 1600 1356 1600 1349 1600 c 128,-1,2
 1342 1600 1342 1600 1330 1603 c 0,3,4
 1302 1610 1302 1610 1280 1610 c 2,5,-1
 330 1610 l 2,6,7
 254 1610 254 1610 200 1556 c 128,-1,8
 146 1502 146 1502 146 1426 c 2,9,-1
 146 476 l 2,10,11
 146 400 146 400 200 346 c 128,-1,12
 254 292 254 292 330 292 c 2,13,-1
 1280 292 l 2,14,15
 1356 292 1356 292 1409 346 c 128,-1,16
 1462 400 1462 400 1462 476 c 2,17,-1
 1462 766 l 2,18,19
 1462 782 1462 782 1474 790 c 2,20,-1
 1546 864 l 2,21,22
 1558 876 1558 876 1567 876 c 0,23,24
 1590 876 1590 876 1600 863 c 128,-1,25
 1610 850 1610 850 1610 838 c 2,26,-1
 1610 476 l 2,27,28
 1610 340 1610 340 1513 243 c 128,-1,29
 1416 146 1416 146 1280 146 c 2,30,-1
 330 146 l 2,31,32
 192 146 192 146 96 243 c 128,-1,33
 0 340 0 340 0 476 c 2,34,-1
 0 1426 l 2,35,36
 0 1562 0 1562 96 1659 c 128,-1,37
 192 1756 192 1756 330 1756 c 2,38,-1
 1280 1756 l 2,39,40
 1354 1756 1354 1756 1414 1726 c 0,41,42
 1430 1722 1430 1722 1433 1707 c 0,43,44
 1438 1682 1438 1682 1424 1668 c 2,45,-1
 1368 1612 l 2,0,1
294 1024 m 128,-1,47
 294 1062 294 1062 322 1090 c 2,48,-1
 446 1214 l 2,49,50
 474 1242 474 1242 512 1242 c 128,-1,51
 550 1242 550 1242 578 1214 c 2,52,-1
 878 914 l 1,53,-1
 1618 1654 l 2,54,55
 1644 1682 1644 1682 1682 1682 c 128,-1,56
 1720 1682 1720 1682 1748 1654 c 2,57,-1
 1874 1528 l 2,58,59
 1900 1500 1900 1500 1900 1463 c 128,-1,60
 1900 1426 1900 1426 1874 1398 c 2,61,-1
 942 468 l 2,62,63
 916 440 916 440 878 440 c 128,-1,64
 840 440 840 440 812 468 c 2,65,-1
 322 958 l 2,66,46
 294 986 294 986 294 1024 c 128,-1,47
EndSplineSet
Validated: 1
EndChar

StartChar: uniE141
Encoding: 57665 57665 80
Width: 1910
GlyphClass: 2
Flags: W
LayerCount: 3
Fore
SplineSet
1368 1612 m 2,0,1
 1356 1600 1356 1600 1349 1600 c 128,-1,2
 1342 1600 1342 1600 1330 1603 c 0,3,4
 1302 1610 1302 1610 1280 1610 c 2,5,-1
 330 1610 l 2,6,7
 254 1610 254 1610 200 1556 c 128,-1,8
 146 1502 146 1502 146 1426 c 2,9,-1
 146 476 l 2,10,11
 146 400 146 400 200 346 c 128,-1,12
 254 292 254 292 330 292 c 2,13,-1
 1280 292 l 2,14,15
 1356 292 1356 292 1409 346 c 128,-1,16
 1462 400 1462 400 1462 476 c 2,17,-1
 1462 766 l 2,18,19
 1462 782 1462 782 1474 790 c 2,20,-1
 1546 864 l 2,21,22
 1558 876 1558 876 1567 876 c 0,23,24
 1590 876 1590 876 1600 863 c 128,-1,25
 1610 850 1610 850 1610 838 c 2,26,-1
 1610 476 l 2,27,28
 1610 340 1610 340 1513 243 c 128,-1,29
 1416 146 1416 146 1280 146 c 2,30,-1
 330 146 l 2,31,32
 192 146 192 146 96 243 c 128,-1,33
 0 340 0 340 0 476 c 2,34,-1
 0 1426 l 2,35,36
 0 1562 0 1562 96 1659 c 128,-1,37
 192 1756 192 1756 330 1756 c 2,38,-1
 1280 1756 l 2,39,40
 1354 1756 1354 1756 1414 1726 c 0,41,42
 1430 1722 1430 1722 1433 1707 c 0,43,44
 1438 1682 1438 1682 1424 1668 c 2,45,-1
 1368 1612 l 2,0,1
294 1024 m 128,-1,47
 294 1062 294 1062 322 1090 c 2,48,-1
 446 1214 l 2,49,50
 474 1242 474 1242 512 1242 c 128,-1,51
 550 1242 550 1242 578 1214 c 2,52,-1
 878 914 l 1,53,-1
 1618 1654 l 2,54,55
 1644 1682 1644 1682 1682 1682 c 128,-1,56
 1720 1682 1720 1682 1748 1654 c 2,57,-1
 1874 1528 l 2,58,59
 1900 1500 1900 1500 1900 1463 c 128,-1,60
 1900 1426 1900 1426 1874 1398 c 2,61,-1
 942 468 l 2,62,63
 916 440 916 440 878 440 c 128,-1,64
 840 440 840 440 812 468 c 2,65,-1
 322 958 l 2,66,46
 294 986 294 986 294 1024 c 128,-1,47
EndSplineSet
Validated: 1
EndChar

StartChar: uniE142
Encoding: 57666 57666 81
Width: 1756
GlyphClass: 2
Flags: W
LayerCount: 3
Fore
SplineSet
0 878 m 256,0,1
 0 1060 0 1060 68 1220 c 0,2,3
 212 1548 212 1548 536 1686 c 0,4,5
 696 1756 696 1756 878 1756 c 256,6,7
 1060 1756 1060 1756 1220 1687 c 0,8,9
 1548 1546 1548 1546 1686 1220 c 0,10,11
 1756 1060 1756 1060 1756 878 c 256,12,13
 1756 696 1756 696 1687 536 c 0,14,15
 1546 208 1546 208 1220 70 c 0,16,17
 1060 0 1060 0 878 0 c 256,18,19
 696 0 696 0 536 69 c 0,20,21
 211 209 211 209 68 536 c 0,22,23
 0 696 0 696 0 878 c 256,0,1
256 878 m 256,24,25
 256 750 256 750 305 636 c 0,26,27
 404 406 404 406 636 304 c 0,28,29
 750 256 750 256 878 256 c 0,30,31
 1133 256 1133 256 1317 438 c 0,32,33
 1402 522 1402 522 1450 636 c 0,34,35
 1500 750 1500 750 1500 878 c 0,36,37
 1500 1134 1500 1134 1317 1317 c 128,-1,38
 1134 1500 1134 1500 878 1500 c 0,39,40
 750 1500 750 1500 636 1451 c 0,41,42
 408 1353 408 1353 304 1120 c 0,43,44
 256 1006 256 1006 256 878 c 256,24,25
396 878 m 128,-1,46
 396 908 396 908 418 930 c 2,47,-1
 534 1046 l 2,48,49
 556 1068 556 1068 586 1068 c 128,-1,50
 616 1068 616 1068 636 1046 c 2,51,-1
 804 878 l 1,52,-1
 1118 1192 l 2,53,54
 1140 1214 1140 1214 1170 1214 c 128,-1,55
 1200 1214 1200 1214 1222 1192 c 2,56,-1
 1338 1076 l 2,57,58
 1360 1054 1360 1054 1360 1024 c 128,-1,59
 1360 994 1360 994 1338 972 c 2,60,-1
 856 490 l 2,61,62
 834 468 834 468 804 468 c 128,-1,63
 774 468 774 468 754 490 c 2,64,-1
 418 826 l 2,65,45
 396 848 396 848 396 878 c 128,-1,46
EndSplineSet
Validated: 1
EndChar

StartChar: uniE143
Encoding: 57667 57667 82
Width: 1756
GlyphClass: 2
Flags: W
LayerCount: 3
Fore
SplineSet
0 878 m 256,0,1
 0 1060 0 1060 68 1220 c 0,2,3
 212 1548 212 1548 536 1686 c 0,4,5
 696 1756 696 1756 878 1756 c 256,6,7
 1060 1756 1060 1756 1220 1687 c 0,8,9
 1548 1546 1548 1546 1686 1220 c 0,10,11
 1756 1060 1756 1060 1756 878 c 256,12,13
 1756 696 1756 696 1687 536 c 0,14,15
 1546 208 1546 208 1220 70 c 0,16,17
 1060 0 1060 0 878 0 c 256,18,19
 696 0 696 0 536 69 c 0,20,21
 211 209 211 209 68 536 c 0,22,23
 0 696 0 696 0 878 c 256,0,1
288 856 m 256,24,25
 288 824 288 824 308 804 c 2,26,-1
 722 390 l 2,27,28
 742 370 742 370 774 370 c 256,29,30
 806 370 806 370 826 390 c 2,31,-1
 1446 1012 l 2,32,33
 1468 1030 1468 1030 1468 1054 c 0,34,35
 1468 1098 1468 1098 1446 1116 c 2,36,-1
 1342 1218 l 2,37,38
 1320 1240 1320 1240 1298 1240 c 0,39,40
 1262 1240 1262 1240 1240 1218 c 2,41,-1
 774 754 l 1,42,-1
 516 1012 l 2,43,44
 494 1034 494 1034 464 1034 c 256,45,46
 434 1034 434 1034 412 1012 c 2,47,-1
 308 908 l 2,48,49
 288 888 288 888 288 856 c 256,24,25
EndSplineSet
Validated: 1
EndChar

StartChar: uniE144
Encoding: 57668 57668 83
Width: 1756
GlyphClass: 2
Flags: W
LayerCount: 3
Fore
SplineSet
0 330 m 2,0,-1
 0 1426 l 2,1,2
 0 1562 0 1562 96 1659 c 128,-1,3
 192 1756 192 1756 330 1756 c 2,4,-1
 1426 1756 l 2,5,6
 1562 1756 1562 1756 1659 1659 c 128,-1,7
 1756 1562 1756 1562 1756 1426 c 2,8,-1
 1756 330 l 2,9,10
 1756 192 1756 192 1659 96 c 128,-1,11
 1562 0 1562 0 1426 0 c 2,12,-1
 330 0 l 2,13,14
 192 0 192 0 96 96 c 128,-1,15
 0 192 0 192 0 330 c 2,0,-1
250 878 m 128,-1,17
 250 848 250 848 270 826 c 2,18,-1
 680 418 l 2,19,20
 702 396 702 396 732 396 c 128,-1,21
 762 396 762 396 782 418 c 2,22,-1
 1484 1118 l 2,23,24
 1506 1140 1506 1140 1506 1170 c 128,-1,25
 1506 1200 1506 1200 1484 1222 c 2,26,-1
 1368 1338 l 2,27,28
 1346 1360 1346 1360 1316 1360 c 128,-1,29
 1286 1360 1286 1360 1266 1338 c 2,30,-1
 732 804 l 1,31,-1
 490 1046 l 2,32,33
 468 1068 468 1068 438 1068 c 128,-1,34
 408 1068 408 1068 388 1046 c 2,35,-1
 270 930 l 2,36,16
 250 908 250 908 250 878 c 128,-1,17
EndSplineSet
Validated: 1
EndChar

StartChar: uniE153
Encoding: 57683 57683 84
Width: 2048
GlyphClass: 2
Flags: W
LayerCount: 3
Fore
SplineSet
380 1018 m 1,0,1
 404 1024 404 1024 473 1024 c 128,-1,2
 542 1024 542 1024 624 989 c 0,3,4
 793 917 793 917 862 750 c 0,5,6
 898 668 898 668 898 576 c 0,7,8
 898 390 898 390 767 259 c 128,-1,9
 636 128 636 128 450 128 c 256,10,11
 264 128 264 128 133 259 c 0,12,13
 72 320 72 320 38 402 c 0,14,15
 2 484 2 484 2 576 c 2,16,-1
 0 640 l 1,17,18
 0 826 0 826 70 989 c 128,-1,19
 140 1152 140 1152 262 1274 c 128,-1,20
 384 1396 384 1396 547 1466 c 128,-1,21
 710 1536 710 1536 896 1536 c 1,22,-1
 896 1280 l 1,23,24
 628 1280 628 1280 444 1092 c 0,25,26
 412 1063 412 1063 380 1018 c 1,0,1
1532 1018 m 1,27,28
 1556 1024 1556 1024 1625 1024 c 128,-1,29
 1694 1024 1694 1024 1776 989 c 0,30,31
 1945 917 1945 917 2014 750 c 0,32,33
 2050 668 2050 668 2050 576 c 0,34,35
 2050 390 2050 390 1919 259 c 128,-1,36
 1788 128 1788 128 1602 128 c 256,37,38
 1416 128 1416 128 1285 259 c 0,39,40
 1224 320 1224 320 1190 402 c 0,41,42
 1154 484 1154 484 1154 576 c 2,43,-1
 1152 640 l 1,44,45
 1152 826 1152 826 1222 989 c 128,-1,46
 1292 1152 1292 1152 1414 1274 c 128,-1,47
 1536 1396 1536 1396 1699 1466 c 128,-1,48
 1862 1536 1862 1536 2048 1536 c 1,49,-1
 2048 1280 l 1,50,51
 1780 1280 1780 1280 1596 1092 c 0,52,53
 1564 1063 1564 1063 1532 1018 c 1,27,28
EndSplineSet
Validated: 1
EndChar

StartChar: uniE154
Encoding: 57684 57684 85
Width: 2048
GlyphClass: 2
Flags: W
LayerCount: 3
Fore
SplineSet
518 646 m 1,0,1
 494 640 494 640 425 640 c 128,-1,2
 356 640 356 640 274 675 c 0,3,4
 105 747 105 747 36 914 c 0,5,6
 0 996 0 996 0 1088 c 256,7,8
 0 1180 0 1180 36 1262 c 0,9,10
 106 1430 106 1430 274 1500 c 0,11,12
 356 1536 356 1536 448 1536 c 0,13,14
 634 1536 634 1536 765 1405 c 128,-1,15
 896 1274 896 1274 896 1088 c 1,16,-1
 898 1024 l 1,17,18
 898 838 898 838 828 675 c 128,-1,19
 758 512 758 512 636 390 c 128,-1,20
 514 268 514 268 351 198 c 128,-1,21
 188 128 188 128 2 128 c 1,22,-1
 2 384 l 1,23,24
 270 384 270 384 454 572 c 0,25,26
 486 601 486 601 518 646 c 1,0,1
1670 646 m 1,27,28
 1646 640 1646 640 1577 640 c 128,-1,29
 1508 640 1508 640 1426 675 c 0,30,31
 1257 747 1257 747 1188 914 c 0,32,33
 1152 996 1152 996 1152 1088 c 256,34,35
 1152 1180 1152 1180 1188 1262 c 0,36,37
 1258 1430 1258 1430 1426 1500 c 0,38,39
 1508 1536 1508 1536 1600 1536 c 0,40,41
 1786 1536 1786 1536 1917 1405 c 128,-1,42
 2048 1274 2048 1274 2048 1088 c 1,43,-1
 2050 1024 l 1,44,45
 2050 838 2050 838 1980 675 c 128,-1,46
 1910 512 1910 512 1788 390 c 128,-1,47
 1666 268 1666 268 1503 198 c 128,-1,48
 1340 128 1340 128 1154 128 c 1,49,-1
 1154 384 l 1,50,51
 1422 384 1422 384 1606 572 c 0,52,53
 1638 601 1638 601 1670 646 c 1,27,28
EndSplineSet
Validated: 1
EndChar

StartChar: uniE155
Encoding: 57685 57685 86
Width: 1902
GlyphClass: 2
Flags: W
LayerCount: 3
Fore
SplineSet
0 366 m 2,0,-1
 0 1170 l 2,1,2
 0 1412 0 1412 172 1584 c 128,-1,3
 344 1756 344 1756 586 1756 c 2,4,-1
 658 1756 l 2,5,6
 688 1756 688 1756 710 1734 c 128,-1,7
 732 1712 732 1712 732 1682 c 2,8,-1
 732 1536 l 2,9,10
 732 1506 732 1506 710 1484 c 128,-1,11
 688 1462 688 1462 658 1462 c 2,12,-1
 586 1462 l 2,13,14
 464 1462 464 1462 378 1377 c 128,-1,15
 292 1292 292 1292 292 1170 c 2,16,-1
 292 1134 l 2,17,18
 292 1088 292 1088 324 1056 c 128,-1,19
 356 1024 356 1024 402 1024 c 2,20,-1
 658 1024 l 2,21,22
 750 1024 750 1024 814 960 c 128,-1,23
 878 896 878 896 878 804 c 2,24,-1
 878 366 l 2,25,26
 878 274 878 274 814 210 c 128,-1,27
 750 146 750 146 658 146 c 2,28,-1
 220 146 l 2,29,30
 128 146 128 146 64 210 c 128,-1,31
 0 274 0 274 0 366 c 2,0,-1
1024 366 m 2,32,-1
 1024 1170 l 2,33,34
 1024 1412 1024 1412 1196 1584 c 128,-1,35
 1368 1756 1368 1756 1610 1756 c 2,36,-1
 1682 1756 l 2,37,38
 1712 1756 1712 1756 1734 1734 c 128,-1,39
 1756 1712 1756 1712 1756 1682 c 2,40,-1
 1756 1536 l 2,41,42
 1756 1506 1756 1506 1734 1484 c 128,-1,43
 1712 1462 1712 1462 1682 1462 c 2,44,-1
 1610 1462 l 2,45,46
 1488 1462 1488 1462 1402 1377 c 128,-1,47
 1316 1292 1316 1292 1316 1170 c 2,48,-1
 1316 1134 l 2,49,50
 1316 1088 1316 1088 1348 1056 c 128,-1,51
 1380 1024 1380 1024 1426 1024 c 2,52,-1
 1682 1024 l 2,53,54
 1774 1024 1774 1024 1838 960 c 128,-1,55
 1902 896 1902 896 1902 804 c 2,56,-1
 1902 366 l 2,57,58
 1902 274 1902 274 1838 210 c 128,-1,59
 1774 146 1774 146 1682 146 c 2,60,-1
 1244 146 l 2,61,62
 1152 146 1152 146 1088 210 c 128,-1,63
 1024 274 1024 274 1024 366 c 2,32,-1
EndSplineSet
Validated: 1
EndChar

StartChar: uniE156
Encoding: 57686 57686 87
Width: 1902
GlyphClass: 2
Flags: W
LayerCount: 3
Fore
SplineSet
0 1098 m 2,0,-1
 0 1536 l 2,1,2
 0 1626 0 1626 64 1691 c 128,-1,3
 128 1756 128 1756 220 1756 c 2,4,-1
 658 1756 l 2,5,6
 750 1756 750 1756 814 1691 c 128,-1,7
 878 1626 878 1626 878 1536 c 2,8,-1
 878 732 l 2,9,10
 878 490 878 490 706 318 c 128,-1,11
 534 146 534 146 292 146 c 2,12,-1
 220 146 l 2,13,14
 190 146 190 146 168 168 c 128,-1,15
 146 190 146 190 146 220 c 2,16,-1
 146 366 l 2,17,18
 146 396 146 396 168 417 c 128,-1,19
 190 438 190 438 220 438 c 2,20,-1
 292 438 l 2,21,22
 414 438 414 438 500 524 c 128,-1,23
 586 610 586 610 586 732 c 2,24,-1
 586 768 l 2,25,26
 586 814 586 814 553 846 c 128,-1,27
 520 878 520 878 476 878 c 2,28,-1
 220 878 l 2,29,30
 128 878 128 878 64 942 c 128,-1,31
 0 1006 0 1006 0 1098 c 2,0,-1
1024 1098 m 2,32,-1
 1024 1536 l 2,33,34
 1024 1626 1024 1626 1088 1691 c 128,-1,35
 1152 1756 1152 1756 1244 1756 c 2,36,-1
 1682 1756 l 2,37,38
 1774 1756 1774 1756 1838 1691 c 128,-1,39
 1902 1626 1902 1626 1902 1536 c 2,40,-1
 1902 732 l 2,41,42
 1902 490 1902 490 1730 318 c 128,-1,43
 1558 146 1558 146 1316 146 c 2,44,-1
 1244 146 l 2,45,46
 1214 146 1214 146 1192 168 c 128,-1,47
 1170 190 1170 190 1170 220 c 2,48,-1
 1170 366 l 2,49,50
 1170 396 1170 396 1192 417 c 128,-1,51
 1214 438 1214 438 1244 438 c 2,52,-1
 1316 438 l 2,53,54
 1438 438 1438 438 1524 524 c 128,-1,55
 1610 610 1610 610 1610 732 c 2,56,-1
 1610 768 l 2,57,58
 1610 814 1610 814 1577 846 c 128,-1,59
 1544 878 1544 878 1500 878 c 2,60,-1
 1244 878 l 2,61,62
 1152 878 1152 878 1088 942 c 128,-1,63
 1024 1006 1024 1006 1024 1098 c 2,32,-1
EndSplineSet
Validated: 1
EndChar

StartChar: uniE15F
Encoding: 57695 57695 88
Width: 2340
GlyphClass: 2
Flags: W
LayerCount: 3
Fore
SplineSet
446 204 m 0,0,1
 176 323 176 323 58 593 c 0,2,3
 0 726 0 726 0 877 c 128,-1,4
 0 1028 0 1028 58 1162 c 0,5,6
 175 1433 175 1433 446 1552 c 0,7,8
 580 1610 580 1610 732 1610 c 2,9,-1
 1610 1610 l 2,10,11
 1760 1610 1760 1610 1893 1552 c 0,12,13
 2167 1433 2167 1433 2284 1162 c 0,14,15
 2340 1028 2340 1028 2340 877 c 128,-1,16
 2340 726 2340 726 2283 593 c 0,17,18
 2168 324 2168 324 1894 204 c 0,19,20
 1760 146 1760 146 1610 146 c 2,21,-1
 732 146 l 2,22,23
 580 146 580 146 446 204 c 0,0,1
504 1416 m 0,24,25
 285 1321 285 1321 192 1105 c 0,26,27
 146 998 146 998 146 877 c 0,28,29
 146 636 146 636 318 464 c 128,-1,30
 490 292 490 292 732 292 c 0,31,32
 852 292 852 292 959 338 c 0,33,34
 1175 431 1175 431 1270 650 c 0,35,36
 1316 756 1316 756 1316 877 c 128,-1,37
 1316 998 1316 998 1270 1105 c 0,38,39
 1176 1323 1176 1323 958 1416 c 0,40,41
 852 1462 852 1462 731 1462 c 128,-1,42
 610 1462 610 1462 504 1416 c 0,24,25
1168 292 m 1,43,-1
 1610 292 l 2,44,45
 1730 292 1730 292 1837 338 c 0,46,47
 2053 431 2053 431 2148 650 c 0,48,49
 2194 756 2194 756 2194 877 c 128,-1,50
 2194 998 2194 998 2148 1105 c 0,51,52
 2054 1323 2054 1323 1836 1416 c 0,53,54
 1730 1462 1730 1462 1610 1462 c 2,55,-1
 1168 1462 l 1,56,57
 1374 1306 1374 1306 1442 1052 c 0,58,59
 1462 968 1462 968 1462 878 c 0,60,61
 1462 610 1462 610 1290 406 c 0,62,63
 1234 342 1234 342 1168 292 c 1,43,-1
EndSplineSet
Validated: 1
EndChar

StartChar: uniE160
Encoding: 57696 57696 89
Width: 2340
GlyphClass: 2
Flags: W
LayerCount: 3
Fore
SplineSet
446 204 m 0,0,1
 176 323 176 323 58 593 c 0,2,3
 0 726 0 726 0 877 c 128,-1,4
 0 1028 0 1028 58 1162 c 0,5,6
 175 1433 175 1433 446 1552 c 0,7,8
 580 1610 580 1610 732 1610 c 2,9,-1
 1610 1610 l 2,10,11
 1760 1610 1760 1610 1893 1552 c 0,12,13
 2167 1433 2167 1433 2284 1162 c 0,14,15
 2340 1028 2340 1028 2340 877 c 128,-1,16
 2340 726 2340 726 2283 593 c 0,17,18
 2168 324 2168 324 1894 204 c 0,19,20
 1760 146 1760 146 1610 146 c 2,21,-1
 732 146 l 2,22,23
 580 146 580 146 446 204 c 0,0,1
1382 1416 m 0,24,25
 1163 1321 1163 1321 1070 1105 c 0,26,27
 1024 998 1024 998 1024 877 c 0,28,29
 1024 636 1024 636 1196 464 c 128,-1,30
 1368 292 1368 292 1610 292 c 0,31,32
 1730 292 1730 292 1837 338 c 0,33,34
 2053 431 2053 431 2148 650 c 0,35,36
 2194 756 2194 756 2194 877 c 128,-1,37
 2194 998 2194 998 2148 1105 c 0,38,39
 2054 1323 2054 1323 1836 1416 c 0,40,41
 1730 1462 1730 1462 1609 1462 c 128,-1,42
 1488 1462 1488 1462 1382 1416 c 0,24,25
EndSplineSet
Validated: 1
EndChar

StartChar: uniE16C
Encoding: 57708 57708 90
Width: 2194
GlyphClass: 2
Flags: W
LayerCount: 3
Fore
SplineSet
0 220 m 2,0,-1
 0 1536 l 2,1,2
 0 1566 0 1566 22 1588 c 128,-1,3
 44 1610 44 1610 74 1610 c 2,4,-1
 2122 1610 l 2,5,6
 2152 1610 2152 1610 2173 1588 c 128,-1,7
 2194 1566 2194 1566 2194 1536 c 2,8,-1
 2194 220 l 2,9,10
 2194 190 2194 190 2173 168 c 128,-1,11
 2152 146 2152 146 2122 146 c 2,12,-1
 74 146 l 2,13,14
 44 146 44 146 22 168 c 128,-1,15
 0 190 0 190 0 220 c 2,0,-1
146 586 m 1,16,17
 268 586 268 586 353 500 c 128,-1,18
 438 414 438 414 438 292 c 1,19,-1
 1756 292 l 1,20,21
 1756 414 1756 414 1842 500 c 128,-1,22
 1928 586 1928 586 2048 586 c 1,23,-1
 2048 1170 l 1,24,25
 1928 1170 1928 1170 1842 1256 c 128,-1,26
 1756 1342 1756 1342 1756 1462 c 1,27,-1
 438 1462 l 1,28,29
 438 1342 438 1342 353 1256 c 128,-1,30
 268 1170 268 1170 146 1170 c 1,31,-1
 146 586 l 1,16,17
732 878 m 256,32,33
 732 1054 732 1054 824 1194 c 0,34,35
 929 1354 929 1354 1098 1354 c 0,36,37
 1265 1354 1265 1354 1370 1194 c 0,38,39
 1462 1054 1462 1054 1462 878 c 256,40,41
 1462 702 1462 702 1370 562 c 0,42,43
 1265 402 1265 402 1098 402 c 0,44,45
 929 402 929 402 824 562 c 0,46,47
 732 702 732 702 732 878 c 256,32,33
958 958 m 1,48,49
 1004 996 1004 996 1022 1024 c 1,50,-1
 1024 1024 l 1,51,-1
 1024 694 l 1,52,-1
 878 694 l 1,53,-1
 878 586 l 1,54,-1
 1316 586 l 1,55,-1
 1316 694 l 1,56,-1
 1170 694 l 1,57,-1
 1170 1206 l 1,58,-1
 1040 1206 l 1,59,-1
 870 1050 l 1,60,-1
 958 958 l 1,48,49
EndSplineSet
Validated: 1
EndChar

StartChar: uniE17A
Encoding: 57722 57722 91
Width: 2048
GlyphClass: 2
Flags: W
LayerCount: 3
Fore
SplineSet
1340 -115 m 0,0,1
 1270 -113 1270 -113 1270 -44 c 0,2,3
 1270 -31 1270 -31 1269 128 c 1,4,5
 1355 138 1355 138 1364 150.5 c 128,-1,6
 1373 163 1373 163 1373 167.5 c 128,-1,7
 1373 172 1373 172 1372.5 188.5 c 128,-1,8
 1372 205 1372 205 1369.5 216 c 128,-1,9
 1367 227 1367 227 1360.5 261 c 128,-1,10
 1354 295 1354 295 1340 369 c 0,11,12
 1324 450 1324 450 1304.5 544 c 128,-1,13
 1285 638 1285 638 1285 654 c 0,14,15
 1285 702 1285 702 1324 738 c 0,16,17
 1411 817 1411 817 1502 915 c 0,18,19
 1542 958 1542 958 1541.5 1011.5 c 128,-1,20
 1541 1065 1541 1065 1504 1104 c 0,21,22
 1461 1150 1461 1150 1410 1150 c 128,-1,23
 1359 1150 1359 1150 1316 1122 c 0,24,25
 1314 1121 1314 1121 1274 1089 c 1,26,27
 1253 1209 1253 1209 1147 1283 c 1,28,29
 1219 1375 1219 1375 1318 1377 c 0,30,31
 1365 1378 1365 1378 1644 1378 c 0,32,33
 1733 1378 1733 1378 1801 1311 c 0,34,35
 1936 1180 1936 1180 2008 1106 c 0,36,37
 2048 1065 2048 1065 2048 1024 c 128,-1,38
 2048 983 2048 983 2018.5 955 c 128,-1,39
 1989 927 1989 927 1954 928 c 2,40,41
 1954 928 1954 928 1929 930 c 128,-1,42
 1904 932 1904 932 1882 952 c 128,-1,43
 1860 972 1860 972 1747 1079 c 0,44,45
 1744 1077 1744 1077 1732 1071 c 1,46,47
 1756 917 1756 917 1776 816.5 c 128,-1,48
 1796 716 1796 716 1814 623 c 128,-1,49
 1832 530 1832 530 1838 500.5 c 128,-1,50
 1844 471 1844 471 1845.5 457 c 128,-1,51
 1847 443 1847 443 1849 430 c 128,-1,52
 1851 417 1851 417 1842.5 406.5 c 128,-1,53
 1834 396 1834 396 1823 397 c 128,-1,54
 1812 398 1812 398 1795 397 c 0,55,56
 1750 402 1750 402 1736 387.5 c 128,-1,57
 1722 373 1722 373 1722 348 c 128,-1,58
 1722 323 1722 323 1723.5 207 c 128,-1,59
 1725 91 1725 91 1725 45.5 c 128,-1,60
 1725 0 1725 0 1720 -35.5 c 128,-1,61
 1715 -71 1715 -71 1689.5 -93.5 c 128,-1,62
 1664 -116 1664 -116 1627 -115 c 2,63,64
 1627 -115 1627 -115 1625 -115 c 0,65,66
 1584 -114 1584 -114 1558 -88.5 c 128,-1,67
 1532 -63 1532 -63 1531 -18 c 0,68,69
 1529 74 1529 74 1529 117 c 2,70,71
 1529 117 1529 117 1529 207 c 128,-1,72
 1529 297 1529 297 1530 317 c 0,73,74
 1531 383 1531 383 1487 395 c 0,75,76
 1468 399 1468 399 1456.5 388.5 c 128,-1,77
 1445 378 1445 378 1445 357 c 0,78,79
 1444 74 1444 74 1444 28.5 c 128,-1,80
 1444 -17 1444 -17 1436.5 -47 c 128,-1,81
 1429 -77 1429 -77 1403.5 -96 c 128,-1,82
 1378 -115 1378 -115 1360 -115 c 2,83,84
 1360 -115 1360 -115 1340 -115 c 0,0,1
902 1284 m 1,85,86
 793 1207 793 1207 775 1089 c 1,87,88
 768 1094 768 1094 756 1104 c 0,89,90
 734 1121 734 1121 708 1136 c 0,91,92
 673 1157 673 1157 622.5 1148 c 128,-1,93
 572 1139 572 1139 539 1100 c 128,-1,94
 506 1061 506 1061 506 1010.5 c 128,-1,95
 506 960 506 960 541 922 c 0,96,97
 637 816 637 816 718 745 c 0,98,99
 750 717 750 717 756 692 c 0,100,101
 767 648 767 648 758 613 c 0,102,103
 663 169 663 169 676 150 c 0,104,105
 684 140 684 140 721 136 c 128,-1,106
 758 132 758 132 768 120 c 128,-1,107
 778 108 778 108 777 78 c 0,108,109
 774 -2 774 -2 777 -34 c 0,110,111
 782 -98 782 -98 734 -112 c 0,112,113
 706 -121 706 -121 674 -112 c 128,-1,114
 642 -103 642 -103 630 -79 c 0,115,116
 606 -31 606 -31 605 25 c 128,-1,117
 604 81 604 81 603.5 306.5 c 128,-1,118
 603 532 603 532 602 547 c 0,119,120
 599 589 599 589 564 589 c 2,121,122
 564 589 564 589 562 589 c 0,123,124
 526 588 526 588 524 544 c 0,125,126
 522 506 522 506 522 45 c 0,127,128
 522 -12 522 -12 513 -46 c 128,-1,129
 504 -80 504 -80 478 -97.5 c 128,-1,130
 452 -115 452 -115 436 -115 c 2,131,132
 436 -115 436 -115 407.5 -113.5 c 128,-1,133
 379 -112 379 -112 357 -91.5 c 128,-1,134
 335 -71 335 -71 330 -42 c 128,-1,135
 325 -13 325 -13 325 96 c 2,136,137
 325 96 325 96 325 543.5 c 128,-1,138
 325 991 325 991 321 1095 c 1,139,140
 308 1083 308 1083 279 1056 c 128,-1,141
 250 1029 250 1029 239.5 1019.5 c 128,-1,142
 229 1010 229 1010 212 994 c 0,143,144
 180 961 180 961 156 944.5 c 128,-1,145
 132 928 132 928 114 928 c 2,146,147
 114 928 114 928 82 930 c 128,-1,148
 50 932 50 932 25 959.5 c 128,-1,149
 0 987 0 987 0 1022 c 128,-1,150
 0 1057 0 1057 14 1075 c 0,151,152
 33 1101 33 1101 240 1306 c 0,153,154
 313 1379 313 1379 415 1378 c 2,155,156
 415 1378 415 1378 456 1377.5 c 128,-1,157
 497 1377 497 1377 568 1377 c 128,-1,158
 639 1377 639 1377 673 1377.5 c 128,-1,159
 707 1378 707 1378 710 1378 c 0,160,161
 822 1379 822 1379 902 1284 c 1,85,86
753 211 m 1,162,163
 753 211 753 211 840 667 c 1,164,165
 840 728 840 728 782 776 c 0,166,167
 744 807 744 807 693 860 c 128,-1,168
 642 913 642 913 621.5 933.5 c 128,-1,169
 601 954 601 954 589 971 c 128,-1,170
 577 988 577 988 579 1017.5 c 128,-1,171
 581 1047 581 1047 602 1063.5 c 128,-1,172
 623 1080 623 1080 646.5 1080 c 128,-1,173
 670 1080 670 1080 687 1068 c 128,-1,174
 704 1056 704 1056 729.5 1032 c 128,-1,175
 755 1008 755 1008 786 977 c 0,176,177
 849 912 849 912 901 864.5 c 128,-1,178
 953 817 953 817 1022 816 c 2,179,180
 1022 816 1022 816 1024 816 c 0,181,182
 1092 816 1092 816 1154 871 c 0,183,184
 1188 902 1188 902 1237 951 c 2,185,186
 1237 951 1237 951 1288 1001.5 c 128,-1,187
 1339 1052 1339 1052 1358 1066 c 128,-1,188
 1377 1080 1377 1080 1404.5 1079 c 128,-1,189
 1432 1078 1432 1078 1450 1059.5 c 128,-1,190
 1468 1041 1468 1041 1468.5 1012 c 128,-1,191
 1469 983 1469 983 1456.5 967 c 128,-1,192
 1444 951 1444 951 1436 942.5 c 128,-1,193
 1428 934 1428 934 1415.5 922 c 128,-1,194
 1403 910 1403 910 1394 901 c 128,-1,195
 1385 892 1385 892 1352 858 c 0,196,197
 1300 804 1300 804 1259.5 767.5 c 128,-1,198
 1219 731 1219 731 1211.5 704.5 c 128,-1,199
 1204 678 1204 678 1214 632 c 128,-1,200
 1224 586 1224 586 1257 414 c 128,-1,201
 1290 242 1290 242 1294 213 c 1,202,203
 1222 197 1222 197 1210 182 c 0,204,205
 1197 166 1197 166 1197 -25 c 0,206,207
 1194 -114 1194 -114 1123 -115 c 0,208,209
 1053 -115 1053 -115 1050 -23 c 0,210,211
 1049 -20 1049 -20 1049.5 3.5 c 128,-1,212
 1050 27 1050 27 1050 70 c 2,213,214
 1050 70 1050 70 1050 96 c 128,-1,215
 1050 122 1050 122 1050 134 c 0,216,217
 1052 169 1052 169 1044 176 c 128,-1,218
 1036 183 1036 183 1028.5 189 c 128,-1,219
 1021 195 1021 195 1017 199 c 1,220,221
 1015 196 1015 196 1009 190 c 0,222,223
 995 174 995 174 995 170 c 0,224,225
 995 -25 995 -25 989.5 -55 c 128,-1,226
 984 -85 984 -85 962 -101.5 c 128,-1,227
 940 -118 940 -118 912 -114 c 0,228,229
 851 -105 851 -105 849 -48 c 0,230,231
 848 -23 848 -23 848 72 c 128,-1,232
 848 167 848 167 838.5 182.5 c 128,-1,233
 829 198 829 198 800.5 202.5 c 128,-1,234
 772 207 772 207 753 211 c 1,162,163
734.5 1499.5 m 128,-1,236
 668 1432 668 1432 565 1431 c 2,237,238
 565 1431 565 1431 563 1431 c 0,239,240
 464 1431 464 1431 393.5 1498.5 c 128,-1,241
 323 1566 323 1566 322 1664 c 2,242,243
 322 1664 322 1664 322 1668 c 0,244,245
 322 1766 322 1766 392 1837 c 0,246,247
 463 1908 463 1908 563 1908 c 2,248,249
 563 1908 563 1908 565 1908 c 0,250,251
 665 1907 665 1907 733 1838 c 128,-1,252
 801 1769 801 1769 801 1668 c 128,-1,235
 801 1567 801 1567 734.5 1499.5 c 128,-1,236
1489 1908 m 0,253,254
 1587 1906 1587 1906 1657 1835.5 c 128,-1,255
 1727 1765 1727 1765 1727 1667 c 128,-1,256
 1727 1569 1727 1569 1656.5 1500 c 128,-1,257
 1586 1431 1586 1431 1485 1431 c 128,-1,258
 1384 1431 1384 1431 1316 1497.5 c 128,-1,259
 1248 1564 1248 1564 1247.5 1667 c 128,-1,260
 1247 1770 1247 1770 1316 1839 c 128,-1,261
 1385 1908 1385 1908 1484 1908 c 2,262,263
 1484 1908 1484 1908 1489 1908 c 0,253,254
1028 1242 m 0,264,265
 1102 1240 1102 1240 1150.5 1190 c 128,-1,266
 1199 1140 1199 1140 1199 1065.5 c 128,-1,267
 1199 991 1199 991 1149.5 942.5 c 128,-1,268
 1100 894 1100 894 1023 894 c 128,-1,269
 946 894 946 894 897.5 943.5 c 128,-1,270
 849 993 849 993 849 1067 c 2,271,272
 849 1067 849 1067 849 1074 c 0,273,274
 851 1147 851 1147 901.5 1194 c 128,-1,275
 952 1241 952 1241 1023 1242 c 2,276,277
 1023 1242 1023 1242 1028 1242 c 0,264,265
EndSplineSet
Validated: 33
EndChar

StartChar: uniE189
Encoding: 57737 57737 92
Width: 1290
GlyphClass: 2
Flags: W
LayerCount: 3
Fore
SplineSet
153 821 m 128,-1,1
 74 916 74 916 37 1027 c 128,-1,2
 0 1138 0 1138 0 1263 c 128,-1,3
 0 1388 0 1388 54 1504 c 0,4,5
 157 1726 157 1726 366 1832 c 0,6,7
 503 1902 503 1902 634.5 1902 c 128,-1,8
 766 1902 766 1902 882 1863 c 128,-1,9
 998 1824 998 1824 1099 1733 c 128,-1,10
 1200 1642 1200 1642 1258 1516 c 256,11,12
 1316 1390 1316 1390 1316 1253 c 128,-1,13
 1316 1116 1316 1116 1271 1003 c 0,14,15
 1180 775 1180 775 962 660 c 0,16,17
 854 604 854 604 732 590 c 1,18,-1
 732 292 l 1,19,-1
 988 292 l 2,20,21
 1002 292 1002 292 1013 282 c 128,-1,22
 1024 272 1024 272 1024 256 c 2,23,-1
 1024 182 l 2,24,25
 1024 168 1024 168 1013 157 c 128,-1,26
 1002 146 1002 146 988 146 c 2,27,-1
 732 146 l 1,28,-1
 732 -110 l 2,29,30
 732 -126 732 -126 721 -136 c 128,-1,31
 710 -146 710 -146 694 -146 c 2,32,-1
 622 -146 l 2,33,34
 606 -146 606 -146 596 -136 c 128,-1,35
 586 -126 586 -126 586 -110 c 2,36,-1
 586 146 l 1,37,-1
 330 146 l 2,38,39
 314 146 314 146 303 157 c 128,-1,40
 292 168 292 168 292 182 c 2,41,-1
 292 256 l 2,42,43
 292 272 292 272 303 282 c 128,-1,44
 314 292 314 292 330 292 c 2,45,-1
 586 292 l 1,46,-1
 586 590 l 1,47,48
 456 604 456 604 344 665 c 128,-1,0
 232 726 232 726 153 821 c 128,-1,1
146 1244 m 0,49,50
 146 1138 146 1138 186 1045 c 0,51,52
 268 854 268 854 460 772 c 0,53,54
 552 732 552 732 658 732 c 0,55,56
 870 732 870 732 1020 882 c 128,-1,57
 1170 1032 1170 1032 1170 1244 c 0,58,59
 1170 1457 1170 1457 1020 1605 c 0,60,61
 867 1756 867 1756 658 1756 c 256,62,63
 449 1756 449 1756 296 1605 c 0,64,65
 146 1457 146 1457 146 1244 c 0,49,50
EndSplineSet
Validated: 1
EndChar

StartChar: uniE18A
Encoding: 57738 57738 93
Width: 1756
GlyphClass: 2
Flags: W
LayerCount: 3
Fore
SplineSet
1172 1068 m 1,0,1
 1316 890 1316 890 1316 658 c 0,2,3
 1316 522 1316 522 1265 402 c 0,4,5
 1162 159 1162 159 914 52 c 0,6,7
 794 0 794 0 658 0 c 256,8,9
 522 0 522 0 402 52 c 0,10,11
 158 158 158 158 52 402 c 0,12,13
 0 522 0 522 0 658 c 256,14,15
 0 794 0 794 52 914 c 0,16,17
 160 1163 160 1163 402 1264 c 0,18,19
 522 1316 522 1316 658 1316 c 0,20,21
 890 1316 890 1316 1068 1172 c 1,22,-1
 1506 1610 l 1,23,-1
 1206 1610 l 2,24,25
 1192 1610 1192 1610 1181 1620 c 128,-1,26
 1170 1630 1170 1630 1170 1646 c 2,27,-1
 1170 1718 l 2,28,29
 1170 1734 1170 1734 1181 1745 c 128,-1,30
 1192 1756 1192 1756 1206 1756 c 2,31,-1
 1682 1756 l 2,32,33
 1712 1756 1712 1756 1734 1734 c 128,-1,34
 1756 1712 1756 1712 1756 1682 c 2,35,-1
 1756 1206 l 2,36,37
 1756 1192 1756 1192 1745 1181 c 128,-1,38
 1734 1170 1734 1170 1718 1170 c 2,39,-1
 1646 1170 l 2,40,41
 1630 1170 1630 1170 1620 1181 c 128,-1,42
 1610 1192 1610 1192 1610 1206 c 2,43,-1
 1610 1506 l 1,44,-1
 1172 1068 l 1,0,1
146 658 m 256,45,46
 146 446 146 446 296 296 c 128,-1,47
 446 146 446 146 658 146 c 128,-1,48
 870 146 870 146 1020 296 c 128,-1,49
 1170 446 1170 446 1170 658 c 256,50,51
 1170 870 1170 870 1020 1020 c 128,-1,52
 870 1170 870 1170 658 1170 c 256,53,54
 446 1170 446 1170 296 1020 c 128,-1,55
 146 870 146 870 146 658 c 256,45,46
EndSplineSet
Validated: 1
EndChar

StartChar: uniE18B
Encoding: 57739 57739 94
Width: 1582
GlyphClass: 2
Flags: W
LayerCount: 3
Fore
SplineSet
1172 1362 m 1,0,1
 1316 1184 1316 1184 1316 950 c 0,2,3
 1316 697 1316 697 1147 511 c 0,4,5
 1068 424 1068 424 961 367 c 128,-1,6
 854 310 854 310 732 298 c 1,7,-1
 732 146 l 1,8,-1
 842 146 l 2,9,10
 856 146 856 146 867 136 c 128,-1,11
 878 126 878 126 878 110 c 2,12,-1
 878 36 l 2,13,14
 878 22 878 22 867 11 c 128,-1,15
 856 0 856 0 842 0 c 2,16,-1
 732 0 l 1,17,-1
 732 -110 l 2,18,19
 732 -126 732 -126 721 -136 c 128,-1,20
 710 -146 710 -146 694 -146 c 2,21,-1
 622 -146 l 2,22,23
 606 -146 606 -146 596 -136 c 128,-1,24
 586 -126 586 -126 586 -110 c 2,25,-1
 586 0 l 1,26,-1
 476 0 l 2,27,28
 460 0 460 0 449 11 c 128,-1,29
 438 22 438 22 438 36 c 2,30,-1
 438 110 l 2,31,32
 438 126 438 126 449 136 c 128,-1,33
 460 146 460 146 476 146 c 2,34,-1
 586 146 l 1,35,-1
 586 298 l 1,36,37
 325 326 325 326 154 529 c 0,38,39
 0 712 0 712 0 950 c 0,40,41
 0 1094 0 1094 60 1224 c 0,42,43
 157 1435 157 1435 364 1540 c 0,44,45
 499 1609 499 1609 663 1609 c 0,46,47
 888 1609 888 1609 1068 1466 c 1,48,-1
 1360 1756 l 1,49,-1
 1206 1756 l 2,50,51
 1192 1756 1192 1756 1181 1766 c 128,-1,52
 1170 1776 1170 1776 1170 1792 c 2,53,-1
 1170 1866 l 2,54,55
 1170 1880 1170 1880 1181 1891 c 128,-1,56
 1192 1902 1192 1902 1206 1902 c 2,57,-1
 1536 1902 l 2,58,59
 1566 1902 1566 1902 1588 1880 c 128,-1,60
 1610 1858 1610 1858 1610 1828 c 2,61,-1
 1610 1500 l 2,62,63
 1610 1484 1610 1484 1599 1473 c 128,-1,64
 1588 1462 1588 1462 1572 1462 c 2,65,-1
 1500 1462 l 2,66,67
 1484 1462 1484 1462 1473 1473 c 128,-1,68
 1462 1484 1462 1484 1462 1500 c 2,69,-1
 1462 1652 l 1,70,-1
 1172 1362 l 1,0,1
146 950 m 0,71,72
 146 737 146 737 296 589 c 0,73,74
 449 438 449 438 658 438 c 128,-1,75
 867 438 867 438 1020 589 c 0,76,77
 1170 737 1170 737 1170 950 c 0,78,79
 1170 1165 1170 1165 1020 1313 c 0,80,81
 869 1462 869 1462 658 1462 c 256,82,83
 447 1462 447 1462 296 1313 c 0,84,85
 146 1165 146 1165 146 950 c 0,71,72
EndSplineSet
Validated: 1
EndChar

StartChar: uniE194
Encoding: 57748 57748 95
Width: 2048
GlyphClass: 2
Flags: W
LayerCount: 3
Fore
SplineSet
2047 1288 m 2,0,1
 2047 1288 2047 1288 2047 290 c 0,2,3
 2047 196 2047 196 1996.5 146 c 128,-1,4
 1946 96 1946 96 1851 96 c 2,5,6
 1851 96 1851 96 212 96 c 0,7,8
 101 96 101 96 50.5 146 c 128,-1,9
 0 196 0 196 -1 308 c 2,10,11
 -1 308 -1 308 -1 1264 c 0,12,13
 -1 1381 -1 1381 50 1431.5 c 128,-1,14
 101 1482 101 1482 208 1483 c 0,15,16
 407 1485 407 1485 483.5 1483 c 128,-1,17
 560 1481 560 1481 579.5 1493.5 c 128,-1,18
 599 1506 599 1506 605.5 1528 c 128,-1,19
 612 1550 612 1550 623 1573 c 128,-1,20
 634 1596 634 1596 638 1606 c 0,21,22
 681 1720 681 1720 812 1720 c 2,23,24
 812 1720 812 1720 867 1719.5 c 128,-1,25
 922 1719 922 1719 1029 1719 c 128,-1,26
 1136 1719 1136 1719 1184 1719.5 c 128,-1,27
 1232 1720 1232 1720 1234 1720 c 0,28,29
 1375 1720 1375 1720 1408 1602 c 0,30,31
 1428 1529 1428 1529 1466.5 1503.5 c 128,-1,32
 1505 1478 1505 1478 1539 1478.5 c 128,-1,33
 1573 1479 1573 1479 1597 1482 c 128,-1,34
 1621 1485 1621 1485 1657.5 1486 c 128,-1,35
 1694 1487 1694 1487 1719 1486.5 c 128,-1,36
 1744 1486 1744 1486 1787 1484.5 c 128,-1,37
 1830 1483 1830 1483 1851 1483 c 0,38,39
 1946 1481 1946 1481 1996.5 1431 c 128,-1,40
 2047 1381 2047 1381 2047 1288 c 2,0,1
179 1297 m 128,-1,42
 162 1280 162 1280 162 1261.5 c 128,-1,43
 162 1243 162 1243 164 1221 c 128,-1,44
 166 1199 166 1199 172 1188 c 0,45,46
 183 1165 183 1165 263 1165 c 2,47,48
 263 1165 263 1165 281.5 1164.5 c 128,-1,49
 300 1164 300 1164 314 1166 c 0,50,51
 351 1170 351 1170 360.5 1191 c 128,-1,52
 370 1212 370 1212 370 1249 c 0,53,54
 370 1314 370 1314 295 1312 c 1,55,56
 295 1307 295 1307 245.5 1310.5 c 128,-1,41
 196 1314 196 1314 179 1297 c 128,-1,42
1020 236 m 2,57,58
 1020 236 1020 236 1024 236 c 0,59,60
 1133 236 1133 236 1234 279 c 0,61,62
 1439 366 1439 366 1530 572 c 0,63,64
 1575 675 1575 675 1574 787 c 0,65,66
 1574 899 1574 899 1531 1001 c 128,-1,67
 1488 1103 1488 1103 1414.5 1177 c 128,-1,68
 1341 1251 1341 1251 1239.5 1294.5 c 128,-1,69
 1138 1338 1138 1338 1026 1339 c 2,70,71
 1026 1339 1026 1339 1024 1339 c 0,72,73
 912 1339 912 1339 810 1296 c 0,74,75
 605 1209 605 1209 516 1005 c 0,76,77
 472 902 472 902 472 789.5 c 128,-1,78
 472 677 472 677 514.5 576 c 128,-1,79
 557 475 557 475 631 400.5 c 128,-1,80
 705 326 705 326 806.5 281.5 c 128,-1,81
 908 237 908 237 1020 236 c 2,57,58
1022 419 m 0,82,83
 921 419 921 419 836 468 c 128,-1,84
 751 517 751 517 702.5 601.5 c 128,-1,85
 654 686 654 686 654 786.5 c 128,-1,86
 654 887 654 887 704 972 c 128,-1,87
 754 1057 754 1057 839 1106.5 c 128,-1,88
 924 1156 924 1156 1023.5 1156 c 128,-1,89
 1123 1156 1123 1156 1208 1106.5 c 128,-1,90
 1293 1057 1293 1057 1342.5 971.5 c 128,-1,91
 1392 886 1392 886 1392 785.5 c 128,-1,92
 1392 685 1392 685 1342.5 600 c 128,-1,93
 1293 515 1293 515 1208.5 467 c 128,-1,94
 1124 419 1124 419 1023 419 c 2,95,96
 1023 419 1023 419 1022 419 c 0,82,83
EndSplineSet
Validated: 33
EndChar

StartChar: uniE195
Encoding: 57749 57749 96
Width: 2048
GlyphClass: 2
Flags: W
LayerCount: 3
Fore
SplineSet
399 1220 m 1,0,1
 494 1587 494 1587 505.5 1629.5 c 128,-1,2
 517 1672 517 1672 556 1673 c 0,3,4
 570 1673 570 1673 638 1655 c 0,5,6
 870 1593 870 1593 1321.5 1478 c 128,-1,7
 1773 1363 1773 1363 1981 1308 c 0,8,9
 2042 1292 2042 1292 2048 1249 c 0,10,11
 2051 1225 2051 1225 2018 1203 c 0,12,13
 2015 1201 2015 1201 1998 1188 c 0,14,15
 1900 1111 1900 1111 1651 929 c 0,16,17
 1618 904 1618 904 1590 911 c 0,18,19
 456 1197 456 1197 399 1220 c 1,0,1
0 830 m 1,20,21
 0 830 0 830 104 833 c 0,22,23
 159 833 159 833 184 789 c 0,24,25
 206 750 206 750 215 685 c 128,-1,26
 224 620 224 620 229 598 c 1,27,28
 368 598 368 598 402 599 c 0,29,30
 412 599 412 599 424 622 c 0,31,32
 477 721 477 721 584 721 c 2,33,34
 584 721 584 721 602 720.5 c 128,-1,35
 620 720 620 720 631 731 c 0,36,37
 654 756 654 756 771 887 c 1,38,39
 471 965 471 965 453 970 c 2,40,41
 453 970 453 970 427 976 c 0,42,43
 361 996 361 996 361 1055 c 0,44,45
 361 1071 361 1071 387 1167 c 1,46,47
 552 1123 552 1123 951 1021 c 128,-1,48
 1350 919 1350 919 1474 886.5 c 128,-1,49
 1598 854 1598 854 1621 854 c 128,-1,50
 1644 854 1644 854 1683.5 888.5 c 128,-1,51
 1723 923 1723 923 1795 958 c 1,52,53
 1789 935 1789 935 1774 878 c 0,54,55
 1747 771 1747 771 1723 703 c 0,56,57
 1713 675 1713 675 1685.5 666 c 128,-1,58
 1658 657 1658 657 1627 667 c 0,59,60
 1301 752 1301 752 1094 802 c 0,61,62
 1056 811 1056 811 1023 790 c 0,63,64
 917 714 917 714 782 604 c 0,65,66
 757 584 757 584 755 552 c 0,67,68
 747 435 747 435 652 392 c 0,69,70
 615 375 615 375 567.5 375 c 128,-1,71
 520 375 520 375 464 422 c 0,72,73
 443 440 443 440 409 441 c 128,-1,74
 375 442 375 442 331.5 442 c 128,-1,75
 288 442 288 442 264 440 c 0,76,77
 222 438 222 438 216 406 c 0,78,79
 213 401 213 401 213.5 362 c 128,-1,80
 214 323 214 323 214 318 c 0,81,82
 212 269 212 269 183.5 239 c 128,-1,83
 155 209 155 209 107 207 c 0,84,85
 101 207 101 207 0 206 c 1,86,-1
 0 830 l 1,20,21
1818 757 m 1,87,88
 1881 1000 1881 1000 1892 1043 c 1,89,90
 1964 1040 1964 1040 1974.5 1027 c 128,-1,91
 1985 1014 1985 1014 1985 994.5 c 128,-1,92
 1985 975 1985 975 1978 948.5 c 128,-1,93
 1971 922 1971 922 1959.5 875 c 128,-1,94
 1948 828 1948 828 1936.5 784.5 c 128,-1,95
 1925 741 1925 741 1904 732 c 0,96,97
 1900 730 1900 730 1884.5 730 c 128,-1,98
 1869 730 1869 730 1818 757 c 1,87,88
EndSplineSet
Validated: 33
EndChar

StartChar: uniE1A1
Encoding: 57761 57761 97
Width: 2048
GlyphClass: 2
Flags: W
LayerCount: 3
Fore
SplineSet
470 840 m 1,0,1
 566 693 566 693 567 690 c 0,2,3
 634 589 634 589 714 583 c 1,4,5
 714 583 714 583 722 583 c 0,6,7
 797 583 797 583 871 670 c 0,8,9
 899 703 899 703 934 713 c 0,10,11
 1027 741 1027 741 1061 781.5 c 128,-1,12
 1095 822 1095 822 1109 920 c 1,13,14
 1137 812 1137 812 1264 731 c 0,15,16
 1305 704 1305 704 1305 683.5 c 128,-1,17
 1305 663 1305 663 1259 632 c 0,18,19
 1249 625 1249 625 1217 603.5 c 128,-1,20
 1185 582 1185 582 1170 571.5 c 128,-1,21
 1155 561 1155 561 1130 543 c 0,22,23
 1065 496 1065 496 1048 474.5 c 128,-1,24
 1031 453 1031 453 1025 443.5 c 128,-1,25
 1019 434 1019 434 1015 427.5 c 128,-1,26
 1011 421 1011 421 1005.5 409 c 128,-1,27
 1000 397 1000 397 997.5 391 c 128,-1,28
 995 385 995 385 989.5 371 c 128,-1,29
 984 357 984 357 982.5 352.5 c 128,-1,30
 981 348 981 348 975.5 332.5 c 128,-1,31
 970 317 970 317 968 312 c 128,-1,32
 966 307 966 307 971 296 c 128,-1,33
 976 285 976 285 985.5 270 c 128,-1,34
 995 255 995 255 999 248 c 1,35,36
 1005 253 1005 253 1019 262 c 0,37,38
 1050 284 1050 284 1053 296 c 0,39,40
 1075 389 1075 389 1137 447 c 128,-1,41
 1199 505 1199 505 1268.5 536 c 128,-1,42
 1338 567 1338 567 1360 592 c 0,43,44
 1400 638 1400 638 1397 700 c 0,45,46
 1397 756 1397 756 1344.5 787 c 128,-1,47
 1292 818 1292 818 1251 851.5 c 128,-1,48
 1210 885 1210 885 1210.5 915.5 c 128,-1,49
 1211 946 1211 946 1220.5 966.5 c 128,-1,50
 1230 987 1230 987 1238 994 c 128,-1,51
 1246 1001 1246 1001 1256 1001 c 128,-1,52
 1266 1001 1266 1001 1273.5 999 c 128,-1,53
 1281 997 1281 997 1293 992.5 c 128,-1,54
 1305 988 1305 988 1329.5 981.5 c 128,-1,55
 1354 975 1354 975 1432.5 952 c 128,-1,56
 1511 929 1511 929 1531 924 c 0,57,58
 1622 898 1622 898 1624 794 c 2,59,60
 1624 794 1624 794 1624 783 c 0,61,62
 1624 623 1624 623 1545 459 c 0,63,64
 1512 391 1512 391 1449 264 c 128,-1,65
 1386 137 1386 137 1379.5 123 c 128,-1,66
 1373 109 1373 109 1367.5 99.5 c 128,-1,67
 1362 90 1362 90 1359 84 c 0,68,69
 1351 70 1351 70 1351 46.5 c 128,-1,70
 1351 23 1351 23 1341.5 -2 c 128,-1,71
 1332 -27 1332 -27 1318 -42.5 c 128,-1,72
 1304 -58 1304 -58 1280 -71 c 0,73,74
 1248 -89 1248 -89 1173 -108.5 c 128,-1,75
 1098 -128 1098 -128 981.5 -128 c 128,-1,76
 865 -128 865 -128 720 -68 c 0,77,78
 687 -54 687 -54 671 -36 c 0,79,80
 651 -12 651 -12 659 29 c 1,81,82
 659 70 659 70 615 178.5 c 128,-1,83
 571 287 571 287 542 337.5 c 128,-1,84
 513 388 513 388 500 421 c 128,-1,85
 487 454 487 454 480 491 c 0,86,87
 465 570 465 570 465 611.5 c 128,-1,88
 465 653 465 653 464.5 669 c 128,-1,89
 464 685 464 685 464 702 c 0,90,91
 467 778 467 778 470 840 c 1,0,1
1098 1461 m 2,92,93
 1098 1461 1098 1461 1099 1560 c 128,-1,94
 1100 1659 1100 1659 1100 1816 c 0,95,96
 1100 1897 1100 1897 1161 1915 c 0,97,98
 1210 1930 1210 1930 1243 1907 c 128,-1,99
 1276 1884 1276 1884 1282 1831 c 0,100,101
 1283 1823 1283 1823 1285 1596 c 0,102,103
 1288 1254 1288 1254 1288 1096 c 1,104,105
 1277 1099 1277 1099 1274 1100 c 0,106,107
 1262 1120 1262 1120 1236 1166 c 0,108,109
 1191 1243 1191 1243 1145 1310 c 128,-1,110
 1099 1377 1099 1377 1098 1461 c 2,92,93
1012 871 m 1,111,112
 1008 867 1008 867 997 854 c 0,113,114
 973 824 973 824 955.5 818.5 c 128,-1,115
 938 813 938 813 911 818 c 128,-1,116
 884 823 884 823 876 835 c 0,117,118
 752 1011 752 1011 653 1179 c 0,119,120
 645 1192 645 1192 652.5 1220 c 128,-1,121
 660 1248 660 1248 677 1268 c 128,-1,122
 694 1288 694 1288 722 1291 c 128,-1,123
 750 1294 750 1294 770 1269 c 0,124,125
 860 1137 860 1137 923 1036.5 c 128,-1,126
 986 936 986 936 995.5 921.5 c 128,-1,127
 1005 907 1005 907 1006.5 902.5 c 128,-1,128
 1008 898 1008 898 1009 888.5 c 128,-1,129
 1010 879 1010 879 1012 871 c 1,111,112
805 744 m 0,130,131
 802 740 802 740 792 726 c 0,132,133
 772 694 772 694 754 688.5 c 128,-1,134
 736 683 736 683 706 687.5 c 128,-1,135
 676 692 676 692 667 705 c 0,136,137
 577 831 577 831 447 1042 c 0,138,139
 413 1099 413 1099 473 1137 c 0,140,141
 497 1155 497 1155 525.5 1155 c 128,-1,142
 554 1155 554 1155 572 1129 c 0,143,144
 621 1058 621 1058 709.5 919.5 c 128,-1,145
 798 781 798 781 799 776.5 c 128,-1,146
 800 772 800 772 801.5 762 c 128,-1,147
 803 752 803 752 805 744 c 0,130,131
946 1420 m 0,148,149
 956 1420 956 1420 974.5 1402.5 c 128,-1,150
 993 1385 993 1385 1003.5 1368.5 c 128,-1,151
 1014 1352 1014 1352 1143 1154 c 0,152,153
 1165 1120 1165 1120 1165 1089.5 c 128,-1,154
 1165 1059 1165 1059 1136.5 1039 c 128,-1,155
 1108 1019 1108 1019 1077 1018.5 c 128,-1,156
 1046 1018 1046 1018 1010 1072 c 0,157,158
 909 1223 909 1223 879.5 1273 c 128,-1,159
 850 1323 850 1323 850 1343 c 128,-1,160
 850 1363 850 1363 870.5 1391.5 c 128,-1,161
 891 1420 891 1420 946 1420 c 0,148,149
EndSplineSet
Validated: 33
EndChar

StartChar: uniE1A2
Encoding: 57762 57762 98
Width: 2048
GlyphClass: 2
Flags: W
LayerCount: 3
Fore
SplineSet
452 665 m 2,0,1
 452 665 452 665 452 702.5 c 128,-1,2
 452 740 452 740 440 848 c 1,3,4
 445 848 445 848 456 850 c 1,5,6
 543 713 543 713 577 664 c 0,7,8
 637 578 637 578 717 576 c 2,9,10
 717 576 717 576 721 576 c 0,11,12
 798 576 798 576 860 657 c 0,13,14
 893 702 893 702 948 713 c 0,15,16
 1054 736 1054 736 1085 814 c 0,17,18
 1096 841 1096 841 1096 861.5 c 128,-1,19
 1096 882 1096 882 1093 909 c 128,-1,20
 1090 936 1090 936 1075 961 c 128,-1,21
 1060 986 1060 986 1036.5 1024 c 128,-1,22
 1013 1062 1013 1062 1004.5 1075.5 c 128,-1,23
 996 1089 996 1089 978 1118 c 0,24,25
 941 1175 941 1175 903 1223 c 128,-1,26
 865 1271 865 1271 828.5 1350 c 128,-1,27
 792 1429 792 1429 773.5 1488.5 c 128,-1,28
 755 1548 755 1548 728 1645.5 c 128,-1,29
 701 1743 701 1743 689 1780 c 0,30,31
 668 1843 668 1843 684.5 1871.5 c 128,-1,32
 701 1900 701 1900 734.5 1909.5 c 128,-1,33
 768 1919 768 1919 788 1919 c 128,-1,34
 808 1919 808 1919 830 1905.5 c 128,-1,35
 852 1892 852 1892 878 1810 c 128,-1,36
 904 1728 904 1728 968 1518 c 128,-1,37
 1032 1308 1032 1308 1049 1255 c 128,-1,38
 1066 1202 1066 1202 1069 1185.5 c 128,-1,39
 1072 1169 1072 1169 1075 1158 c 128,-1,40
 1078 1147 1078 1147 1083.5 1135 c 128,-1,41
 1089 1123 1089 1123 1099.5 1116.5 c 128,-1,42
 1110 1110 1110 1110 1126 1110 c 128,-1,43
 1142 1110 1142 1110 1153 1116.5 c 128,-1,44
 1164 1123 1164 1123 1169.5 1135 c 128,-1,45
 1175 1147 1175 1147 1178 1158 c 128,-1,46
 1181 1169 1181 1169 1184 1185.5 c 128,-1,47
 1187 1202 1187 1202 1224 1326 c 128,-1,48
 1261 1450 1261 1450 1369 1822 c 0,49,50
 1382 1869 1382 1869 1401.5 1894 c 128,-1,51
 1421 1919 1421 1919 1463 1920 c 2,52,53
 1463 1920 1463 1920 1469 1920 c 0,54,55
 1524 1920 1524 1920 1545 1890 c 128,-1,56
 1566 1860 1566 1860 1566 1833 c 128,-1,57
 1566 1806 1566 1806 1542 1712 c 128,-1,58
 1518 1618 1518 1618 1388 1119 c 0,59,60
 1388 1117 1388 1117 1369 1067 c 1,61,62
 1331 1069 1331 1069 1309 1073 c 0,63,64
 1248 1084 1248 1084 1210.5 1071.5 c 128,-1,65
 1173 1059 1173 1059 1150 1012.5 c 128,-1,66
 1127 966 1127 966 1127 936 c 0,67,68
 1127 841 1127 841 1194 783 c 0,69,70
 1208 771 1208 771 1236 751.5 c 128,-1,71
 1264 732 1264 732 1288 712 c 0,72,73
 1339 670 1339 670 1270 624 c 0,74,75
 1254 613 1254 613 1209 586 c 0,76,77
 1122 534 1122 534 1097 507.5 c 128,-1,78
 1072 481 1072 481 1062.5 469 c 128,-1,79
 1053 457 1053 457 1044 442 c 2,80,81
 1044 442 1044 442 1033.5 424.5 c 128,-1,82
 1023 407 1023 407 1014 388 c 128,-1,83
 1005 369 1005 369 1001 361 c 0,84,85
 971 300 971 300 976.5 287.5 c 128,-1,86
 982 275 982 275 992 260 c 128,-1,87
 1002 245 1002 245 1005 238 c 1,88,89
 1010 243 1010 243 1022 252 c 0,90,91
 1048 273 1048 273 1051 286 c 0,92,93
 1077 387 1077 387 1149 449 c 0,94,95
 1215 506 1215 506 1278.5 534.5 c 128,-1,96
 1342 563 1342 563 1362 582 c 0,97,98
 1402 620 1402 620 1402 688 c 0,99,100
 1402 748 1402 748 1340 781 c 0,101,102
 1317 792 1317 792 1263 833 c 1,103,104
 1215 863 1215 863 1215 912 c 0,105,106
 1215 959 1215 959 1241 977 c 128,-1,107
 1267 995 1267 995 1279 992 c 0,108,109
 1466 946 1466 946 1571 906 c 0,110,111
 1637 881 1637 881 1640 793 c 0,112,113
 1640 771 1640 771 1635 747 c 0,114,115
 1597 564 1597 564 1557 461.5 c 128,-1,116
 1517 359 1517 359 1458.5 245.5 c 128,-1,117
 1400 132 1400 132 1379.5 89 c 128,-1,118
 1359 46 1359 46 1356 4 c 0,119,120
 1349 -74 1349 -74 1261 -97 c 0,121,122
 1141 -128 1141 -128 993.5 -128 c 128,-1,123
 846 -128 846 -128 668 -67 c 1,124,125
 668 -67 668 -67 668 -44 c 128,-1,126
 668 -21 668 -21 662.5 15 c 128,-1,127
 657 51 657 51 641 92.5 c 128,-1,128
 625 134 625 134 613 160 c 128,-1,129
 601 186 601 186 576 234 c 128,-1,130
 551 282 551 282 542 300 c 0,131,132
 452 485 452 485 452 665 c 2,0,1
531 1153 m 0,133,134
 533 1151 533 1151 544 1144 c 0,135,136
 569 1130 569 1130 581 1113 c 0,137,138
 690 952 690 952 787 795 c 0,139,140
 834 719 834 719 762 677 c 0,141,142
 737 662 737 662 707.5 662 c 128,-1,143
 678 662 678 662 651 704 c 0,144,145
 506 924 506 924 467.5 986 c 128,-1,146
 429 1048 429 1048 429.5 1070 c 128,-1,147
 430 1092 430 1092 442 1111 c 0,148,149
 468 1152 468 1152 531 1153 c 0,133,134
912 801 m 0,150,151
 905 801 905 801 887 814 c 128,-1,152
 869 827 869 827 864 835 c 0,153,154
 772 971 772 971 652 1161 c 0,155,156
 635 1189 635 1189 635 1218.5 c 128,-1,157
 635 1248 635 1248 670 1267.5 c 128,-1,158
 705 1287 705 1287 734.5 1287 c 128,-1,159
 764 1287 764 1287 790 1249 c 0,160,161
 951 1004 951 1004 981.5 953.5 c 128,-1,162
 1012 903 1012 903 1012 881 c 128,-1,163
 1012 859 1012 859 1000 841 c 0,164,165
 975 802 975 802 912 801 c 0,150,151
EndSplineSet
Validated: 33
EndChar

StartChar: uniE1A3
Encoding: 57763 57763 99
Width: 2048
GlyphClass: 2
Flags: W
LayerCount: 3
Fore
SplineSet
881 1102 m 128,-1,1
 882 1117 882 1117 871.5 1449.5 c 128,-1,2
 861 1782 861 1782 861 1802 c 0,3,4
 861 1864 861 1864 894 1892 c 128,-1,5
 927 1920 927 1920 969 1920 c 128,-1,6
 1011 1920 1011 1920 1039.5 1893.5 c 128,-1,7
 1068 1867 1068 1867 1071 1822 c 0,8,9
 1078 1713 1078 1713 1089.5 1501.5 c 128,-1,10
 1101 1290 1101 1290 1105 1231.5 c 128,-1,11
 1109 1173 1109 1173 1111.5 1157 c 128,-1,12
 1114 1141 1114 1141 1118 1121 c 2,13,14
 1118 1121 1118 1121 1124 1091 c 1,15,16
 1129 1090 1129 1090 1139 1088.5 c 128,-1,17
 1149 1087 1149 1087 1153 1086 c 1,18,19
 1157 1097 1157 1097 1167 1119 c 0,20,21
 1189 1168 1189 1168 1202 1215 c 0,22,23
 1246 1375 1246 1375 1336 1694 c 0,24,25
 1353 1754 1353 1754 1380.5 1763.5 c 128,-1,26
 1408 1773 1408 1773 1437 1773 c 128,-1,27
 1466 1773 1466 1773 1486.5 1763 c 128,-1,28
 1507 1753 1507 1753 1521.5 1726 c 128,-1,29
 1536 1699 1536 1699 1534 1678 c 0,30,31
 1524 1600 1524 1600 1498 1487.5 c 128,-1,32
 1472 1375 1472 1375 1389 1038 c 1,33,34
 1344 1042 1344 1042 1319.5 1047.5 c 128,-1,35
 1295 1053 1295 1053 1271.5 1053 c 128,-1,36
 1248 1053 1248 1053 1237 1050 c 0,37,38
 1204 1041 1204 1041 1180.5 1000.5 c 128,-1,39
 1157 960 1157 960 1157.5 931 c 128,-1,40
 1158 902 1158 902 1159 888 c 0,41,42
 1168 827 1168 827 1211 788 c 0,43,44
 1235 767 1235 767 1277 737 c 128,-1,45
 1319 707 1319 707 1331 698 c 1,46,47
 1339 662 1339 662 1323 646 c 0,48,49
 1302 626 1302 626 1238 593.5 c 128,-1,50
 1174 561 1174 561 1111 500.5 c 128,-1,51
 1048 440 1048 440 1017 355 c 1,52,53
 992 305 992 305 1012 280 c 0,54,55
 1020 269 1020 269 1036 259 c 1,56,57
 1039 262 1039 262 1046 267 c 0,58,59
 1062 277 1062 277 1064 286 c 0,60,61
 1086 391 1086 391 1158 456 c 0,62,63
 1221 512 1221 512 1318 561 c 0,64,65
 1371 588 1371 588 1386 623 c 128,-1,66
 1401 658 1401 658 1405.5 674.5 c 128,-1,67
 1410 691 1410 691 1404 709 c 128,-1,68
 1398 727 1398 727 1385 738.5 c 128,-1,69
 1372 750 1372 750 1349.5 767 c 128,-1,70
 1327 784 1327 784 1299.5 801 c 128,-1,71
 1272 818 1272 818 1259 829 c 0,72,73
 1224 856 1224 856 1224 891 c 128,-1,74
 1224 926 1224 926 1233 949.5 c 128,-1,75
 1242 973 1242 973 1251 981 c 128,-1,76
 1260 989 1260 989 1274 989 c 0,77,78
 1296 989 1296 989 1311 984.5 c 128,-1,79
 1326 980 1326 980 1394.5 961.5 c 128,-1,80
 1463 943 1463 943 1533 919.5 c 128,-1,81
 1603 896 1603 896 1622 870 c 128,-1,82
 1641 844 1641 844 1642 804 c 128,-1,83
 1643 764 1643 764 1643 753 c 0,84,85
 1643 603 1643 603 1571 459 c 0,86,87
 1563 442 1563 442 1499 313.5 c 128,-1,88
 1435 185 1435 185 1406 125.5 c 128,-1,89
 1377 66 1377 66 1372 22 c 0,90,91
 1363 -72 1363 -72 1251 -102 c 0,92,93
 1152 -128 1152 -128 1076 -128 c 128,-1,94
 1000 -128 1000 -128 939 -122 c 0,95,96
 830 -111 830 -111 667 -69 c 0,97,98
 644 -63 644 -63 631 -21.5 c 128,-1,99
 618 20 618 20 602 84.5 c 128,-1,100
 586 149 586 149 573.5 188 c 128,-1,101
 561 227 561 227 525 286 c 0,102,103
 457 399 457 399 443 504 c 128,-1,104
 429 609 429 609 429 689 c 128,-1,105
 429 769 429 769 433 835 c 1,106,107
 450 809 450 809 478 764 c 0,108,109
 532 681 532 681 575 622 c 128,-1,110
 618 563 618 563 685 557 c 1,111,112
 685 557 685 557 696 557 c 0,113,114
 758 557 758 557 804.5 605.5 c 128,-1,115
 851 654 851 654 854 696 c 2,116,117
 854 696 854 696 854 702 c 0,118,119
 854 742 854 742 824.5 789.5 c 128,-1,120
 795 837 795 837 742 916 c 128,-1,121
 689 995 689 995 660 1040 c 0,122,123
 595 1146 595 1146 580 1219 c 0,124,125
 564 1299 564 1299 482 1571 c 0,126,127
 475 1597 475 1597 475 1617 c 0,128,129
 475 1675 475 1675 532 1692 c 0,130,131
 555 1699 555 1699 576 1699 c 0,132,133
 634 1699 634 1699 660 1620 c 0,134,135
 696 1507 696 1507 757.5 1300 c 128,-1,136
 819 1093 819 1093 825 1082 c 128,-1,137
 831 1071 831 1071 839 1056.5 c 128,-1,138
 847 1042 847 1042 850 1035 c 1,139,140
 854 1036 854 1036 862.5 1037.5 c 128,-1,141
 871 1039 871 1039 875 1040 c 0,142,143
 876 1050 876 1050 878 1068.5 c 128,-1,0
 880 1087 880 1087 881 1102 c 128,-1,1
766 761 m 0,144,145
 785 731 785 731 785 699 c 128,-1,146
 785 667 785 667 749.5 645.5 c 128,-1,147
 714 624 714 624 681.5 624 c 128,-1,148
 649 624 649 624 623.5 661 c 128,-1,149
 598 698 598 698 540.5 788.5 c 128,-1,150
 483 879 483 879 464 906 c 0,151,152
 406 989 406 989 405 1020.5 c 128,-1,153
 404 1052 404 1052 428 1080 c 128,-1,154
 452 1108 452 1108 510 1108 c 2,155,156
 510 1108 510 1108 516 1108 c 0,157,158
 519 1105 519 1105 532 1096 c 0,159,160
 561 1076 561 1076 574 1057 c 0,161,162
 666 922 666 922 766 761 c 0,144,145
EndSplineSet
Validated: 33
EndChar

StartChar: uniE1A4
Encoding: 57764 57764 100
Width: 2048
GlyphClass: 2
Flags: W
LayerCount: 3
Fore
SplineSet
1543 971 m 1,0,1
 1200 1018 1200 1018 1159 1018 c 0,2,3
 1027 1018 1027 1018 1021 867 c 1,4,5
 1021 747 1021 747 1156 694 c 0,6,7
 1164 691 1164 691 1320 633 c 1,8,9
 1213 555 1213 555 1209 551 c 0,10,11
 1069 443 1069 443 1033 311 c 0,12,13
 1025 280 1025 280 1025 260 c 128,-1,14
 1025 240 1025 240 1026 229.5 c 128,-1,15
 1027 219 1027 219 1038.5 204.5 c 128,-1,16
 1050 190 1050 190 1060 192 c 128,-1,17
 1070 194 1070 194 1085 204 c 128,-1,18
 1100 214 1100 214 1101 223 c 0,19,20
 1115 380 1115 380 1274 498 c 0,21,22
 1303 519 1303 519 1335 540 c 0,23,24
 1395 581 1395 581 1398 654 c 0,25,26
 1401 698 1401 698 1252 749 c 0,27,28
 1199 767 1199 767 1176 780 c 0,29,30
 1122 809 1122 809 1111 851.5 c 128,-1,31
 1100 894 1100 894 1117 916.5 c 128,-1,32
 1134 939 1134 939 1173 933 c 0,33,34
 1343 910 1343 910 1536 879 c 0,35,36
 1634 863 1634 863 1631 667 c 0,37,38
 1631 548 1631 548 1597 457 c 128,-1,39
 1563 366 1563 366 1520 265.5 c 128,-1,40
 1477 165 1477 165 1463 130.5 c 128,-1,41
 1449 96 1449 96 1438.5 65 c 128,-1,42
 1428 34 1428 34 1413.5 -10.5 c 128,-1,43
 1399 -55 1399 -55 1390 -80 c 1,44,45
 1259 -130 1259 -130 1122 -128 c 0,46,47
 971 -128 971 -128 761 -78 c 1,48,49
 750 -44 750 -44 728 20 c 0,50,51
 680 154 680 154 631 346 c 128,-1,52
 582 538 582 538 565.5 649.5 c 128,-1,53
 549 761 549 761 526.5 827.5 c 128,-1,54
 504 894 504 894 466 982.5 c 128,-1,55
 428 1071 428 1071 410 1118 c 128,-1,56
 392 1165 392 1165 358.5 1241.5 c 128,-1,57
 325 1318 325 1318 322.5 1330.5 c 128,-1,58
 320 1343 320 1343 321 1356 c 0,59,60
 323 1383 323 1383 348.5 1395 c 128,-1,61
 374 1407 374 1407 400.5 1407.5 c 128,-1,62
 427 1408 427 1408 455.5 1360.5 c 128,-1,63
 484 1313 484 1313 583 1152 c 128,-1,64
 682 991 682 991 688 978 c 0,65,66
 706 946 706 946 724 934 c 0,67,68
 754 914 754 914 778 904 c 1,69,70
 780 912 780 912 786 927 c 0,71,72
 800 958 800 958 798 976 c 0,73,74
 776 1101 776 1101 720 1396 c 0,75,76
 662 1703 662 1703 662 1732 c 0,77,78
 662 1801 662 1801 737 1811 c 0,79,80
 785 1815 785 1815 807.5 1798 c 128,-1,81
 830 1781 830 1781 840.5 1726.5 c 128,-1,82
 851 1672 851 1672 894.5 1438 c 128,-1,83
 938 1204 938 1204 942 1172 c 0,84,85
 956 1076 956 1076 968.5 1061 c 128,-1,86
 981 1046 981 1046 993.5 1035 c 128,-1,87
 1006 1024 1006 1024 1011 1018 c 1,88,89
 1015 1025 1015 1025 1026 1038 c 0,90,91
 1048 1065 1048 1065 1050 1080 c 0,92,93
 1060 1224 1060 1224 1074 1483.5 c 128,-1,94
 1088 1743 1088 1743 1088 1764 c 0,95,96
 1088 1804 1088 1804 1093.5 1841.5 c 128,-1,97
 1099 1879 1099 1879 1125 1899.5 c 128,-1,98
 1151 1920 1151 1920 1184 1920 c 0,99,100
 1284 1920 1284 1920 1284 1825 c 2,101,102
 1284 1825 1284 1825 1279.5 1680.5 c 128,-1,103
 1275 1536 1275 1536 1271 1402 c 0,104,105
 1263 1139 1263 1139 1265 1121 c 128,-1,106
 1267 1103 1267 1103 1272.5 1092.5 c 128,-1,107
 1278 1082 1278 1082 1288 1068.5 c 128,-1,108
 1298 1055 1298 1055 1302 1049 c 1,109,110
 1307 1054 1307 1054 1319 1062 c 0,111,112
 1345 1081 1345 1081 1357 1113.5 c 128,-1,113
 1369 1146 1369 1146 1424.5 1304 c 128,-1,114
 1480 1462 1480 1462 1494 1501 c 0,115,116
 1520 1568 1520 1568 1541 1634 c 128,-1,117
 1562 1700 1562 1700 1624 1700 c 0,118,119
 1692 1700 1692 1700 1718 1656 c 0,120,121
 1728 1639 1728 1639 1728 1619 c 128,-1,122
 1728 1599 1728 1599 1714.5 1551.5 c 128,-1,123
 1701 1504 1701 1504 1543 971 c 1,0,1
EndSplineSet
Validated: 33
EndChar

StartChar: uniE1A5
Encoding: 57765 57765 101
Width: 2048
GlyphClass: 2
Flags: W
LayerCount: 3
Fore
SplineSet
897.5 1441 m 128,-1,1
 906 1633 906 1633 911.5 1753 c 128,-1,2
 917 1873 917 1873 944.5 1896.5 c 128,-1,3
 972 1920 972 1920 1021 1920 c 128,-1,4
 1070 1920 1070 1920 1089 1894 c 128,-1,5
 1108 1868 1108 1868 1108 1841 c 2,6,7
 1108 1841 1108 1841 1108 1825.5 c 128,-1,8
 1108 1810 1108 1810 1091 1175 c 0,9,10
 1091 1128 1091 1128 1092.5 1107.5 c 128,-1,11
 1094 1087 1094 1087 1105 1074.5 c 128,-1,12
 1116 1062 1116 1062 1126 1060 c 0,13,14
 1145 1056 1145 1056 1159 1072.5 c 128,-1,15
 1173 1089 1173 1089 1176.5 1097 c 128,-1,16
 1180 1105 1180 1105 1182.5 1111 c 128,-1,17
 1185 1117 1185 1117 1188 1127.5 c 128,-1,18
 1191 1138 1191 1138 1196.5 1153.5 c 128,-1,19
 1202 1169 1202 1169 1263.5 1346.5 c 128,-1,20
 1325 1524 1325 1524 1351.5 1599 c 128,-1,21
 1378 1674 1378 1674 1401.5 1688.5 c 128,-1,22
 1425 1703 1425 1703 1445 1703 c 128,-1,23
 1465 1703 1465 1703 1499 1692 c 0,24,25
 1554 1675 1554 1675 1551 1616 c 0,26,27
 1551 1591 1551 1591 1537 1542 c 128,-1,28
 1523 1493 1523 1493 1463 1294.5 c 128,-1,29
 1403 1096 1403 1096 1373 994 c 0,30,31
 1328 840 1328 840 1328 781 c 128,-1,32
 1328 722 1328 722 1342.5 671.5 c 128,-1,33
 1357 621 1357 621 1385.5 620.5 c 128,-1,34
 1414 620 1414 620 1452 662 c 0,35,36
 1522 740 1522 740 1600 829.5 c 128,-1,37
 1678 919 1678 919 1681 921 c 0,38,39
 1720 965 1720 965 1738 965 c 2,40,41
 1738 965 1738 965 1739 965 c 0,42,43
 1809 959 1809 959 1840 933 c 128,-1,44
 1871 907 1871 907 1871 881 c 128,-1,45
 1871 855 1871 855 1844 817 c 0,46,47
 1486 306 1486 306 1405 182.5 c 128,-1,48
 1324 59 1324 59 1314 46 c 0,49,50
 1296 22 1296 22 1296 2.5 c 128,-1,51
 1296 -17 1296 -17 1289 -36 c 128,-1,52
 1282 -55 1282 -55 1272 -66 c 128,-1,53
 1262 -77 1262 -77 1243 -86 c 0,54,55
 1218 -97 1218 -97 1142.5 -112 c 128,-1,56
 1067 -127 1067 -127 933 -127.5 c 128,-1,57
 799 -128 799 -128 631 -86 c 1,58,59
 566 89 566 89 540 143 c 0,60,61
 424 384 424 384 405 587 c 0,62,63
 389 754 389 754 326 939 c 0,64,65
 303 1008 303 1008 263 1119 c 128,-1,66
 223 1230 223 1230 212 1263 c 128,-1,67
 201 1296 201 1296 194 1316 c 0,68,69
 176 1364 176 1364 176 1383 c 0,70,71
 176 1423 176 1423 216 1439 c 0,72,73
 233 1446 233 1446 247 1445 c 0,74,75
 284 1445 284 1445 307 1402 c 0,76,77
 372 1277 372 1277 445 1136.5 c 128,-1,78
 518 996 518 996 532 972 c 128,-1,79
 546 948 546 948 556 940 c 0,80,81
 567 931 567 931 601 912 c 1,82,83
 604 920 604 920 612 936 c 0,84,85
 628 973 628 973 621 1013 c 128,-1,86
 614 1053 614 1053 552 1380 c 128,-1,87
 490 1707 490 1707 490 1728 c 0,88,89
 490 1813 490 1813 582 1813 c 2,90,91
 582 1813 582 1813 584 1813 c 0,92,93
 623 1813 623 1813 642 1791.5 c 128,-1,94
 661 1770 661 1770 668 1728 c 0,95,96
 784 1093 784 1093 793 1069 c 0,97,98
 810 1024 810 1024 838 1027 c 0,99,100
 847 1028 847 1028 858 1039 c 0,101,102
 879 1059 879 1059 884 1154 c 128,-1,0
 889 1249 889 1249 897.5 1441 c 128,-1,1
1205 619 m 1,103,104
 1205 619 1205 619 1176.5 623 c 128,-1,105
 1148 627 1148 627 1134 623 c 0,106,107
 940 519 940 519 874 357 c 0,108,109
 866 336 866 336 856.5 306.5 c 128,-1,110
 847 277 847 277 840 261 c 1,111,112
 872 216 872 216 884 200 c 1,113,114
 889 206 889 206 902 216 c 0,115,116
 928 239 928 239 930 253 c 0,117,118
 942 338 942 338 990 400 c 0,119,120
 1056 487 1056 487 1144 535 c 0,121,122
 1173 551 1173 551 1181.5 567.5 c 128,-1,123
 1190 584 1190 584 1196 598.5 c 128,-1,124
 1202 613 1202 613 1205 619 c 1,103,104
EndSplineSet
Validated: 33
EndChar

StartChar: uniE1A6
Encoding: 57766 57766 102
Width: 2048
GlyphClass: 2
Flags: W
LayerCount: 3
Fore
SplineSet
709 1170 m 0,0,1
 582 1159 582 1159 474.5 1177.5 c 128,-1,2
 367 1196 367 1196 338 1196 c 0,3,4
 193 1196 193 1196 153 1124 c 0,5,6
 118 1061 118 1061 162 987 c 0,7,8
 178 961 178 961 176 943 c 128,-1,9
 174 925 174 925 150 904 c 0,10,11
 104 865 104 865 101 806 c 2,12,13
 101 806 101 806 101 798 c 0,14,15
 101 743 101 743 133.5 712.5 c 128,-1,16
 166 682 166 682 169 658.5 c 128,-1,17
 172 635 172 635 158.5 607 c 128,-1,18
 145 579 145 579 145 555 c 0,19,20
 145 478 145 478 222 440 c 0,21,22
 245 428 245 428 252 415 c 128,-1,23
 259 402 259 402 253 377 c 128,-1,24
 247 352 247 352 247 323 c 128,-1,25
 247 294 247 294 263 268 c 0,26,27
 309 190 309 190 540 185 c 0,28,29
 575 184 575 184 632 184 c 2,30,31
 632 184 632 184 745.5 184.5 c 128,-1,32
 859 185 859 185 898 185 c 2,33,34
 898 185 898 185 962 184.5 c 128,-1,35
 1026 184 1026 184 1077.5 175.5 c 128,-1,36
 1129 167 1129 167 1143 173.5 c 128,-1,37
 1157 180 1157 180 1167.5 201.5 c 128,-1,38
 1178 223 1178 223 1208.5 282.5 c 128,-1,39
 1239 342 1239 342 1312 482 c 0,40,41
 1413 678 1413 678 1422 694 c 0,42,43
 1440 730 1440 730 1429 746 c 0,44,45
 1418 763 1418 763 1380 806.5 c 128,-1,46
 1342 850 1342 850 1299.5 945.5 c 128,-1,47
 1257 1041 1257 1041 1232 1142 c 0,48,49
 1188 1327 1188 1327 989 1496 c 0,50,51
 815 1645 815 1645 801 1837 c 0,52,53
 801 1848 801 1848 799 1855 c 0,54,55
 786 1914 786 1914 731 1919 c 0,56,57
 691 1919 691 1919 644.5 1851.5 c 128,-1,58
 598 1784 598 1784 598 1708 c 128,-1,59
 598 1632 598 1632 621 1575 c 0,60,61
 661 1476 661 1476 707.5 1390.5 c 128,-1,62
 754 1305 754 1305 768 1277.5 c 128,-1,63
 782 1250 782 1250 782 1232 c 0,64,65
 782 1177 782 1177 709 1170 c 0,0,1
1223 144 m 0,66,67
 1224 153 1224 153 1227.5 162 c 128,-1,68
 1231 171 1231 171 1233 176 c 0,69,70
 1251 221 1251 221 1489 653 c 0,71,72
 1525 717 1525 717 1573 717 c 0,73,74
 1605 717 1605 717 1842 636 c 0,75,76
 1926 607 1926 607 1930 541 c 0,77,78
 1930 508 1930 508 1906 460 c 0,79,80
 1848 347 1848 347 1635 -59 c 0,81,82
 1598 -130 1598 -130 1543 -129 c 0,83,84
 1510 -129 1510 -129 1471 -103 c 0,85,86
 1292 17 1292 17 1244 68 c 0,87,88
 1218 96 1218 96 1223 144 c 0,66,67
1513.5 64.5 m 128,-1,90
 1513 96 1513 96 1491 117.5 c 128,-1,91
 1469 139 1469 139 1437 139 c 128,-1,92
 1405 139 1405 139 1381.5 114.5 c 128,-1,93
 1358 90 1358 90 1359 58 c 128,-1,94
 1360 26 1360 26 1384 4.5 c 128,-1,95
 1408 -17 1408 -17 1440.5 -15 c 128,-1,96
 1473 -13 1473 -13 1493.5 10 c 128,-1,89
 1514 33 1514 33 1513.5 64.5 c 128,-1,90
EndSplineSet
Validated: 41
EndChar

StartChar: uniE1A7
Encoding: 57767 57767 103
Width: 1756
GlyphClass: 2
Flags: W
LayerCount: 3
Fore
SplineSet
1670 546 m 0,0,1
 1670 436 1670 436 1602 342 c 1,2,3
 1602 180 1602 180 1503 90 c 128,-1,4
 1404 0 1404 0 1244 0 c 2,5,-1
 1098 0 l 2,6,7
 976 0 976 0 861 31 c 128,-1,8
 746 62 746 62 677 86 c 0,9,10
 504 146 504 146 476 146 c 2,11,-1
 146 146 l 2,12,13
 86 146 86 146 43 189 c 128,-1,14
 0 232 0 232 0 292 c 2,15,-1
 0 1024 l 2,16,17
 0 1084 0 1084 43 1127 c 128,-1,18
 86 1170 86 1170 146 1170 c 2,19,-1
 460 1170 l 1,20,21
 502 1199 502 1199 616 1348 c 0,22,23
 678 1426 678 1426 734 1487 c 128,-1,24
 790 1548 790 1548 794 1662 c 128,-1,25
 798 1776 798 1776 884 1860 c 0,26,27
 930 1902 930 1902 1003 1902 c 128,-1,28
 1076 1902 1076 1902 1155 1867 c 128,-1,29
 1234 1832 1234 1832 1276 1748 c 0,30,31
 1304 1696 1304 1696 1310 1645 c 128,-1,32
 1316 1594 1316 1594 1316 1511 c 128,-1,33
 1316 1428 1316 1428 1262 1316 c 1,34,-1
 1462 1316 l 2,35,36
 1582 1316 1582 1316 1669 1230 c 128,-1,37
 1756 1144 1756 1144 1756 1036 c 128,-1,38
 1756 928 1756 928 1700 838 c 1,39,40
 1710 793 1710 793 1710 760 c 0,41,42
 1710 672 1710 672 1666 596 c 1,43,44
 1670 572 1670 572 1670 546 c 0,0,1
146 366 m 256,45,46
 146 336 146 336 168 314 c 128,-1,47
 190 292 190 292 220 292 c 256,48,49
 250 292 250 292 271 314 c 128,-1,50
 292 336 292 336 292 366 c 256,51,52
 292 396 292 396 271 417 c 128,-1,53
 250 438 250 438 220 438 c 256,54,55
 190 438 190 438 168 417 c 128,-1,56
 146 396 146 396 146 366 c 256,45,46
1502 624 m 1,57,58
 1564 682 1564 682 1564 760 c 0,59,60
 1564 788 1564 788 1553 823 c 128,-1,61
 1542 858 1542 858 1524 878 c 1,62,63
 1564 878 1564 878 1587 935 c 128,-1,64
 1610 992 1610 992 1610 1037 c 128,-1,65
 1610 1082 1610 1082 1565 1126 c 128,-1,66
 1520 1170 1520 1170 1462 1170 c 2,67,-1
 1060 1170 l 1,68,69
 1060 1270 1060 1270 1115 1352 c 128,-1,70
 1170 1434 1170 1434 1170 1535 c 128,-1,71
 1170 1636 1170 1636 1137 1696 c 128,-1,72
 1104 1756 1104 1756 988 1756 c 1,73,74
 932 1700 932 1700 928 1589 c 128,-1,75
 924 1478 924 1478 842 1390 c 0,76,77
 794 1338 794 1338 754 1287 c 128,-1,78
 714 1236 714 1236 629 1130 c 128,-1,79
 544 1024 544 1024 476 1024 c 2,80,-1
 438 1024 l 1,81,-1
 438 292 l 1,82,-1
 476 292 l 2,83,84
 524 292 524 292 592 269 c 128,-1,85
 660 246 660 246 730 222 c 0,86,87
 952 146 952 146 1098 146 c 2,88,-1
 1236 146 l 2,89,90
 1332 146 1332 146 1393 189 c 128,-1,91
 1454 232 1454 232 1454 338 c 0,92,93
 1454 370 1454 370 1450 402 c 1,94,95
 1486 420 1486 420 1505 463 c 128,-1,96
 1524 506 1524 506 1524 548.5 c 128,-1,97
 1524 591 1524 591 1502 624 c 1,57,58
EndSplineSet
Validated: 1
EndChar

StartChar: uniE1A8
Encoding: 57768 57768 104
Width: 1756
GlyphClass: 2
Flags: W
LayerCount: 3
Fore
SplineSet
1262 438 m 1,0,1
 1316 330 1316 330 1316 220 c 0,2,3
 1316 162 1316 162 1310 110 c 128,-1,4
 1304 58 1304 58 1276 6 c 0,5,6
 1234 -76 1234 -76 1155 -111 c 128,-1,7
 1076 -146 1076 -146 1017 -146 c 128,-1,8
 958 -146 958 -146 932 -135 c 128,-1,9
 906 -124 906 -124 884 -104 c 0,10,11
 798 -20 798 -20 793 94 c 128,-1,12
 788 208 788 208 738 262 c 0,13,14
 678 330 678 330 634 386 c 0,15,16
 502 554 502 554 460 586 c 1,17,-1
 146 586 l 2,18,19
 86 586 86 586 43 628 c 128,-1,20
 0 670 0 670 0 732 c 2,21,-1
 0 1462 l 2,22,23
 0 1524 0 1524 43 1567 c 128,-1,24
 86 1610 86 1610 146 1610 c 2,25,-1
 476 1610 l 2,26,27
 500 1610 500 1610 554 1628 c 128,-1,28
 608 1646 608 1646 682 1672 c 0,29,30
 921 1756 921 1756 1116 1756 c 2,31,-1
 1244 1756 l 2,32,33
 1400 1756 1400 1756 1501 1667 c 128,-1,34
 1602 1578 1602 1578 1602 1418 c 2,35,-1
 1602 1412 l 1,36,37
 1670 1323 1670 1323 1670 1210 c 0,38,39
 1670 1184 1670 1184 1666 1160 c 1,40,41
 1710 1084 1710 1084 1710 996 c 0,42,43
 1710 966 1710 966 1700 916 c 1,44,45
 1756 830 1756 830 1756 721 c 128,-1,46
 1756 612 1756 612 1669 525 c 128,-1,47
 1582 438 1582 438 1462 438 c 2,48,-1
 1262 438 l 1,0,1
146 1390 m 256,49,50
 146 1360 146 1360 168 1338 c 128,-1,51
 190 1316 190 1316 220 1316 c 256,52,53
 250 1316 250 1316 271 1338 c 128,-1,54
 292 1360 292 1360 292 1390 c 256,55,56
 292 1420 292 1420 271 1441 c 128,-1,57
 250 1462 250 1462 220 1462 c 256,58,59
 190 1462 190 1462 168 1441 c 128,-1,60
 146 1420 146 1420 146 1390 c 256,49,50
1450 1354 m 1,61,62
 1454 1386 1454 1386 1454 1418 c 0,63,64
 1454 1518 1454 1518 1396 1564 c 128,-1,65
 1338 1610 1338 1610 1244 1610 c 2,66,-1
 1098 1610 l 2,67,68
 996 1610 996 1610 898 1584 c 128,-1,69
 800 1558 800 1558 730 1534 c 128,-1,70
 660 1510 660 1510 592 1486 c 128,-1,71
 524 1462 524 1462 476 1462 c 2,72,-1
 438 1462 l 1,73,-1
 438 732 l 1,74,-1
 476 732 l 2,75,76
 544 732 544 732 629 626 c 128,-1,77
 714 520 714 520 744 482 c 0,78,79
 812 396 812 396 842 366 c 0,80,81
 924 278 924 278 928 167 c 128,-1,82
 932 56 932 56 988 0 c 1,83,84
 1104 0 1104 0 1137 60 c 128,-1,85
 1170 120 1170 120 1170 220 c 256,86,87
 1170 320 1170 320 1115 402 c 128,-1,88
 1060 484 1060 484 1060 586 c 1,89,-1
 1462 586 l 2,90,91
 1520 586 1520 586 1565 630 c 128,-1,92
 1610 674 1610 674 1610 719 c 128,-1,93
 1610 764 1610 764 1587 820 c 128,-1,94
 1564 876 1564 876 1524 878 c 1,95,96
 1542 898 1542 898 1553 933 c 128,-1,97
 1564 968 1564 968 1564 996 c 0,98,99
 1564 1074 1564 1074 1502 1132 c 1,100,101
 1524 1165 1524 1165 1524 1207.5 c 128,-1,102
 1524 1250 1524 1250 1505 1292 c 128,-1,103
 1486 1334 1486 1334 1450 1354 c 1,61,62
EndSplineSet
Validated: 1
EndChar

StartChar: uniE1A9
Encoding: 57769 57769 105
Width: 2048
GlyphClass: 2
Flags: W
LayerCount: 3
Fore
SplineSet
528 596 m 1,0,1
 490 664 490 664 486 732 c 1,2,-1
 292 732 l 2,3,4
 172 732 172 732 86 819 c 128,-1,5
 0 906 0 906 0 1025 c 128,-1,6
 0 1144 0 1144 87 1230 c 128,-1,7
 174 1316 174 1316 292 1316 c 2,8,-1
 720 1316 l 1,9,10
 694 1394 694 1394 694 1462 c 0,11,12
 694 1608 694 1608 791 1682 c 128,-1,13
 888 1756 888 1756 1013 1756 c 128,-1,14
 1138 1756 1138 1756 1190 1645 c 128,-1,15
 1242 1534 1242 1534 1280 1474 c 0,16,17
 1324 1404 1324 1404 1406 1306 c 0,18,19
 1432 1278 1432 1278 1482 1224 c 128,-1,20
 1532 1170 1532 1170 1572 1170 c 2,21,-1
 1902 1170 l 2,22,23
 1962 1170 1962 1170 2005 1127 c 128,-1,24
 2048 1084 2048 1084 2048 1024 c 2,25,-1
 2048 292 l 2,26,27
 2048 232 2048 232 2005 189 c 128,-1,28
 1962 146 1962 146 1902 146 c 2,29,-1
 1572 146 l 2,30,31
 1495 146 1495 146 1318 78 c 0,32,33
 1230 48 1230 48 1140 24 c 128,-1,34
 1050 0 1050 0 956 0 c 0,35,36
 798 0 798 0 696 86 c 128,-1,37
 594 172 594 172 594 332 c 2,38,39
 594 332 594 332 594 342 c 1,40,41
 524 433 524 433 524 546 c 0,42,43
 524 572 524 572 528 596 c 1,0,1
746 402 m 1,44,45
 740 378 740 378 740 338 c 0,46,47
 740 236 740 236 798 191 c 128,-1,48
 856 146 856 146 946 146 c 128,-1,49
 1036 146 1036 146 1116 169 c 128,-1,50
 1196 192 1196 192 1272 219 c 128,-1,51
 1348 246 1348 246 1423 269 c 128,-1,52
 1498 292 1498 292 1572 292 c 2,53,-1
 1610 292 l 1,54,-1
 1610 1024 l 1,55,-1
 1572 1024 l 2,56,57
 1482 1024 1482 1024 1417 1086 c 128,-1,58
 1352 1148 1352 1148 1307 1199 c 0,59,60
 1213 1306 1213 1306 1185 1350 c 0,61,62
 1148 1411 1148 1411 1126 1454 c 2,63,64
 1126 1454 1126 1454 1087 1532 c 128,-1,65
 1048 1610 1048 1610 1024 1610 c 0,66,67
 952 1610 952 1610 897 1578 c 128,-1,68
 842 1546 842 1546 842 1450 c 128,-1,69
 842 1354 842 1354 896 1289 c 128,-1,70
 950 1224 950 1224 950 1170 c 1,71,-1
 292 1170 l 2,72,73
 236 1170 236 1170 191 1126 c 128,-1,74
 146 1082 146 1082 146 1023 c 128,-1,75
 146 964 146 964 190 921 c 128,-1,76
 234 878 234 878 292 878 c 2,77,-1
 670 878 l 1,78,79
 652 858 652 858 641 823 c 128,-1,80
 630 788 630 788 630 760 c 0,81,82
 630 682 630 682 692 624 c 1,83,84
 670 584 670 584 670 545 c 128,-1,85
 670 506 670 506 690 463 c 128,-1,86
 710 420 710 420 746 402 c 1,44,45
1756 366 m 256,87,88
 1756 336 1756 336 1777 314 c 128,-1,89
 1798 292 1798 292 1828 292 c 256,90,91
 1858 292 1858 292 1880 314 c 128,-1,92
 1902 336 1902 336 1902 366 c 256,93,94
 1902 396 1902 396 1880 417 c 128,-1,95
 1858 438 1858 438 1828 438 c 256,96,97
 1798 438 1798 438 1777 417 c 128,-1,98
 1756 396 1756 396 1756 366 c 256,87,88
EndSplineSet
Validated: 1
EndChar

